<?xml version="1.0" encoding="UTF-8"?>
<!DOCTYPE svg PUBLIC "-//W3C//DTD SVG 1.1//EN" "http://www.w3.org/Graphics/SVG/1.1/DTD/svg11.dtd">
<!-- Creator: CorelDRAW 2021 (64 Bit) -->
<svg xmlns="http://www.w3.org/2000/svg" xml:space="preserve" width="1500px" height="115px" version="1.1" style="shape-rendering:geometricPrecision; text-rendering:geometricPrecision; image-rendering:optimizeQuality; fill-rule:evenodd; clip-rule:evenodd"
viewBox="0 0 1458.78 111.36"
 xmlns:xlink="http://www.w3.org/1999/xlink"
 xmlns:xodm="http://www.corel.com/coreldraw/odm/2003">
 <defs>
  <style type="text/css">
   <![CDATA[
    .str0 {stroke:#B3B3B3;stroke-width:0.88;stroke-miterlimit:22.9256}
    .fil75 {fill:none}
    .fil32 {fill:#311281}
    .fil31 {fill:#311382}
    .fil30 {fill:#311384}
    .fil29 {fill:#311486}
    .fil28 {fill:#311587}
    .fil27 {fill:#311589}
    .fil26 {fill:#31168B}
    .fil25 {fill:#31178C}
    .fil24 {fill:#31178E}
    .fil23 {fill:#311890}
    .fil22 {fill:#311991}
    .fil21 {fill:#311993}
    .fil20 {fill:#311A95}
    .fil19 {fill:#311B97}
    .fil18 {fill:#311B98}
    .fil17 {fill:#311C9A}
    .fil16 {fill:#311D9C}
    .fil15 {fill:#311D9D}
    .fil14 {fill:#311E9F}
    .fil13 {fill:#311EA0}
    .fil12 {fill:#311FA2}
    .fil11 {fill:#311FA3}
    .fil10 {fill:#3120A4}
    .fil9 {fill:#3121A6}
    .fil8 {fill:#3121A7}
    .fil7 {fill:#3121A8}
    .fil6 {fill:#3122A9}
    .fil5 {fill:#3122AA}
    .fil4 {fill:#3122AB}
    .fil3 {fill:#3123AB}
    .fil2 {fill:#3123AC}
    .fil74 {fill:#320053}
    .fil73 {fill:#320054}
    .fil72 {fill:#320154}
    .fil71 {fill:#320155}
    .fil70 {fill:#320156}
    .fil69 {fill:#320157}
    .fil68 {fill:#320257}
    .fil67 {fill:#320258}
    .fil66 {fill:#320259}
    .fil65 {fill:#32035A}
    .fil64 {fill:#32035B}
    .fil63 {fill:#32035C}
    .fil62 {fill:#32045C}
    .fil61 {fill:#32045D}
    .fil60 {fill:#32045E}
    .fil59 {fill:#32055F}
    .fil58 {fill:#320560}
    .fil57 {fill:#320661}
    .fil56 {fill:#320662}
    .fil55 {fill:#320663}
    .fil54 {fill:#320764}
    .fil53 {fill:#320765}
    .fil52 {fill:#320766}
    .fil51 {fill:#320867}
    .fil50 {fill:#320868}
    .fil49 {fill:#320969}
    .fil48 {fill:#32096A}
    .fil47 {fill:#320A6B}
    .fil46 {fill:#320A6D}
    .fil45 {fill:#320B6E}
    .fil44 {fill:#320B6F}
    .fil43 {fill:#320C71}
    .fil42 {fill:#320C72}
    .fil41 {fill:#320D73}
    .fil40 {fill:#320D75}
    .fil39 {fill:#320E76}
    .fil38 {fill:#320E77}
    .fil37 {fill:#320F79}
    .fil36 {fill:#32107A}
    .fil35 {fill:#32107C}
    .fil34 {fill:#32117E}
    .fil33 {fill:#32117F}
    .fil0 {fill:#42006B}
    .fil1 {fill:#4C0975}
    .fil76 {fill:white;fill-rule:nonzero}
   ]]>
  </style>
    <clipPath id="id0">
     <path d="M0 0.44l1458.78 0 0 16.17 -1458.78 0 0 -16.17z"/>
    </clipPath>
    <clipPath id="id1">
     <path d="M0 45.39l1458.78 0 0 37.19 -1458.78 0 0 -37.19z"/>
    </clipPath>
 </defs>
 <g id="Camada_x0020_1">
  <metadata id="CorelCorpID_0Corel-Layer"/>
  <rect class="fil0" y="82.58" width="1458.78" height="28.77"/>
  <rect class="fil1" y="16.61" width="1458.78" height="28.77"/>
  <g>
   <g style="clip-path:url(#id0)">
    <path class="fil2" d="M659.27 19.33c-11.49,-0.2 -9,-0.5 5.56,-0.67 14.55,-0.16 35.67,-0.13 47.15,0.08 11.49,0.21 9,0.51 -5.56,0.67 -14.56,0.17 -35.67,0.13 -47.15,-0.08z"/>
    <path id="_1" class="fil2" d="M668.05 19.23c7.66,0.14 21.73,0.17 31.44,0.06 9.7,-0.11 11.36,-0.31 3.71,-0.45 -7.66,-0.14 -21.74,-0.16 -31.44,-0.05 -9.71,0.11 -11.37,0.31 -3.71,0.44zm-26.36 0.3c-19.14,-0.35 -14.99,-0.85 9.27,-1.12 24.26,-0.27 59.45,-0.21 78.6,0.13 19.14,0.35 14.99,0.85 -9.27,1.12 -24.26,0.27 -59.45,0.21 -78.6,-0.13z"/>
    <path id="_2" class="fil2" d="M650.48 19.43c15.32,0.28 43.47,0.33 62.88,0.11 19.41,-0.22 22.72,-0.62 7.41,-0.9 -15.32,-0.27 -43.47,-0.32 -62.88,-0.1 -19.41,0.22 -22.73,0.62 -7.41,0.89zm-26.36 0.3c-26.8,-0.49 -20.99,-1.19 12.97,-1.57 33.97,-0.38 83.23,-0.3 110.04,0.19 26.8,0.48 20.99,1.18 -12.98,1.56 -33.96,0.38 -83.23,0.3 -110.03,-0.18z"/>
    <path id="_3" class="fil3" d="M632.91 19.63c22.97,0.41 65.2,0.48 94.31,0.16 29.12,-0.33 34.09,-0.93 11.12,-1.35 -22.97,-0.41 -65.2,-0.48 -94.31,-0.15 -29.12,0.32 -34.1,0.92 -11.12,1.34zm-26.36 0.29c-34.46,-0.62 -26.99,-1.52 16.68,-2.01 43.67,-0.49 107.01,-0.38 141.47,0.24 34.46,0.62 26.99,1.52 -16.68,2.01 -43.67,0.49 -107.01,0.39 -141.47,-0.24z"/>
    <path id="_4" class="fil4" d="M615.34 19.83c30.63,0.55 86.93,0.64 125.75,0.21 38.82,-0.44 45.46,-1.24 14.82,-1.79 -30.63,-0.55 -86.93,-0.65 -125.75,-0.21 -38.82,0.43 -45.46,1.23 -14.82,1.79zm-26.36 0.29c-42.12,-0.76 -32.99,-1.86 20.38,-2.46 53.38,-0.6 130.79,-0.47 172.91,0.29 42.12,0.76 32.99,1.86 -20.39,2.46 -53.37,0.6 -130.79,0.47 -172.9,-0.29z"/>
    <path id="_5" class="fil5" d="M597.76 20.02c38.29,0.69 108.67,0.81 157.19,0.27 48.53,-0.55 56.83,-1.55 18.54,-2.24 -38.29,-0.69 -108.67,-0.81 -157.19,-0.26 -48.53,0.54 -56.83,1.54 -18.54,2.23zm-26.36 0.3c-49.77,-0.9 -38.98,-2.2 24.1,-2.91 63.08,-0.71 154.57,-0.55 204.34,0.34 49.78,0.9 38.99,2.2 -24.09,2.91 -63.08,0.71 -154.57,0.56 -204.35,-0.34z"/>
    <path id="_6" class="fil6" d="M580.19 20.22c45.95,0.83 130.4,0.97 188.63,0.32 58.23,-0.66 68.19,-1.86 22.24,-2.69 -45.95,-0.82 -130.4,-0.97 -188.63,-0.31 -58.23,0.65 -68.19,1.85 -22.24,2.68zm-26.36 0.3c-57.43,-1.04 -44.99,-2.54 27.8,-3.36 72.79,-0.81 178.35,-0.64 235.79,0.4 57.43,1.03 44.98,2.54 -27.8,3.35 -72.79,0.82 -178.35,0.64 -235.79,-0.39z"/>
    <path id="_7" class="fil7" d="M562.62 20.42c53.6,0.96 152.13,1.13 220.06,0.37 67.94,-0.77 79.55,-2.17 25.95,-3.13 -53.6,-0.97 -152.13,-1.14 -220.06,-0.37 -67.94,0.76 -79.56,2.16 -25.95,3.13zm-26.36 0.29c-65.09,-1.17 -50.99,-2.87 31.51,-3.8 82.49,-0.92 202.13,-0.72 267.22,0.45 65.09,1.17 50.98,2.88 -31.51,3.8 -82.49,0.93 -202.13,0.73 -267.22,-0.45z"/>
    <path id="_8" class="fil8" d="M545.05 20.62c61.26,1.1 173.86,1.29 251.5,0.42 77.64,-0.87 90.91,-2.48 29.65,-3.58 -61.26,-1.11 -173.86,-1.3 -251.5,-0.42 -77.64,0.87 -90.92,2.47 -29.65,3.58zm-26.36 0.29c-72.75,-1.31 -56.99,-3.21 35.21,-4.25 92.2,-1.03 225.91,-0.81 298.66,0.5 72.75,1.31 56.98,3.22 -35.21,4.25 -92.2,1.04 -225.91,0.81 -298.66,-0.5z"/>
    <path id="_9" class="fil9" d="M527.47 20.81c68.92,1.25 195.6,1.46 282.95,0.48 87.34,-0.98 102.27,-2.79 33.36,-4.03 -68.92,-1.24 -195.6,-1.45 -282.95,-0.47 -87.34,0.98 -102.28,2.78 -33.36,4.02zm-26.35 0.3c-80.41,-1.45 -62.99,-3.55 38.92,-4.7 101.9,-1.14 249.69,-0.89 330.09,0.56 80.41,1.45 62.99,3.55 -38.92,4.69 -101.9,1.15 -249.69,0.9 -330.09,-0.55z"/>
    <path id="_10" class="fil10" d="M509.9 21.01c76.58,1.38 217.33,1.62 314.38,0.53 97.05,-1.09 113.64,-3.1 37.07,-4.48 -76.58,-1.38 -217.33,-1.61 -314.38,-0.52 -97.05,1.09 -113.65,3.09 -37.07,4.47zm-26.36 0.3c-88.06,-1.59 -68.98,-3.9 42.63,-5.15 111.61,-1.25 273.47,-0.98 361.54,0.61 88.06,1.59 68.98,3.89 -42.63,5.14 -111.61,1.26 -273.47,0.98 -361.54,-0.6z"/>
    <path id="_11" class="fil11" d="M492.33 21.21c84.23,1.52 239.06,1.78 345.82,0.58 106.75,-1.2 125,-3.4 40.77,-4.92 -84.24,-1.52 -239.06,-1.78 -345.82,-0.58 -106.75,1.2 -125.01,3.4 -40.77,4.92zm-26.36 0.29c-95.72,-1.72 -74.98,-4.23 46.33,-5.59 121.32,-1.36 297.26,-1.06 392.98,0.66 95.72,1.73 74.98,4.23 -46.33,5.59 -121.32,1.36 -297.26,1.07 -392.98,-0.66z"/>
    <path id="_12" class="fil12" d="M474.76 21.4c91.89,1.66 260.79,1.94 377.25,0.64 116.46,-1.31 136.38,-3.71 44.48,-5.37 -91.89,-1.66 -260.79,-1.94 -377.25,-0.63 -116.46,1.3 -136.38,3.71 -44.48,5.36zm-26.36 0.3c-103.38,-1.86 -80.98,-4.57 50.04,-6.04 131.01,-1.47 321.03,-1.15 424.41,0.71 103.38,1.87 80.98,4.57 -50.04,6.04 -131.02,1.47 -321.03,1.15 -424.41,-0.71z"/>
    <path id="_13" class="fil13" d="M457.18 21.6c99.56,1.8 282.53,2.1 408.7,0.69 126.16,-1.42 147.74,-4.02 48.18,-5.82 -99.55,-1.79 -282.53,-2.1 -408.69,-0.68 -126.16,1.41 -147.74,4.02 -48.19,5.81zm-26.35 0.3c-111.04,-2 -86.98,-4.91 53.74,-6.49 140.72,-1.58 344.81,-1.24 455.85,0.77 111.04,2 86.98,4.9 -53.74,6.48 -140.73,1.58 -344.82,1.24 -455.85,-0.76z"/>
    <path id="_14" class="fil14" d="M439.61 21.8c107.21,1.93 304.26,2.26 440.13,0.74 135.87,-1.53 159.11,-4.33 51.9,-6.26 -107.21,-1.94 -304.27,-2.27 -440.13,-0.74 -135.87,1.52 -159.11,4.33 -51.9,6.26zm-26.36 0.3c-118.69,-2.15 -92.97,-5.25 57.46,-6.94 150.42,-1.69 368.59,-1.32 487.28,0.82 118.7,2.14 92.98,5.24 -57.45,6.93 -150.42,1.69 -368.59,1.33 -487.29,-0.81z"/>
    <path id="_15" class="fil15" d="M422.04 22c114.87,2.07 326,2.42 471.57,0.79 145.57,-1.64 170.47,-4.64 55.6,-6.71 -114.87,-2.07 -326,-2.43 -471.57,-0.79 -145.57,1.63 -170.47,4.64 -55.6,6.71zm-26.36 0.29c-126.35,-2.28 -98.97,-5.58 61.16,-7.38 160.13,-1.8 392.37,-1.41 518.73,0.87 126.35,2.28 98.97,5.58 -61.16,7.38 -160.13,1.8 -392.38,1.41 -518.73,-0.87z"/>
    <path id="_16" class="fil16" d="M404.47 22.19c122.52,2.21 347.73,2.59 503,0.85 155.28,-1.75 181.84,-4.95 59.31,-7.16 -122.52,-2.21 -347.73,-2.59 -503.01,-0.84 -155.27,1.74 -181.83,4.94 -59.3,7.15zm-26.36 0.3c-134.01,-2.42 -104.97,-5.92 64.87,-7.83 169.83,-1.91 416.15,-1.49 550.16,0.92 134.01,2.42 104.97,5.93 -64.87,7.83 -169.83,1.91 -416.15,1.5 -550.16,-0.92z"/>
    <path id="_17" class="fil17" d="M386.9 22.39c130.18,2.35 369.46,2.75 534.44,0.9 164.98,-1.86 193.2,-5.26 63.01,-7.61 -130.18,-2.34 -369.46,-2.75 -534.44,-0.89 -164.98,1.85 -193.2,5.25 -63.01,7.6zm-26.36 0.3c-141.67,-2.56 -110.97,-6.26 68.57,-8.28 179.54,-2.01 439.93,-1.58 581.6,0.98 141.67,2.55 110.97,6.26 -68.57,8.27 -179.54,2.02 -439.93,1.58 -581.6,-0.97z"/>
    <path id="_18" class="fil18" d="M369.32 22.59c137.84,2.48 391.2,2.91 565.89,0.95 174.68,-1.96 204.56,-5.57 66.72,-8.05 -137.84,-2.49 -391.2,-2.91 -565.89,-0.95 -174.68,1.96 -204.56,5.56 -66.72,8.05zm-26.36 0.29c-149.32,-2.69 -116.96,-6.59 72.28,-8.72 189.25,-2.12 463.72,-1.66 613.04,1.03 149.33,2.69 116.97,6.6 -72.28,8.72 -189.24,2.13 -463.71,1.67 -613.04,-1.03z"/>
    <path id="_19" class="fil19" d="M351.75 22.79c145.5,2.62 412.93,3.07 597.32,1 184.39,-2.07 215.93,-5.88 70.43,-8.5 -145.5,-2.63 -412.93,-3.07 -597.32,-1 -184.4,2.07 -215.93,5.87 -70.43,8.5zm-26.36 0.29c-156.98,-2.83 -122.96,-6.93 75.99,-9.17 198.95,-2.23 487.49,-1.75 644.48,1.08 156.98,2.83 122.96,6.94 -75.99,9.17 -198.95,2.24 -487.49,1.75 -644.48,-1.08z"/>
    <path id="_20" class="fil20" d="M334.18 22.98c153.15,2.76 434.66,3.24 628.76,1.06 194.1,-2.18 227.29,-6.19 74.13,-8.95 -153.16,-2.76 -434.66,-3.23 -628.76,-1.05 -194.1,2.18 -227.29,6.18 -74.13,8.94zm-26.36 0.3c-164.64,-2.97 -128.96,-7.28 79.69,-9.62 208.66,-2.34 511.28,-1.83 675.92,1.14 164.64,2.96 128.96,7.27 -79.69,9.61 -208.66,2.35 -511.28,1.84 -675.92,-1.13z"/>
    <path id="_21" class="fil21" d="M316.61 23.18c160.81,2.9 456.39,3.4 660.19,1.11 203.81,-2.29 238.66,-6.5 77.84,-9.4 -160.81,-2.9 -456.39,-3.39 -660.19,-1.1 -203.81,2.28 -238.66,6.49 -77.84,9.39zm-26.36 0.3c-172.3,-3.11 -134.96,-7.62 83.4,-10.07 218.36,-2.45 535.05,-1.92 707.35,1.19 172.3,3.11 134.96,7.61 -83.4,10.06 -218.36,2.45 -535.05,1.92 -707.35,-1.18z"/>
    <path id="_22" class="fil22" d="M299.03 23.38c168.48,3.04 478.13,3.55 691.64,1.16 213.51,-2.4 250.02,-6.8 81.54,-9.84 -168.47,-3.04 -478.12,-3.56 -691.63,-1.16 -213.51,2.39 -250.02,6.8 -81.55,9.84zm-26.35 0.29c-179.96,-3.24 -140.96,-7.95 87.1,-10.51 228.07,-2.56 558.83,-2 738.79,1.24 179.96,3.25 140.96,7.95 -87.1,10.51 -228.07,2.56 -558.84,2.01 -738.79,-1.24z"/>
    <path id="_23" class="fil23" d="M281.46 23.57c176.13,3.18 499.86,3.72 723.07,1.22 223.22,-2.51 261.39,-7.11 85.26,-10.29 -176.13,-3.18 -499.86,-3.72 -723.08,-1.21 -223.21,2.5 -261.38,7.11 -85.25,10.28zm-26.36 0.3c-187.61,-3.38 -146.95,-8.29 90.82,-10.96 237.77,-2.67 582.61,-2.09 770.23,1.29 187.61,3.39 146.95,8.29 -90.82,10.96 -237.77,2.67 -582.61,2.09 -770.23,-1.29z"/>
    <path id="_24" class="fil24" d="M263.89 23.77c183.79,3.32 521.59,3.88 754.51,1.27 232.92,-2.62 272.75,-7.42 88.96,-10.74 -183.79,-3.31 -521.59,-3.88 -754.51,-1.26 -232.92,2.61 -272.75,7.42 -88.96,10.73zm-26.36 0.3c-195.27,-3.52 -152.95,-8.63 94.52,-11.41 247.48,-2.78 606.39,-2.18 801.67,1.35 195.27,3.52 152.95,8.62 -94.52,11.4 -247.48,2.78 -606.4,2.18 -801.67,-1.34z"/>
    <path id="_25" class="fil25" d="M246.32 23.97c191.44,3.45 543.32,4.04 785.94,1.32 242.63,-2.73 284.12,-7.73 92.67,-11.18 -191.44,-3.46 -543.32,-4.05 -785.95,-1.32 -242.62,2.72 -284.11,7.73 -92.66,11.18zm-26.36 0.3c-202.93,-3.66 -158.95,-8.97 98.23,-11.86 257.18,-2.89 630.17,-2.26 833.1,1.4 202.93,3.66 158.95,8.97 -98.23,11.85 -257.18,2.89 -630.17,2.26 -833.1,-1.39z"/>
    <path id="_26" class="fil26" d="M228.75 24.17c199.1,3.59 565.05,4.2 817.38,1.37 252.33,-2.83 295.48,-8.04 96.37,-11.63 -199.1,-3.59 -565.05,-4.21 -817.38,-1.37 -252.33,2.83 -295.48,8.04 -96.37,11.63zm-26.36 0.29c-210.59,-3.79 -164.96,-9.3 101.93,-12.3 266.88,-2.99 653.95,-2.35 864.54,1.45 210.59,3.8 164.95,9.31 -101.93,12.3 -266.89,3 -653.95,2.35 -864.54,-1.45z"/>
    <path id="_27" class="fil27" d="M211.17 24.36c206.76,3.73 586.79,4.37 848.83,1.43 262.03,-2.94 306.84,-8.35 100.08,-12.08 -206.76,-3.73 -586.8,-4.37 -848.83,-1.42 -262.03,2.94 -306.84,8.35 -100.08,12.07zm-26.36 0.3c-218.24,-3.94 -170.95,-9.64 105.64,-12.75 276.59,-3.1 677.74,-2.43 895.98,1.5 218.25,3.94 170.95,9.65 -105.63,12.75 -276.59,3.11 -677.74,2.44 -895.99,-1.5z"/>
    <path id="_28" class="fil28" d="M193.6 24.56c214.42,3.87 608.52,4.53 880.26,1.48 271.74,-3.05 318.21,-8.66 103.79,-12.53 -214.42,-3.86 -608.53,-4.52 -880.26,-1.47 -271.74,3.05 -318.21,8.66 -103.79,12.52zm-26.36 0.3c-225.9,-4.08 -176.95,-9.98 109.35,-13.2 286.29,-3.21 701.51,-2.52 927.42,1.56 225.9,4.07 176.94,9.98 -109.35,13.19 -286.29,3.22 -701.51,2.52 -927.42,-1.55z"/>
    <path id="_29" class="fil29" d="M176.03 24.76c222.07,4 630.26,4.69 911.7,1.53 281.44,-3.16 329.57,-8.97 107.49,-12.97 -222.07,-4.01 -630.26,-4.69 -911.7,-1.53 -281.44,3.16 -329.57,8.96 -107.49,12.97zm-26.36 0.29c-233.56,-4.21 -182.95,-10.32 113.05,-13.64 296,-3.32 725.3,-2.6 958.86,1.61 233.56,4.21 182.95,10.32 -113.05,13.64 -296,3.33 -725.3,2.61 -958.86,-1.61z"/>
    <path id="_30" class="fil30" d="M158.46 24.96c229.73,4.14 651.99,4.85 943.13,1.58 291.15,-3.27 340.94,-9.28 111.2,-13.42 -229.73,-4.14 -651.99,-4.85 -943.13,-1.58 -291.15,3.26 -340.94,9.27 -111.2,13.42zm-26.36 0.29c-241.22,-4.35 -188.95,-10.66 116.76,-14.09 305.7,-3.43 749.07,-2.69 990.29,1.66 241.22,4.35 188.95,10.66 -116.76,14.09 -305.7,3.43 -749.07,2.69 -990.29,-1.66z"/>
    <path id="_31" class="fil31" d="M140.88 25.15c237.39,4.28 673.73,5.02 974.58,1.64 300.85,-3.38 352.3,-9.59 114.91,-13.87 -237.4,-4.28 -673.73,-5.01 -974.58,-1.63 -300.85,3.37 -352.3,9.58 -114.91,13.86zm-26.35 0.3c-248.88,-4.49 -194.95,-11 120.46,-14.54 315.41,-3.54 772.86,-2.77 1021.73,1.72 248.88,4.48 194.95,10.99 -120.46,14.53 -315.41,3.54 -772.86,2.78 -1021.73,-1.71z"/>
    <path id="_32" class="fil32" d="M123.31 25.35c245.05,4.42 695.46,5.17 1006.02,1.69 310.55,-3.49 363.66,-9.9 118.61,-14.32 -245.05,-4.41 -695.46,-5.17 -1006.02,-1.68 -310.55,3.48 -363.66,9.89 -118.61,14.31zm-26.36 0.3c-256.53,-4.63 -200.94,-11.34 124.18,-14.99 325.11,-3.65 796.63,-2.86 1053.17,1.77 256.53,4.62 200.94,11.33 -124.18,14.98 -325.11,3.65 -796.63,2.86 -1053.17,-1.76z"/>
    <path id="_33" class="fil33" d="M105.74 25.55c252.71,4.55 717.19,5.33 1037.45,1.74 320.26,-3.6 375.03,-10.21 122.32,-14.76 -252.71,-4.56 -717.19,-5.34 -1037.45,-1.74 -320.26,3.59 -375.03,10.2 -122.32,14.76zm-26.36 0.29c-264.19,-4.76 -206.94,-11.67 127.88,-15.43 334.82,-3.76 820.41,-2.94 1084.61,1.82 264.19,4.76 206.94,11.67 -127.88,15.43 -334.82,3.76 -820.42,2.95 -1084.61,-1.82z"/>
    <path id="_34" class="fil34" d="M88.17 25.74c260.36,4.7 738.92,5.5 1068.89,1.8 329.96,-3.71 386.39,-10.52 126.02,-15.21 -260.36,-4.69 -738.92,-5.5 -1068.89,-1.79 -329.96,3.7 -386.39,10.51 -126.02,15.2zm-26.36 0.3c-271.85,-4.9 -212.94,-12.01 131.58,-15.88 344.53,-3.87 844.2,-3.03 1116.05,1.87 271.85,4.91 212.94,12.01 -131.59,15.88 -344.52,3.87 -844.19,3.03 -1116.04,-1.87z"/>
    <path id="_35" class="fil35" d="M70.59 25.94c268.03,4.83 760.66,5.66 1100.33,1.85 339.67,-3.82 397.76,-10.82 129.73,-15.66 -268.02,-4.83 -760.65,-5.66 -1100.32,-1.84 -339.67,3.81 -397.76,10.82 -129.74,15.65zm-26.35 0.3c-279.51,-5.04 -218.94,-12.35 135.29,-16.33 354.23,-3.98 867.97,-3.11 1147.48,1.93 279.51,5.04 218.94,12.35 -135.29,16.32 -354.23,3.98 -867.98,3.12 -1147.48,-1.92z"/>
    <path id="_36" class="fil36" d="M53.02 26.14c275.68,4.97 782.39,5.82 1131.77,1.9 349.37,-3.92 409.12,-11.13 133.44,-16.11 -275.68,-4.97 -782.39,-5.82 -1131.77,-1.89 -349.38,3.92 -409.12,11.13 -133.44,16.1zm-26.36 0.29c-287.16,-5.17 -224.93,-12.68 139,-16.77 363.94,-4.08 891.76,-3.2 1178.93,1.98 287.16,5.18 224.93,12.69 -139,16.77 -363.94,4.09 -891.76,3.2 -1178.93,-1.98z"/>
    <path id="_37" class="fil37" d="M35.45 26.34c283.34,5.11 804.12,5.98 1163.2,1.95 359.08,-4.03 420.49,-11.44 137.15,-16.55 -283.34,-5.11 -804.12,-5.99 -1163.2,-1.95 -359.09,4.03 -420.49,11.44 -137.15,16.55zm-26.36 0.29c-294.82,-5.31 -230.93,-13.02 142.71,-17.22 373.64,-4.19 915.53,-3.28 1210.36,2.03 294.82,5.32 230.93,13.03 -142.71,17.22 -373.64,4.2 -915.53,3.29 -1210.36,-2.03z"/>
    <path id="_38" class="fil38" d="M17.88 26.53c290.99,5.25 825.85,6.15 1194.64,2.01 368.78,-4.14 431.85,-11.75 140.85,-17 -290.99,-5.25 -825.85,-6.14 -1194.64,-2 -368.79,4.14 -431.85,11.75 -140.85,16.99zm-26.36 0.3c-302.48,-5.45 -236.93,-13.37 146.41,-17.67 383.35,-4.3 939.32,-3.37 1241.8,2.08 302.48,5.46 236.93,13.37 -146.41,17.67 -383.35,4.31 -939.32,3.37 -1241.8,-2.08z"/>
    <path id="_39" class="fil39" d="M0.31 26.73c298.65,5.39 847.58,6.31 1226.07,2.06 378.5,-4.25 443.22,-12.06 144.56,-17.45 -298.65,-5.38 -847.58,-6.3 -1226.08,-2.05 -378.49,4.25 -443.21,12.06 -144.55,17.44zm-26.36 0.3c-310.14,-5.6 -242.93,-13.71 150.12,-18.12 393.05,-4.41 963.09,-3.46 1273.23,2.14 310.14,5.59 242.93,13.7 -150.12,18.11 -393.05,4.42 -963.09,3.46 -1273.23,-2.13z"/>
    <path id="_40" class="fil40" d="M-17.27 26.93c306.31,5.52 869.32,6.47 1257.52,2.11 388.2,-4.36 454.58,-12.37 148.27,-17.89 -306.32,-5.53 -869.32,-6.47 -1257.52,-2.11 -388.2,4.35 -454.58,12.36 -148.27,17.89zm-26.36 0.29c-317.79,-5.73 -248.92,-14.04 153.83,-18.56 402.75,-4.52 986.88,-3.54 1304.67,2.19 317.8,5.73 248.93,14.04 -153.82,18.56 -402.75,4.52 -986.88,3.54 -1304.68,-2.19z"/>
    <path id="_41" class="fil41" d="M-34.84 27.13c313.97,5.66 891.05,6.63 1288.95,2.16 397.91,-4.47 465.95,-12.68 151.98,-18.34 -313.97,-5.66 -891.06,-6.63 -1288.96,-2.16 -397.9,4.46 -465.94,12.67 -151.97,18.34zm-26.36 0.29c-325.45,-5.87 -254.92,-14.38 157.54,-19.01 412.45,-4.63 1010.65,-3.63 1336.11,2.24 325.45,5.87 254.92,14.38 -157.54,19.01 -412.45,4.63 -1010.65,3.63 -1336.11,-2.24z"/>
    <path id="_42" class="fil42" d="M-52.41 27.32c321.63,5.8 912.79,6.79 1320.39,2.22 407.61,-4.58 477.31,-12.99 155.68,-18.79 -321.63,-5.8 -912.79,-6.79 -1320.39,-2.21 -407.61,4.57 -477.31,12.98 -155.68,18.78zm-26.36 0.3c-333.11,-6.01 -260.92,-14.72 161.24,-19.46 422.16,-4.74 1034.43,-3.71 1367.55,2.29 333.11,6.01 260.92,14.72 -161.24,19.46 -422.16,4.74 -1034.44,3.72 -1367.55,-2.29z"/>
    <path id="_43" class="fil43" d="M-69.98 27.52c329.28,5.94 934.52,6.95 1351.83,2.27 417.31,-4.69 488.67,-13.3 159.38,-19.24 -329.28,-5.93 -934.52,-6.95 -1351.83,-2.26 -417.31,4.68 -488.67,13.29 -159.38,19.23zm-26.36 0.3c-340.77,-6.15 -266.92,-15.06 164.94,-19.91 431.87,-4.85 1058.22,-3.8 1398.99,2.35 340.77,6.14 266.92,15.05 -164.95,19.9 -431.86,4.85 -1058.21,3.8 -1398.98,-2.34z"/>
    <path id="_44" class="fil44" d="M-87.56 27.72c336.95,6.07 956.26,7.11 1383.27,2.32 427.02,-4.8 500.04,-13.61 163.1,-19.68 -336.95,-6.08 -956.26,-7.12 -1383.27,-2.32 -427.02,4.79 -500.04,13.6 -163.1,19.68zm-26.35 0.29c-348.43,-6.28 -272.93,-15.39 168.65,-20.35 441.57,-4.96 1082,-3.88 1430.42,2.4 348.43,6.28 272.92,15.4 -168.65,20.35 -441.57,4.96 -1082,3.89 -1430.42,-2.4z"/>
    <path id="_45" class="fil45" d="M-105.13 27.91c344.6,6.22 977.99,7.28 1414.71,2.38 436.72,-4.91 511.4,-13.92 166.8,-20.13 -344.6,-6.21 -977.99,-7.28 -1414.71,-2.37 -436.72,4.9 -511.4,13.91 -166.8,20.12zm-26.36 0.3c-356.08,-6.42 -278.92,-15.73 172.36,-20.8 451.28,-5.07 1105.78,-3.97 1461.87,2.45 356.08,6.42 278.92,15.74 -172.36,20.8 -451.28,5.07 -1105.78,3.97 -1461.87,-2.45z"/>
    <path id="_46" class="fil46" d="M-122.7 28.11c352.26,6.35 999.72,7.44 1446.14,2.43 446.43,-5.01 522.77,-14.23 170.51,-20.58 -352.26,-6.35 -999.72,-7.44 -1446.14,-2.42 -446.43,5.01 -522.77,14.22 -170.51,20.57zm-26.36 0.3c-363.74,-6.56 -284.92,-16.07 176.07,-21.25 460.98,-5.17 1129.55,-4.05 1493.3,2.51 363.74,6.55 284.92,16.07 -176.07,21.24 -460.98,5.18 -1129.56,4.06 -1493.3,-2.5z"/>
    <path id="_47" class="fil47" d="M-140.27 28.31c359.91,6.49 1021.45,7.6 1477.58,2.48 456.13,-5.12 534.13,-14.54 174.21,-21.03 -359.91,-6.49 -1021.45,-7.59 -1477.58,-2.47 -456.13,5.12 -534.13,14.53 -174.21,21.02zm-26.36 0.3c-371.4,-6.7 -290.92,-16.41 179.77,-21.7 470.69,-5.28 1153.34,-4.14 1524.74,2.56 371.4,6.7 290.92,16.41 -179.77,21.69 -470.69,5.29 -1153.34,4.14 -1524.74,-2.55z"/>
    <path id="_48" class="fil48" d="M-157.85 28.51c367.58,6.62 1043.19,7.76 1509.03,2.53 465.83,-5.23 545.49,-14.84 177.91,-21.47 -367.57,-6.63 -1043.18,-7.76 -1509.02,-2.53 -465.83,5.23 -545.49,14.84 -177.92,21.47zm-26.35 0.29c-379.06,-6.83 -296.92,-16.75 183.48,-22.14 480.39,-5.39 1177.11,-4.22 1556.17,2.61 379.06,6.84 296.92,16.75 -183.48,22.14 -480.39,5.4 -1177.11,4.23 -1556.17,-2.61z"/>
    <path id="_49" class="fil49" d="M-175.42 28.7c375.23,6.77 1064.92,7.93 1540.46,2.59 475.54,-5.34 556.86,-15.15 181.63,-21.92 -375.23,-6.77 -1064.92,-7.92 -1540.46,-2.58 -475.54,5.34 -556.86,15.15 -181.63,21.91zm-26.36 0.3c-386.71,-6.97 -302.91,-17.09 187.19,-22.59 490.1,-5.5 1200.9,-4.31 1587.61,2.66 386.72,6.98 302.92,17.09 -187.18,22.59 -490.1,5.51 -1200.9,4.31 -1587.62,-2.66z"/>
    <path id="_50" class="fil50" d="M-192.99 28.9c382.89,6.91 1086.65,8.09 1571.9,2.64 485.24,-5.45 568.22,-15.46 185.33,-22.37 -382.89,-6.9 -1086.65,-8.08 -1571.9,-2.63 -485.24,5.44 -568.22,15.46 -185.33,22.36zm-26.36 0.3c-394.37,-7.11 -308.91,-17.43 190.89,-23.04 499.81,-5.61 1224.68,-4.39 1619.06,2.72 394.37,7.11 308.91,17.42 -190.9,23.03 -499.8,5.61 -1224.67,4.4 -1619.05,-2.71z"/>
    <path id="_51" class="fil51" d="M-210.56 29.1c390.54,7.04 1108.38,8.24 1603.33,2.69 494.95,-5.56 579.59,-15.77 189.04,-22.81 -390.55,-7.05 -1108.38,-8.25 -1603.33,-2.69 -494.95,5.55 -579.59,15.77 -189.04,22.81zm-26.36 0.29c-402.03,-7.25 -314.91,-17.76 194.6,-23.48 509.51,-5.72 1248.46,-4.48 1650.49,2.77 402.03,7.25 314.91,17.76 -194.6,23.48 -509.51,5.72 -1248.46,4.48 -1650.49,-2.77z"/>
    <path id="_52" class="fil52" d="M-228.13 29.3c398.2,7.18 1130.11,8.4 1634.77,2.74 504.65,-5.67 590.95,-16.08 192.74,-23.26 -398.2,-7.18 -1130.11,-8.41 -1634.77,-2.74 -504.65,5.66 -590.95,16.08 -192.74,23.26zm-26.36 0.29c-409.69,-7.39 -320.91,-18.1 198.3,-23.93 519.22,-5.83 1272.24,-4.57 1681.93,2.82 409.69,7.39 320.91,18.1 -198.3,23.93 -519.22,5.83 -1272.24,4.57 -1681.93,-2.82z"/>
    <path id="_53" class="fil53" d="M-245.71 29.49c405.87,7.32 1151.85,8.57 1666.21,2.8 514.36,-5.78 602.32,-16.39 196.46,-23.71 -405.87,-7.32 -1151.85,-8.57 -1666.21,-2.79 -514.36,5.77 -602.32,16.38 -196.46,23.7zm-26.36 0.3c-417.34,-7.53 -326.9,-18.44 202.02,-24.38 528.92,-5.94 1296.02,-4.65 1713.36,2.88 417.35,7.52 326.91,18.44 -202.01,24.37 -528.92,5.94 -1296.02,4.65 -1713.37,-2.87z"/>
    <path id="_54" class="fil54" d="M-263.28 29.69c413.52,7.46 1173.58,8.73 1697.65,2.85 524.06,-5.89 613.68,-16.7 200.16,-24.16 -413.52,-7.45 -1173.58,-8.73 -1697.65,-2.84 -524.06,5.88 -613.68,16.69 -200.16,24.15zm-26.36 0.3c-425,-7.67 -332.9,-18.78 205.72,-24.83 538.62,-6.05 1319.8,-4.74 1744.81,2.93 425,7.66 332.9,18.78 -205.72,24.82 -538.62,6.05 -1319.8,4.74 -1744.81,-2.92z"/>
    <path id="_55" class="fil55" d="M-280.85 29.89c421.18,7.59 1195.31,8.89 1729.08,2.9 533.77,-5.99 625.05,-17.01 203.87,-24.6 -421.18,-7.6 -1195.32,-8.9 -1729.09,-2.9 -533.77,5.99 -625.04,17 -203.86,24.6zm-26.36 0.29c-432.66,-7.8 -338.9,-19.11 209.43,-25.27 548.32,-6.16 1343.57,-4.82 1776.24,2.98 432.66,7.8 338.9,19.12 -209.43,25.27 -548.32,6.16 -1343.58,4.83 -1776.24,-2.98z"/>
    <path id="_56" class="fil56" d="M-298.42 30.09c428.83,7.73 1217.05,9.05 1760.52,2.95 543.47,-6.1 636.41,-17.32 207.57,-25.05 -428.83,-7.73 -1217.05,-9.06 -1760.52,-2.95 -543.48,6.1 -636.41,17.31 -207.57,25.05zm-26.36 0.29c-440.32,-7.94 -344.9,-19.45 213.13,-25.72 558.03,-6.26 1367.36,-4.91 1807.68,3.03 440.32,7.94 344.9,19.46 -213.13,25.72 -558.03,6.27 -1367.36,4.91 -1807.68,-3.03z"/>
    <path id="_57" class="fil57" d="M-316 30.28c436.5,7.87 1238.79,9.22 1791.97,3.01 553.17,-6.21 647.77,-17.63 211.27,-25.5 -436.49,-7.87 -1238.78,-9.21 -1791.96,-3 -553.18,6.21 -647.77,17.62 -211.28,25.49zm-26.35 0.3c-447.98,-8.08 -350.9,-19.8 216.83,-26.17 567.74,-6.37 1391.14,-4.99 1839.12,3.09 447.98,8.07 350.9,19.79 -216.84,26.16 -567.73,6.38 -1391.13,5 -1839.11,-3.08z"/>
    <path id="_58" class="fil58" d="M-333.57 30.48c444.15,8.01 1260.52,9.38 1823.4,3.06 562.89,-6.32 659.14,-17.94 214.99,-25.95 -444.15,-8 -1260.52,-9.37 -1823.4,-3.05 -562.89,6.31 -659.14,17.93 -214.99,25.94zm-26.36 0.3c-455.63,-8.22 -356.89,-20.14 220.55,-26.62 577.44,-6.48 1414.92,-5.08 1870.56,3.14 455.63,8.21 356.89,20.13 -220.55,26.61 -577.44,6.49 -1414.92,5.08 -1870.56,-3.13z"/>
    <path id="_59" class="fil59" d="M-351.14 30.68c451.81,8.14 1282.25,9.54 1854.84,3.11 572.59,-6.43 670.5,-18.25 218.69,-26.39 -451.81,-8.15 -1282.25,-9.54 -1854.84,-3.11 -572.59,6.42 -670.5,18.24 -218.69,26.39zm-26.36 0.29c-463.29,-8.35 -362.89,-20.47 224.25,-27.06 587.15,-6.59 1438.7,-5.16 1902,3.19 463.29,8.35 362.89,20.47 -224.26,27.06 -587.14,6.59 -1438.69,5.17 -1901.99,-3.19z"/>
    <path id="_60" class="fil59" d="M-368.71 30.87c459.46,8.29 1303.98,9.71 1886.27,3.17 582.3,-6.54 681.87,-18.56 222.4,-26.84 -459.47,-8.29 -1303.98,-9.7 -1886.27,-3.16 -582.3,6.53 -681.87,18.55 -222.4,26.83zm-26.36 0.3c-470.95,-8.49 -368.89,-20.81 227.96,-27.51 596.85,-6.7 1462.48,-5.25 1933.43,3.24 470.95,8.5 368.89,20.81 -227.96,27.51 -596.85,6.7 -1462.48,5.25 -1933.43,-3.24z"/>
    <path id="_61" class="fil60" d="M-386.28 31.07c467.12,8.42 1325.71,9.87 1917.71,3.22 592,-6.65 693.23,-18.86 226.1,-27.29 -467.12,-8.42 -1325.71,-9.86 -1917.71,-3.21 -592,6.64 -693.23,18.86 -226.1,27.28zm-26.36 0.3c-478.61,-8.63 -374.89,-21.15 231.66,-27.96 606.56,-6.81 1486.26,-5.33 1964.87,3.3 478.61,8.63 374.89,21.14 -231.66,27.95 -606.56,6.81 -1486.26,5.34 -1964.87,-3.29z"/>
    <path id="_62" class="fil61" d="M-403.86 31.27c474.79,8.56 1347.45,10.02 1949.15,3.27 601.71,-6.76 704.6,-19.17 229.82,-27.73 -474.79,-8.57 -1347.45,-10.03 -1949.15,-3.27 -601.71,6.75 -704.6,19.17 -229.82,27.73zm-26.36 0.29c-486.27,-8.76 -380.89,-21.48 235.38,-28.4 616.26,-6.92 1510.04,-5.42 1996.3,3.35 486.27,8.77 380.89,21.48 -235.37,28.4 -616.26,6.92 -1510.04,5.42 -1996.31,-3.35z"/>
    <path id="_63" class="fil62" d="M-421.43 31.47c482.44,8.7 1369.18,10.18 1980.59,3.32 611.41,-6.87 715.96,-19.48 233.52,-28.18 -482.44,-8.7 -1369.18,-10.19 -1980.59,-3.32 -611.41,6.86 -715.96,19.48 -233.52,28.18zm-26.36 0.29c-493.93,-8.9 -386.89,-21.82 239.08,-28.85 625.97,-7.03 1533.82,-5.5 2027.75,3.4 493.92,8.91 386.88,21.83 -239.08,28.85 -625.97,7.03 -1533.82,5.51 -2027.75,-3.4z"/>
    <path id="_64" class="fil63" d="M-439 31.66c490.1,8.84 1390.91,10.35 2012.02,3.38 621.12,-6.98 727.33,-19.79 237.23,-28.63 -490.1,-8.84 -1390.91,-10.35 -2012.03,-3.37 -621.11,6.97 -727.32,19.79 -237.22,28.62zm-26.36 0.3c-501.59,-9.05 -392.89,-22.16 242.79,-29.3 635.67,-7.14 1557.6,-5.59 2059.18,3.46 501.58,9.04 392.88,22.16 -242.79,29.29 -635.67,7.14 -1557.6,5.59 -2059.18,-3.45z"/>
    <path id="_65" class="fil64" d="M-456.57 31.86c497.75,8.98 1412.64,10.51 2043.46,3.43 630.82,-7.08 738.69,-20.1 240.93,-29.08 -497.75,-8.97 -1412.64,-10.51 -2043.46,-3.42 -630.82,7.08 -738.69,20.1 -240.93,29.07zm-26.36 0.3c-509.25,-9.19 -398.89,-22.5 246.49,-29.75 645.38,-7.24 1581.38,-5.67 2090.62,3.51 509.24,9.18 398.89,22.5 -246.49,29.74 -645.38,7.25 -1581.38,5.68 -2090.62,-3.5z"/>
    <path id="_66" class="fil65" d="M-474.15 32.06c505.42,9.11 1434.38,10.67 2074.91,3.48 640.52,-7.19 750.05,-20.41 244.64,-29.52 -505.42,-9.12 -1434.38,-10.68 -2074.91,-3.48 -640.52,7.19 -750.05,20.4 -244.64,29.52zm-26.35 0.29c-516.9,-9.32 -404.89,-22.83 250.19,-30.19 655.09,-7.35 1605.16,-5.76 2122.06,3.56 516.9,9.32 404.89,22.84 -250.19,30.19 -655.09,7.36 -1605.17,5.76 -2122.06,-3.56z"/>
    <path id="_67" class="fil65" d="M-491.72 32.26c513.07,9.25 1456.11,10.83 2106.34,3.53 650.23,-7.3 761.42,-20.72 248.35,-29.97 -513.07,-9.25 -1456.11,-10.83 -2106.34,-3.53 -650.23,7.3 -761.42,20.71 -248.35,29.97zm-26.36 0.29c-524.55,-9.46 -410.88,-23.18 253.91,-30.64 664.78,-7.46 1628.94,-5.85 2153.5,3.61 524.55,9.46 410.88,23.18 -253.91,30.64 -664.79,7.47 -1628.94,5.85 -2153.5,-3.61z"/>
    <path id="_68" class="fil66" d="M-509.29 32.45c520.73,9.39 1477.84,11 2137.78,3.59 659.93,-7.41 772.78,-21.03 252.05,-30.42 -520.73,-9.39 -1477.85,-10.99 -2137.78,-3.58 -659.93,7.4 -772.78,21.02 -252.05,30.41zm-26.36 0.3c-532.21,-9.6 -416.88,-23.52 257.61,-31.09 674.49,-7.57 1652.72,-5.93 2184.94,3.67 532.21,9.59 416.88,23.51 -257.61,31.08 -674.5,7.58 -1652.72,5.93 -2184.94,-3.66z"/>
    <path id="_69" class="fil66" d="M-526.86 32.65c528.38,9.53 1499.57,11.16 2169.21,3.64 669.64,-7.52 784.15,-21.34 255.76,-30.87 -528.38,-9.52 -1499.58,-11.15 -2169.21,-3.64 -669.64,7.52 -784.15,21.34 -255.76,30.87zm-26.36 0.3c-539.87,-9.74 -422.88,-23.86 261.32,-31.54 684.19,-7.68 1676.5,-6.02 2216.37,3.72 539.87,9.73 422.88,23.85 -261.32,31.53 -684.19,7.69 -1676.5,6.02 -2216.37,-3.71z"/>
    <path id="_70" class="fil67" d="M-544.44 32.85c536.05,9.66 1521.32,11.32 2200.66,3.69 679.34,-7.63 795.51,-21.65 259.46,-31.31 -536.04,-9.67 -1521.31,-11.32 -2200.65,-3.69 -679.34,7.62 -795.51,21.64 -259.47,31.31zm-26.35 0.29c-547.54,-9.87 -428.88,-24.19 265.02,-31.98 693.9,-7.79 1700.28,-6.1 2247.81,3.77 547.53,9.87 428.88,24.19 -265.02,31.98 -693.9,7.79 -1700.28,6.11 -2247.81,-3.77z"/>
    <path id="_71" class="fil67" d="M-562.01 33.04c543.7,9.81 1543.05,11.48 2232.09,3.75 689.05,-7.74 806.88,-21.96 263.18,-31.76 -543.71,-9.8 -1543.05,-11.48 -2232.1,-3.74 -689.04,7.73 -806.87,21.95 -263.17,31.75zm-26.36 0.3c-555.19,-10.01 -434.87,-24.53 268.74,-32.43 703.6,-7.9 1724.06,-6.19 2279.25,3.82 555.18,10.02 434.87,24.53 -268.74,32.43 -703.6,7.9 -1724.06,6.19 -2279.25,-3.82z"/>
    <path id="_72" class="fil68" d="M-579.58 33.24c551.36,9.94 1564.78,11.64 2263.53,3.8 698.75,-7.85 818.24,-22.27 266.88,-32.21 -551.36,-9.94 -1564.78,-11.64 -2263.53,-3.8 -698.76,7.85 -818.24,22.27 -266.88,32.21zm-26.36 0.3c-562.85,-10.15 -440.87,-24.87 272.44,-32.88 713.31,-8.01 1747.84,-6.27 2310.69,3.88 562.84,10.15 440.87,24.87 -272.44,32.87 -713.31,8.01 -1747.84,6.28 -2310.69,-3.87z"/>
    <path id="_73" class="fil69" d="M-597.15 33.44c559.02,10.08 1586.51,11.8 2294.97,3.85 708.45,-7.95 829.6,-22.57 270.58,-32.66 -559.02,-10.07 -1586.51,-11.8 -2294.97,-3.84 -708.46,7.95 -829.6,22.57 -270.58,32.65zm-26.36 0.29c-570.51,-10.28 -446.87,-25.2 276.14,-33.32 723.02,-8.12 1771.63,-6.36 2342.13,3.93 570.5,10.29 446.87,25.21 -276.15,33.32 -723.01,8.12 -1771.62,6.36 -2342.12,-3.93z"/>
    <path id="_74" class="fil70" d="M-614.72 33.64c566.67,10.21 1608.24,11.96 2326.4,3.9 718.16,-8.06 840.97,-22.88 274.29,-33.1 -566.67,-10.22 -1608.24,-11.97 -2326.4,-3.9 -718.17,8.06 -840.97,22.88 -274.29,33.1zm-26.36 0.29c-578.17,-10.42 -452.87,-25.54 279.85,-33.77 732.72,-8.23 1795.4,-6.44 2373.56,3.98 578.16,10.43 452.87,25.55 -279.85,33.77 -732.72,8.23 -1795.4,6.45 -2373.56,-3.98z"/>
    <path id="_75" class="fil70" d="M-632.3 33.83c574.34,10.36 1629.98,12.13 2357.85,3.96 727.87,-8.17 852.33,-23.19 278,-33.55 -574.34,-10.36 -1629.98,-12.13 -2357.85,-3.96 -727.87,8.18 -852.33,23.2 -278,33.55zm-26.36 0.3c-585.82,-10.56 -458.86,-25.89 283.56,-34.22 742.43,-8.34 1819.18,-6.53 2405,4.03 585.82,10.57 458.87,25.89 -283.55,34.22 -742.43,8.34 -1819.19,6.53 -2405.01,-4.03z"/>
    <path id="_76" class="fil71" d="M-649.87 34.03c581.99,10.49 1651.71,12.29 2389.28,4.01 737.58,-8.28 863.7,-23.5 281.71,-34 -581.99,-10.49 -1651.71,-12.28 -2389.28,-4 -737.58,8.28 -863.7,23.5 -281.71,33.99zm-26.36 0.3c-593.48,-10.7 -464.86,-26.23 287.27,-34.67 752.13,-8.44 1842.96,-6.61 2436.44,4.09 593.47,10.7 464.86,26.22 -287.27,34.66 -752.13,8.45 -1842.96,6.62 -2436.44,-4.08z"/>
    <path id="_77" class="fil71" d="M-667.44 34.23c589.65,10.63 1673.44,12.45 2420.72,4.06 747.28,-8.39 875.06,-23.81 285.41,-34.44 -589.65,-10.64 -1673.44,-12.45 -2420.72,-4.06 -747.28,8.38 -875.06,23.81 -285.41,34.44zm-26.36 0.29c-601.14,-10.84 -470.86,-26.56 290.97,-35.11 761.84,-8.55 1866.74,-6.7 2467.88,4.14 601.13,10.84 470.86,26.56 -290.97,35.11 -761.84,8.56 -1866.74,6.7 -2467.88,-4.14z"/>
    <path id="_78" class="fil71" d="M-685.01 34.42c597.3,10.78 1695.17,12.62 2452.15,4.12 756.99,-8.5 886.43,-24.12 289.12,-34.89 -597.3,-10.77 -1695.17,-12.61 -2452.16,-4.12 -756.98,8.5 -886.42,24.13 -289.11,34.89zm-26.36 0.3c-608.8,-10.98 -476.86,-26.9 294.68,-35.56 771.54,-8.66 1890.52,-6.78 2499.31,4.19 608.8,10.98 476.86,26.9 -294.68,35.56 -771.54,8.67 -1890.52,6.79 -2499.31,-4.19z"/>
    <path id="_79" class="fil71" d="M-702.59 34.62c604.97,10.91 1716.91,12.78 2483.6,4.17 766.69,-8.61 897.79,-24.43 292.83,-35.34 -604.97,-10.91 -1716.91,-12.77 -2483.6,-4.16 -766.69,8.6 -897.79,24.42 -292.83,35.33zm-26.35 0.3c-616.46,-11.12 -482.86,-27.24 298.38,-36.01 781.25,-8.77 1914.3,-6.87 2530.75,4.25 616.45,11.11 482.86,27.23 -298.38,36 -781.25,8.78 -1914.3,6.87 -2530.75,-4.24z"/>
    <path id="_80" class="fil72" d="M-720.16 34.82c612.62,11.05 1738.64,12.94 2515.03,4.22 776.4,-8.72 909.16,-24.74 296.54,-35.79 -612.63,-11.04 -1738.64,-12.93 -2515.04,-4.21 -776.39,8.71 -909.15,24.73 -296.53,35.78zm-26.36 0.3c-624.11,-11.26 -488.85,-27.58 302.1,-36.46 790.94,-8.88 1938.08,-6.96 2562.19,4.3 624.1,11.25 488.85,27.57 -302.1,36.45 -790.95,8.88 -1938.08,6.96 -2562.19,-4.29z"/>
    <path id="_81" class="fil73" d="M-737.73 35.02c620.28,11.18 1760.37,13.09 2546.47,4.27 786.1,-8.83 920.52,-25.05 300.24,-36.23 -620.28,-11.19 -1760.37,-13.1 -2546.47,-4.28 -786.1,8.83 -920.52,25.05 -300.24,36.24zm-26.36 0.29c-631.77,-11.39 -494.85,-27.91 305.8,-36.9 800.65,-8.99 1961.86,-7.04 2593.63,4.35 631.76,11.39 494.85,27.91 -305.8,36.9 -800.66,8.99 -1961.86,7.04 -2593.63,-4.35z"/>
    <path id="_82" class="fil73" d="M-755.3 35.21c627.94,11.33 1782.1,13.26 2577.91,4.33 795.8,-8.94 931.88,-25.36 303.94,-36.68 -627.94,-11.32 -1782.11,-13.26 -2577.91,-4.32 -795.8,8.93 -931.88,25.35 -303.94,36.67zm-26.36 0.3c-639.43,-11.53 -500.86,-28.25 309.5,-37.35 810.36,-9.1 1985.65,-7.13 2625.07,4.4 639.42,11.53 500.85,28.26 -309.51,37.35 -810.36,9.1 -1985.64,7.13 -2625.06,-4.4z"/>
    <path id="_83" class="fil73" d="M-772.88 35.41c635.6,11.46 1803.84,13.42 2609.35,4.38 805.51,-9.04 943.25,-25.67 307.65,-37.13 -635.59,-11.46 -1803.84,-13.42 -2609.34,-4.37 -805.51,9.04 -943.25,25.66 -307.66,37.12zm-26.35 0.3c-647.09,-11.67 -506.86,-28.59 313.21,-37.8 820.06,-9.21 2009.42,-7.21 2656.5,4.46 647.08,11.66 506.85,28.59 -313.21,37.79 -820.06,9.21 -2009.42,7.22 -2656.5,-4.45z"/>
    <path id="_84" class="fil73" d="M-790.45 35.61c643.26,11.6 1825.58,13.58 2640.79,4.43 815.21,-9.15 954.61,-25.98 311.36,-37.58 -643.26,-11.59 -1825.58,-13.58 -2640.79,-4.43 -815.21,9.16 -954.61,25.98 -311.36,37.58zm-26.36 0.3c-654.74,-11.81 -512.85,-28.93 316.92,-38.25 829.77,-9.32 2033.21,-7.3 2687.94,4.51 654.74,11.81 512.86,28.93 -316.91,38.24 -829.77,9.32 -2033.21,7.3 -2687.95,-4.5z"/>
    <path id="_85" class="fil74" d="M-808.02 35.81c650.91,11.73 1847.31,13.74 2672.22,4.48 824.92,-9.26 965.98,-26.28 315.07,-38.02 -650.91,-11.74 -1847.31,-13.75 -2672.22,-4.48 -824.92,9.26 -965.98,26.28 -315.07,38.02zm-26.36 0.29c-662.4,-11.94 -518.85,-29.27 320.63,-38.69 839.47,-9.42 2056.98,-7.38 2719.38,4.56 662.39,11.95 518.85,29.27 -320.63,38.69 -839.47,9.43 -2056.98,7.39 -2719.38,-4.56z"/>
    <path id="_86" class="fil74" d="M-825.59 36c658.57,11.88 1869.04,13.91 2703.66,4.54 834.62,-9.37 977.34,-26.59 318.77,-38.47 -658.57,-11.87 -1869.04,-13.91 -2703.66,-4.53 -834.62,9.37 -977.34,26.59 -318.77,38.46zm-26.36 0.3c-670.06,-12.08 -524.85,-29.61 324.33,-39.14 849.18,-9.53 2080.76,-7.47 2750.82,4.61 670.06,12.09 524.85,29.61 -324.33,39.14 -849.18,9.54 -2080.77,7.47 -2750.82,-4.61z"/>
    <path id="_87" class="fil74" d="M-843.17 36.2c666.23,12.01 1890.78,14.07 2735.11,4.59 844.32,-9.48 988.7,-26.9 322.47,-38.92 -666.22,-12.01 -1890.77,-14.06 -2735.1,-4.59 -844.32,9.48 -988.7,26.91 -322.48,38.92zm-26.35 0.3c-677.72,-12.22 -530.85,-29.95 328.04,-39.59 858.88,-9.64 2104.54,-7.55 2782.25,4.67 677.72,12.22 530.85,29.94 -328.04,39.58 -858.88,9.65 -2104.54,7.56 -2782.25,-4.66z"/>
    <path id="_88" class="fil74" d="M-860.74 36.4c673.89,12.15 1912.51,14.23 2766.54,4.64 854.03,-9.59 1000.07,-27.21 326.19,-39.36 -673.89,-12.16 -1912.51,-14.23 -2766.54,-4.64 -854.03,9.58 -1000.07,27.21 -326.19,39.36zm-26.36 0.29c-685.37,-12.35 -536.84,-30.28 331.75,-40.03 868.59,-9.75 2128.32,-7.64 2813.69,4.72 685.38,12.36 536.85,30.28 -331.74,40.03 -868.59,9.76 -2128.32,7.64 -2813.7,-4.72z"/>
    <path id="_89" class="fil74" d="M-878.31 36.6c681.54,12.29 1934.24,14.39 2797.98,4.69 863.73,-9.7 1011.43,-27.52 329.89,-39.81 -681.54,-12.29 -1934.24,-14.39 -2797.98,-4.7 -863.73,9.7 -1011.43,27.53 -329.89,39.82zm-26.36 0.29c-693.03,-12.5 -542.84,-30.62 335.45,-40.48 878.3,-9.86 2152.11,-7.72 2845.14,4.77 693.03,12.5 542.84,30.62 -335.46,40.48 -878.29,9.86 -2152.1,7.73 -2845.13,-4.77z"/>
    <path id="_90" class="fil74" d="M-895.88 36.79c689.2,12.43 1955.97,14.56 2829.41,4.75 873.44,-9.81 1022.8,-27.83 333.6,-40.26 -689.2,-12.43 -1955.97,-14.55 -2829.41,-4.75 -873.44,9.81 -1022.8,27.83 -333.6,40.26zm-26.36 0.3c-700.69,-12.64 -548.84,-30.96 339.16,-40.93 888,-9.97 2175.88,-7.81 2876.57,4.83 700.69,12.63 548.84,30.95 -339.16,40.92 -888,9.97 -2175.88,7.81 -2876.57,-4.82z"/>
    <path id="_91" class="fil74" d="M-913.45 36.99c696.85,12.57 1977.7,14.71 2860.85,4.8 883.14,-9.92 1034.16,-28.14 337.3,-40.71 -696.86,-12.56 -1977.7,-14.71 -2860.85,-4.79 -883.14,9.91 -1034.16,28.13 -337.3,40.7zm-17.58 0.2c-704.51,-12.71 -551.84,-31.13 341.02,-41.16 892.85,-10.02 2187.77,-7.85 2892.28,4.86 704.52,12.7 551.84,31.12 -341.01,41.15 -892.85,10.02 -2187.77,7.85 -2892.29,-4.85z"/>
   </g>
  </g>
  <g>
   <g style="clip-path:url(#id1)">
    <path class="fil2" d="M659.27 88.84c-11.49,-0.47 -9,-1.16 5.56,-1.54 14.55,-0.38 35.67,-0.29 47.15,0.18 11.49,0.48 9,1.17 -5.56,1.55 -14.56,0.37 -35.67,0.29 -47.15,-0.19z"/>
    <path id="_1_0" class="fil2" d="M668.05 88.62c7.66,0.31 21.73,0.37 31.44,0.12 9.7,-0.25 11.36,-0.71 3.71,-1.03 -7.66,-0.32 -21.74,-0.37 -31.44,-0.12 -9.71,0.25 -11.37,0.71 -3.71,1.03zm-26.36 0.68c-19.14,-0.8 -14.99,-1.95 9.27,-2.57 24.26,-0.63 59.45,-0.49 78.6,0.3 19.14,0.79 14.99,1.94 -9.27,2.57 -24.26,0.63 -59.45,0.49 -78.6,-0.3z"/>
    <path id="_2_1" class="fil2" d="M650.48 89.07c15.32,0.64 43.47,0.74 62.88,0.24 19.41,-0.5 22.72,-1.42 7.41,-2.05 -15.32,-0.64 -43.47,-0.75 -62.88,-0.25 -19.41,0.51 -22.73,1.43 -7.41,2.06zm-26.36 0.68c-26.8,-1.11 -20.99,-2.72 12.97,-3.6 33.97,-0.88 83.23,-0.69 110.04,0.43 26.8,1.11 20.99,2.72 -12.98,3.6 -33.96,0.87 -83.23,0.68 -110.03,-0.43z"/>
    <path id="_3_2" class="fil3" d="M632.91 89.53c22.97,0.95 65.2,1.11 94.31,0.36 29.12,-0.75 34.09,-2.13 11.12,-3.09 -22.97,-0.95 -65.2,-1.11 -94.31,-0.36 -29.12,0.75 -34.1,2.13 -11.12,3.09zm-26.36 0.68c-34.46,-1.43 -26.99,-3.51 16.68,-4.63 43.67,-1.13 107.01,-0.89 141.47,0.54 34.46,1.43 26.99,3.5 -16.68,4.63 -43.67,1.13 -107.01,0.88 -141.47,-0.54z"/>
    <path id="_4_3" class="fil4" d="M615.34 89.98c30.63,1.27 86.93,1.49 125.75,0.48 38.82,-1 45.46,-2.84 14.82,-4.11 -30.63,-1.27 -86.93,-1.49 -125.75,-0.49 -38.82,1.01 -45.46,2.85 -14.82,4.12zm-26.36 0.68c-42.12,-1.75 -32.99,-4.28 20.38,-5.66 53.38,-1.38 130.79,-1.08 172.91,0.67 42.12,1.75 32.99,4.28 -20.39,5.66 -53.37,1.37 -130.79,1.08 -172.9,-0.67z"/>
    <path id="_5_4" class="fil5" d="M597.76 90.43c38.29,1.59 108.67,1.86 157.19,0.61 48.53,-1.25 56.83,-3.56 18.54,-5.15 -38.29,-1.58 -108.67,-1.85 -157.19,-0.6 -48.53,1.25 -56.83,3.55 -18.54,5.14zm-26.36 0.68c-49.77,-2.06 -38.98,-5.05 24.1,-6.68 63.08,-1.63 154.57,-1.28 204.34,0.78 49.78,2.07 38.99,5.06 -24.09,6.69 -63.08,1.63 -154.57,1.28 -204.35,-0.79z"/>
    <path id="_6_5" class="fil6" d="M580.19 90.89c45.95,1.9 130.4,2.23 188.63,0.72 58.23,-1.5 68.19,-4.26 22.24,-6.17 -45.95,-1.91 -130.4,-2.23 -188.63,-0.73 -58.23,1.51 -68.19,4.27 -22.24,6.18zm-26.36 0.68c-57.43,-2.38 -44.99,-5.84 27.8,-7.72 72.79,-1.88 178.35,-1.47 235.79,0.91 57.43,2.38 44.98,5.84 -27.8,7.72 -72.79,1.88 -178.35,1.47 -235.79,-0.91z"/>
    <path id="_7_6" class="fil7" d="M562.62 91.34c53.6,2.22 152.13,2.6 220.06,0.85 67.94,-1.76 79.55,-4.98 25.95,-7.2 -53.6,-2.23 -152.13,-2.61 -220.06,-0.85 -67.94,1.75 -79.56,4.98 -25.95,7.2zm-26.36 0.68c-65.09,-2.7 -50.99,-6.61 31.51,-8.74 82.49,-2.13 202.13,-1.67 267.22,1.03 65.09,2.7 50.98,6.61 -31.51,8.74 -82.49,2.13 -202.13,1.67 -267.22,-1.03z"/>
    <path id="_8_7" class="fil8" d="M545.05 91.79c61.26,2.54 173.86,2.98 251.5,0.97 77.64,-2 90.91,-5.69 29.65,-8.23 -61.26,-2.54 -173.86,-2.97 -251.5,-0.97 -77.64,2.01 -90.92,5.69 -29.65,8.23zm-26.36 0.68c-72.75,-3.01 -56.99,-7.39 35.21,-9.77 92.2,-2.38 225.91,-1.86 298.66,1.15 72.75,3.02 56.98,7.4 -35.21,9.78 -92.2,2.38 -225.91,1.86 -298.66,-1.16z"/>
    <path id="_9_8" class="fil9" d="M527.47 92.25c68.92,2.86 195.6,3.34 282.95,1.09 87.34,-2.26 102.27,-6.4 33.36,-9.26 -68.92,-2.86 -195.6,-3.35 -282.95,-1.09 -87.34,2.25 -102.28,6.4 -33.36,9.26zm-26.35 0.68c-80.41,-3.34 -62.99,-8.17 38.92,-10.8 101.9,-2.64 249.69,-2.07 330.09,1.27 80.41,3.33 62.99,8.17 -38.92,10.8 -101.9,2.63 -249.69,2.06 -330.09,-1.27z"/>
    <path id="_10_9" class="fil10" d="M509.9 92.7c76.58,3.18 217.33,3.72 314.38,1.21 97.05,-2.5 113.64,-7.11 37.07,-10.28 -76.58,-3.18 -217.33,-3.72 -314.38,-1.22 -97.05,2.51 -113.65,7.12 -37.07,10.29zm-26.36 0.68c-88.06,-3.65 -68.98,-8.95 42.63,-11.83 111.61,-2.88 273.47,-2.26 361.54,1.4 88.06,3.65 68.98,8.94 -42.63,11.83 -111.61,2.88 -273.47,2.25 -361.54,-1.4z"/>
    <path id="_11_10" class="fil11" d="M492.33 93.15c84.23,3.5 239.06,4.1 345.82,1.34 106.75,-2.76 125,-7.82 40.77,-11.32 -84.24,-3.49 -239.06,-4.09 -345.82,-1.33 -106.75,2.75 -125.01,7.82 -40.77,11.31zm-26.36 0.68c-95.72,-3.96 -74.98,-9.72 46.33,-12.85 121.32,-3.14 297.26,-2.46 392.98,1.51 95.72,3.97 74.98,9.73 -46.33,12.86 -121.32,3.13 -297.26,2.46 -392.98,-1.52z"/>
    <path id="_12_11" class="fil12" d="M474.76 93.61c91.89,3.81 260.79,4.46 377.25,1.45 116.46,-3 136.38,-8.53 44.48,-12.34 -91.89,-3.81 -260.79,-4.46 -377.25,-1.46 -116.46,3.01 -136.38,8.54 -44.48,12.35zm-26.36 0.68c-103.38,-4.29 -80.98,-10.51 50.04,-13.89 131.01,-3.38 321.03,-2.65 424.41,1.64 103.38,4.29 80.98,10.5 -50.04,13.89 -131.02,3.38 -321.03,2.65 -424.41,-1.64z"/>
    <path id="_13_12" class="fil13" d="M457.18 94.06c99.56,4.13 282.53,4.84 408.7,1.58 126.16,-3.26 147.74,-9.25 48.18,-13.38 -99.55,-4.12 -282.53,-4.83 -408.69,-1.57 -126.16,3.26 -147.74,9.24 -48.19,13.37zm-26.35 0.68c-111.04,-4.6 -86.98,-11.28 53.74,-14.92 140.72,-3.63 344.81,-2.84 455.85,1.76 111.04,4.61 86.98,11.29 -53.74,14.92 -140.73,3.64 -344.82,2.85 -455.85,-1.76z"/>
    <path id="_14_13" class="fil14" d="M439.61 94.52c107.21,4.44 304.26,5.2 440.13,1.69 135.87,-3.5 159.11,-9.95 51.9,-14.4 -107.21,-4.45 -304.27,-5.21 -440.13,-1.7 -135.87,3.51 -159.11,9.96 -51.9,14.41zm-26.36 0.68c-118.69,-4.93 -92.97,-12.07 57.46,-15.95 150.42,-3.88 368.59,-3.04 487.28,1.88 118.7,4.92 92.98,12.06 -57.45,15.95 -150.42,3.88 -368.59,3.04 -487.29,-1.88z"/>
    <path id="_15_14" class="fil15" d="M422.04 94.97c114.87,4.76 326,5.58 471.57,1.82 145.57,-3.76 170.47,-10.67 55.6,-15.43 -114.87,-4.77 -326,-5.58 -471.57,-1.82 -145.57,3.76 -170.47,10.67 -55.6,15.43zm-26.36 0.68c-126.35,-5.24 -98.97,-12.84 61.16,-16.97 160.13,-4.14 392.37,-3.24 518.73,2 126.35,5.24 98.97,12.84 -61.16,16.97 -160.13,4.14 -392.38,3.24 -518.73,-2z"/>
    <path id="_16_15" class="fil16" d="M404.47 95.42c122.52,5.09 347.73,5.95 503,1.94 155.28,-4.01 181.84,-11.37 59.31,-16.46 -122.52,-5.08 -347.73,-5.95 -503.01,-1.94 -155.27,4.01 -181.83,11.38 -59.3,16.46zm-26.36 0.68c-134.01,-5.55 -104.97,-13.61 64.87,-18 169.83,-4.39 416.15,-3.43 550.16,2.12 134.01,5.56 104.97,13.62 -64.87,18.01 -169.83,4.38 -416.15,3.43 -550.16,-2.13z"/>
    <path id="_17_16" class="fil17" d="M386.9 95.88c130.18,5.4 369.46,6.32 534.44,2.06 164.98,-4.26 193.2,-12.09 63.01,-17.49 -130.18,-5.4 -369.46,-6.32 -534.44,-2.06 -164.98,4.26 -193.2,12.09 -63.01,17.49zm-26.36 0.68c-141.67,-5.88 -110.97,-14.4 68.57,-19.03 179.54,-4.64 439.93,-3.64 581.6,2.24 141.67,5.88 110.97,14.4 -68.57,19.03 -179.54,4.64 -439.93,3.63 -581.6,-2.24z"/>
    <path id="_18_17" class="fil18" d="M369.32 96.33c137.84,5.72 391.2,6.7 565.89,2.18 174.68,-4.51 204.56,-12.8 66.72,-18.51 -137.84,-5.72 -391.2,-6.7 -565.89,-2.19 -174.68,4.51 -204.56,12.8 -66.72,18.52zm-26.36 0.68c-149.32,-6.19 -116.96,-15.17 72.28,-20.06 189.25,-4.89 463.72,-3.83 613.04,2.36 149.33,6.2 116.97,15.18 -72.28,20.07 -189.24,4.88 -463.71,3.82 -613.04,-2.37z"/>
    <path id="_19_18" class="fil19" d="M351.75 96.78c145.5,6.04 412.93,7.07 597.32,2.31 184.39,-4.76 215.93,-13.51 70.43,-19.55 -145.5,-6.03 -412.93,-7.06 -597.32,-2.3 -184.4,4.76 -215.93,13.51 -70.43,19.54zm-26.36 0.69c-156.98,-6.51 -122.96,-15.96 75.99,-21.09 198.95,-5.14 487.49,-4.03 644.48,2.48 156.98,6.51 122.96,15.95 -75.99,21.09 -198.95,5.14 -487.49,4.03 -644.48,-2.48z"/>
    <path id="_20_19" class="fil20" d="M334.18 97.24c153.15,6.35 434.66,7.44 628.76,2.42 194.1,-5.01 227.29,-14.22 74.13,-20.57 -153.16,-6.35 -434.66,-7.44 -628.76,-2.43 -194.1,5.01 -227.29,14.23 -74.13,20.58zm-26.36 0.68c-164.64,-6.83 -128.96,-16.73 79.69,-22.12 208.66,-5.39 511.28,-4.22 675.92,2.61 164.64,6.83 128.96,16.73 -79.69,22.12 -208.66,5.39 -511.28,4.22 -675.92,-2.61z"/>
    <path id="_21_20" class="fil21" d="M316.61 97.69c160.81,6.67 456.39,7.81 660.19,2.55 203.81,-5.26 238.66,-14.94 77.84,-21.61 -160.81,-6.66 -456.39,-7.8 -660.19,-2.54 -203.81,5.26 -238.66,14.93 -77.84,21.6zm-26.36 0.68c-172.3,-7.14 -134.96,-17.51 83.4,-23.15 218.36,-5.63 535.05,-4.41 707.35,2.73 172.3,7.15 134.96,17.51 -83.4,23.15 -218.36,5.64 -535.05,4.42 -707.35,-2.73z"/>
    <path id="_22_21" class="fil22" d="M299.03 98.15c168.48,6.98 478.13,8.18 691.64,2.66 213.51,-5.51 250.02,-15.64 81.54,-22.63 -168.47,-6.99 -478.12,-8.18 -691.63,-2.67 -213.51,5.52 -250.02,15.65 -81.55,22.64zm-26.35 0.68c-179.96,-7.47 -140.96,-18.29 87.1,-24.18 228.07,-5.89 558.83,-4.61 738.79,2.85 179.96,7.46 140.96,18.29 -87.1,24.18 -228.07,5.89 -558.84,4.61 -738.79,-2.85z"/>
    <path id="_23_22" class="fil23" d="M281.46 98.6c176.13,7.3 499.86,8.55 723.07,2.79 223.22,-5.76 261.39,-16.36 85.26,-23.66 -176.13,-7.31 -499.86,-8.56 -723.08,-2.79 -223.21,5.76 -261.38,16.36 -85.25,23.66zm-26.36 0.68c-187.61,-7.78 -146.95,-19.07 90.82,-25.21 237.77,-6.13 582.61,-4.8 770.23,2.98 187.61,7.78 146.95,19.06 -90.82,25.2 -237.77,6.14 -582.61,4.81 -770.23,-2.97z"/>
    <path id="_24_23" class="fil24" d="M263.89 99.05c183.79,7.63 521.59,8.93 754.51,2.91 232.92,-6.01 272.75,-17.06 88.96,-24.69 -183.79,-7.62 -521.59,-8.92 -754.51,-2.91 -232.92,6.02 -272.75,17.07 -88.96,24.69zm-26.36 0.68c-195.27,-8.09 -152.95,-19.84 94.52,-26.23 247.48,-6.39 606.39,-5.01 801.67,3.09 195.27,8.1 152.95,19.85 -94.52,26.24 -247.48,6.39 -606.4,5 -801.67,-3.1z"/>
    <path id="_25_24" class="fil25" d="M246.32 99.51c191.44,7.94 543.32,9.3 785.94,3.03 242.63,-6.27 284.12,-17.78 92.67,-25.72 -191.44,-7.94 -543.32,-9.3 -785.95,-3.03 -242.62,6.26 -284.11,17.78 -92.66,25.72zm-26.36 0.68c-202.93,-8.42 -158.95,-20.62 98.23,-27.27 257.18,-6.64 630.17,-5.2 833.1,3.22 202.93,8.41 158.95,20.62 -98.23,27.26 -257.18,6.64 -630.17,5.2 -833.1,-3.21z"/>
    <path id="_26_25" class="fil26" d="M228.75 99.96c199.1,8.26 565.05,9.67 817.38,3.15 252.33,-6.51 295.48,-18.49 96.37,-26.74 -199.1,-8.26 -565.05,-9.67 -817.38,-3.16 -252.33,6.52 -295.48,18.49 -96.37,26.75zm-26.36 0.68c-210.59,-8.73 -164.96,-21.4 101.93,-28.29 266.88,-6.89 653.95,-5.4 864.54,3.34 210.59,8.73 164.95,21.4 -101.93,28.29 -266.89,6.89 -653.95,5.39 -864.54,-3.34z"/>
    <path id="_27_26" class="fil27" d="M211.17 100.41c206.76,8.58 586.79,10.05 848.83,3.28 262.03,-6.77 306.84,-19.2 100.08,-27.78 -206.76,-8.57 -586.8,-10.04 -848.83,-3.27 -262.03,6.76 -306.84,19.2 -100.08,27.77zm-26.36 0.69c-218.24,-9.06 -170.95,-22.18 105.64,-29.33 276.59,-7.14 677.74,-5.59 895.98,3.46 218.25,9.05 170.95,22.18 -105.63,29.32 -276.59,7.14 -677.74,5.6 -895.99,-3.45z"/>
    <path id="_28_27" class="fil28" d="M193.6 100.87c214.42,8.89 608.52,10.41 880.26,3.39 271.74,-7.01 318.21,-19.91 103.79,-28.8 -214.42,-8.89 -608.53,-10.41 -880.26,-3.4 -271.74,7.02 -318.21,19.92 -103.79,28.81zm-26.36 0.68c-225.9,-9.37 -176.95,-22.96 109.35,-30.35 286.29,-7.39 701.51,-5.79 927.42,3.58 225.9,9.37 176.94,22.95 -109.35,30.35 -286.29,7.39 -701.51,5.79 -927.42,-3.58z"/>
    <path id="_29_28" class="fil29" d="M176.03 101.32c222.07,9.21 630.26,10.79 911.7,3.52 281.44,-7.27 329.57,-20.63 107.49,-29.83 -222.07,-9.22 -630.26,-10.79 -911.7,-3.52 -281.44,7.26 -329.57,20.62 -107.49,29.83zm-26.36 0.68c-233.56,-9.68 -182.95,-23.73 113.05,-31.38 296,-7.64 725.3,-5.98 958.86,3.7 233.56,9.69 182.95,23.74 -113.05,31.38 -296,7.65 -725.3,5.99 -958.86,-3.7z"/>
    <path id="_30_29" class="fil30" d="M158.46 101.78c229.73,9.52 651.99,11.15 943.13,3.64 291.15,-7.52 340.94,-21.34 111.2,-30.87 -229.73,-9.53 -651.99,-11.16 -943.13,-3.64 -291.15,7.52 -340.94,21.34 -111.2,30.87zm-26.36 0.68c-241.22,-10.01 -188.95,-24.52 116.76,-32.41 305.7,-7.89 749.07,-6.18 990.29,3.82 241.22,10 188.95,24.51 -116.76,32.41 -305.7,7.89 -749.07,6.18 -990.29,-3.82z"/>
    <path id="_31_30" class="fil31" d="M140.88 102.23c237.39,9.85 673.73,11.53 974.58,3.76 300.85,-7.77 352.3,-22.05 114.91,-31.89 -237.4,-9.85 -673.73,-11.53 -974.58,-3.76 -300.85,7.77 -352.3,22.04 -114.91,31.89zm-26.35 0.68c-248.88,-10.32 -194.95,-25.29 120.46,-33.44 315.41,-8.14 772.86,-6.38 1021.73,3.95 248.88,10.32 194.95,25.29 -120.46,33.43 -315.41,8.15 -772.86,6.38 -1021.73,-3.94z"/>
    <path id="_32_31" class="fil32" d="M123.31 102.68c245.05,10.17 695.46,11.9 1006.02,3.89 310.55,-8.02 363.66,-22.76 118.61,-32.93 -245.05,-10.16 -695.46,-11.9 -1006.02,-3.88 -310.55,8.02 -363.66,22.76 -118.61,32.92zm-26.36 0.68c-256.53,-10.63 -200.94,-26.07 124.18,-34.46 325.11,-8.4 796.63,-6.58 1053.17,4.06 256.53,10.64 200.94,26.07 -124.18,34.47 -325.11,8.39 -796.63,6.57 -1053.17,-4.07z"/>
    <path id="_33_32" class="fil33" d="M105.74 103.14c252.71,10.48 717.19,12.27 1037.45,4 320.26,-8.27 375.03,-23.47 122.32,-33.95 -252.71,-10.48 -717.19,-12.27 -1037.45,-4 -320.26,8.27 -375.03,23.47 -122.32,33.95zm-26.36 0.68c-264.19,-10.96 -206.94,-26.85 127.88,-35.5 334.82,-8.64 820.41,-6.77 1084.61,4.19 264.19,10.96 206.94,26.85 -127.88,35.49 -334.82,8.65 -820.42,6.77 -1084.61,-4.18z"/>
    <path id="_34_33" class="fil34" d="M88.17 103.59c260.36,10.8 738.92,12.65 1068.89,4.13 329.96,-8.53 386.39,-24.19 126.02,-34.98 -260.36,-10.8 -738.92,-12.65 -1068.89,-4.13 -329.96,8.52 -386.39,24.18 -126.02,34.98zm-26.36 0.68c-271.85,-11.27 -212.94,-27.62 131.58,-36.52 344.53,-8.9 844.2,-6.97 1116.05,4.31 271.85,11.27 212.94,27.62 -131.59,36.52 -344.52,8.89 -844.19,6.97 -1116.04,-4.31z"/>
    <path id="_35_34" class="fil35" d="M70.59 104.05c268.03,11.11 760.66,13.01 1100.33,4.24 339.67,-8.77 397.76,-24.89 129.73,-36.01 -268.02,-11.11 -760.65,-13.01 -1100.32,-4.24 -339.67,8.77 -397.76,24.89 -129.74,36.01zm-26.35 0.68c-279.51,-11.6 -218.94,-28.41 135.29,-37.56 354.23,-9.14 867.97,-7.16 1147.48,4.43 279.51,11.59 218.94,28.41 -135.29,37.55 -354.23,9.15 -867.98,7.17 -1147.48,-4.42z"/>
    <path id="_36_35" class="fil36" d="M53.02 104.5c275.68,11.43 782.39,13.39 1131.77,4.36 349.37,-9.02 409.12,-25.6 133.44,-37.03 -275.68,-11.43 -782.39,-13.39 -1131.77,-4.37 -349.38,9.02 -409.12,25.61 -133.44,37.04zm-26.36 0.68c-287.16,-11.91 -224.93,-29.18 139,-38.58 363.94,-9.4 891.76,-7.36 1178.93,4.55 287.16,11.91 224.93,29.18 -139,38.58 -363.94,9.4 -891.76,7.36 -1178.93,-4.55z"/>
    <path id="_37_36" class="fil37" d="M35.45 104.95c283.34,11.75 804.12,13.76 1163.2,4.49 359.08,-9.27 420.49,-26.31 137.15,-38.07 -283.34,-11.75 -804.12,-13.76 -1163.2,-4.48 -359.09,9.27 -420.49,26.31 -137.15,38.06zm-26.36 0.68c-294.82,-12.22 -230.93,-29.96 142.71,-39.61 373.64,-9.64 915.53,-7.55 1210.36,4.67 294.82,12.23 230.93,29.96 -142.71,39.61 -373.64,9.65 -915.53,7.56 -1210.36,-4.67z"/>
    <path id="_38_37" class="fil38" d="M17.88 105.41c290.99,12.06 825.85,14.13 1194.64,4.61 368.78,-9.53 431.85,-27.03 140.85,-39.1 -290.99,-12.07 -825.85,-14.13 -1194.64,-4.61 -368.79,9.52 -431.85,27.03 -140.85,39.1zm-26.36 0.68c-302.48,-12.55 -236.93,-30.74 146.41,-40.64 383.35,-9.9 939.32,-7.75 1241.8,4.79 302.48,12.54 236.93,30.74 -146.41,40.64 -383.35,9.9 -939.32,7.75 -1241.8,-4.79z"/>
    <path id="_39_38" class="fil39" d="M0.31 105.86c298.65,12.39 847.58,14.5 1226.07,4.73 378.5,-9.77 443.22,-27.74 144.56,-40.12 -298.65,-12.39 -847.58,-14.51 -1226.08,-4.73 -378.49,9.77 -443.21,27.73 -144.55,40.12zm-26.36 0.68c-310.14,-12.86 -242.93,-31.52 150.12,-41.67 393.05,-10.15 963.09,-7.95 1273.23,4.92 310.14,12.86 242.93,31.51 -150.12,41.66 -393.05,10.15 -963.09,7.95 -1273.23,-4.91z"/>
    <path id="_40_39" class="fil40" d="M-17.27 106.31c306.31,12.71 869.32,14.88 1257.52,4.86 388.2,-10.03 454.58,-28.45 148.27,-41.16 -306.32,-12.7 -869.32,-14.87 -1257.52,-4.85 -388.2,10.03 -454.58,28.45 -148.27,41.15zm-26.36 0.68c-317.79,-13.18 -248.92,-32.29 153.83,-42.69 402.75,-10.4 986.88,-8.15 1304.67,5.03 317.8,13.18 248.93,32.3 -153.82,42.7 -402.75,10.4 -986.88,8.14 -1304.68,-5.04z"/>
    <path id="_41_40" class="fil41" d="M-34.84 106.77c313.97,13.02 891.05,15.24 1288.95,4.97 397.91,-10.27 465.95,-29.16 151.98,-42.18 -313.97,-13.02 -891.06,-15.25 -1288.96,-4.97 -397.9,10.27 -465.94,29.16 -151.97,42.18zm-26.36 0.68c-325.45,-13.5 -254.92,-33.08 157.54,-43.73 412.45,-10.65 1010.65,-8.34 1336.11,5.16 325.45,13.5 254.92,33.07 -157.54,43.72 -412.45,10.65 -1010.65,8.35 -1336.11,-5.15z"/>
    <path id="_42_41" class="fil42" d="M-52.41 107.22c321.63,13.34 912.79,15.62 1320.39,5.1 407.61,-10.53 477.31,-29.88 155.68,-43.21 -321.63,-13.34 -912.79,-15.62 -1320.39,-5.1 -407.61,10.53 -477.31,29.87 -155.68,43.21zm-26.36 0.68c-333.11,-13.81 -260.92,-33.85 161.24,-44.75 422.16,-10.9 1034.43,-8.54 1367.55,5.28 333.11,13.81 260.92,33.85 -161.24,44.75 -422.16,10.9 -1034.44,8.54 -1367.55,-5.28z"/>
    <path id="_43_42" class="fil43" d="M-69.98 107.67c329.28,13.66 934.52,16 1351.83,5.22 417.31,-10.77 488.67,-30.58 159.38,-44.24 -329.28,-13.65 -934.52,-15.99 -1351.83,-5.21 -417.31,10.77 -488.67,30.58 -159.38,44.23zm-26.36 0.68c-340.77,-14.13 -266.92,-34.62 164.94,-45.78 431.87,-11.15 1058.22,-8.73 1398.99,5.4 340.77,14.13 266.92,34.63 -164.95,45.78 -431.86,11.15 -1058.21,8.74 -1398.98,-5.4z"/>
    <path id="_44_43" class="fil44" d="M-87.56 108.13c336.95,13.97 956.26,16.36 1383.27,5.34 427.02,-11.03 500.04,-31.3 163.1,-45.27 -336.95,-13.97 -956.26,-16.37 -1383.27,-5.34 -427.02,11.03 -500.04,31.29 -163.1,45.27zm-26.35 0.68c-348.43,-14.45 -272.93,-35.41 168.65,-46.81 441.57,-11.4 1082,-8.93 1430.42,5.52 348.43,14.45 272.92,35.41 -168.65,46.81 -441.57,11.4 -1082,8.93 -1430.42,-5.52z"/>
    <path id="_45_44" class="fil45" d="M-105.13 108.58c344.6,14.29 977.99,16.74 1414.71,5.46 436.72,-11.28 511.4,-32 166.8,-46.3 -344.6,-14.29 -977.99,-16.73 -1414.71,-5.45 -436.72,11.27 -511.4,32 -166.8,46.29zm-26.36 0.68c-356.08,-14.76 -278.92,-36.18 172.36,-47.84 451.28,-11.65 1105.78,-9.12 1461.87,5.64 356.08,14.77 278.92,36.19 -172.36,47.84 -451.28,11.66 -1105.78,9.13 -1461.87,-5.64z"/>
    <path id="_46_45" class="fil46" d="M-122.7 109.04c352.26,14.61 999.72,17.1 1446.14,5.58 446.43,-11.53 522.77,-32.72 170.51,-47.33 -352.26,-14.61 -999.72,-17.11 -1446.14,-5.58 -446.43,11.53 -522.77,32.72 -170.51,47.33zm-26.36 0.68c-363.74,-15.09 -284.92,-36.97 176.07,-48.87 460.98,-11.91 1129.55,-9.33 1493.3,5.76 363.74,15.09 284.92,36.97 -176.07,48.87 -460.98,11.9 -1129.56,9.32 -1493.3,-5.76z"/>
    <path id="_47_46" class="fil47" d="M-140.27 109.49c359.91,14.93 1021.45,17.48 1477.58,5.7 456.13,-11.78 534.13,-33.43 174.21,-48.35 -359.91,-14.93 -1021.45,-17.48 -1477.58,-5.7 -456.13,11.77 -534.13,33.42 -174.21,48.35zm-26.36 0.68c-371.4,-15.4 -290.92,-37.74 179.77,-49.9 470.69,-12.15 1153.34,-9.52 1524.74,5.89 371.4,15.4 290.92,37.74 -179.77,49.89 -470.69,12.16 -1153.34,9.52 -1524.74,-5.88z"/>
    <path id="_48_47" class="fil48" d="M-157.85 109.94c367.58,15.25 1043.19,17.85 1509.03,5.83 465.83,-12.03 545.49,-34.14 177.91,-49.39 -367.57,-15.24 -1043.18,-17.85 -1509.02,-5.82 -465.83,12.03 -545.49,34.14 -177.92,49.38zm-26.35 0.68c-379.06,-15.72 -296.92,-38.52 183.48,-50.92 480.39,-12.41 1177.11,-9.72 1556.17,6 379.06,15.72 296.92,38.52 -183.48,50.93 -480.39,12.4 -1177.11,9.71 -1556.17,-6.01z"/>
    <path id="_49_48" class="fil49" d="M-175.42 110.4c375.23,15.56 1064.92,18.22 1540.46,5.94 475.54,-12.28 556.86,-34.85 181.63,-50.41 -375.23,-15.56 -1064.92,-18.22 -1540.46,-5.94 -475.54,12.28 -556.86,34.85 -181.63,50.41zm-26.36 0.68c-386.71,-16.04 -302.91,-39.3 187.19,-51.96 490.1,-12.65 1200.9,-9.91 1587.61,6.13 386.72,16.04 302.92,39.3 -187.18,51.95 -490.1,12.66 -1200.9,9.92 -1587.62,-6.12z"/>
    <path id="_50_49" class="fil50" d="M-192.99 110.85c382.89,15.88 1086.65,18.6 1571.9,6.07 485.24,-12.53 568.22,-35.56 185.33,-51.44 -382.89,-15.88 -1086.65,-18.6 -1571.9,-6.07 -485.24,12.53 -568.22,35.56 -185.33,51.44zm-26.36 0.68c-394.37,-16.35 -308.91,-40.08 190.89,-52.98 499.81,-12.91 1224.68,-10.11 1619.06,6.24 394.37,16.36 308.91,40.08 -190.9,52.99 -499.8,12.9 -1224.67,10.11 -1619.05,-6.25z"/>
    <path id="_51_50" class="fil51" d="M-210.56 111.3c390.54,16.2 1108.38,18.97 1603.33,6.19 494.95,-12.78 579.59,-36.27 189.04,-52.47 -390.55,-16.19 -1108.38,-18.96 -1603.33,-6.18 -494.95,12.78 -579.59,36.27 -189.04,52.46zm-26.36 0.69c-402.03,-16.68 -314.91,-40.86 194.6,-54.02 509.51,-13.15 1248.46,-10.3 1650.49,6.37 402.03,16.67 314.91,40.86 -194.6,54.01 -509.51,13.16 -1248.46,10.31 -1650.49,-6.36z"/>
    <path id="_52_51" class="fil52" d="M-228.13 111.76c398.2,16.51 1130.11,19.34 1634.77,6.31 504.65,-13.03 590.95,-36.99 192.74,-53.5 -398.2,-16.52 -1130.11,-19.34 -1634.77,-6.31 -504.65,13.03 -590.95,36.98 -192.74,53.5zm-26.36 0.68c-409.69,-16.99 -320.91,-41.63 198.3,-55.04 519.22,-13.41 1272.24,-10.5 1681.93,6.49 409.69,16.99 320.91,41.63 -198.3,55.04 -519.22,13.41 -1272.24,10.5 -1681.93,-6.49z"/>
    <path id="_53_52" class="fil53" d="M-245.71 112.21c405.87,16.83 1151.85,19.71 1666.21,6.43 514.36,-13.28 602.32,-37.69 196.46,-54.53 -405.87,-16.83 -1151.85,-19.71 -1666.21,-6.42 -514.36,13.28 -602.32,37.69 -196.46,54.52zm-26.36 0.68c-417.34,-17.31 -326.9,-42.41 202.02,-56.07 528.92,-13.65 1296.02,-10.69 1713.36,6.61 417.35,17.31 326.91,42.42 -202.01,56.07 -528.92,13.66 -1296.02,10.7 -1713.37,-6.61z"/>
    <path id="_54_53" class="fil54" d="M-263.28 112.67c413.52,17.15 1173.58,20.08 1697.65,6.55 524.06,-13.54 613.68,-38.41 200.16,-55.56 -413.52,-17.15 -1173.58,-20.08 -1697.65,-6.55 -524.06,13.53 -613.68,38.41 -200.16,55.56zm-26.36 0.68c-425,-17.63 -332.9,-43.19 205.72,-57.1 538.62,-13.91 1319.8,-10.9 1744.81,6.73 425,17.63 332.9,43.19 -205.72,57.1 -538.62,13.91 -1319.8,10.89 -1744.81,-6.73z"/>
    <path id="_55_54" class="fil55" d="M-280.85 113.12c421.18,17.47 1195.31,20.45 1729.08,6.67 533.77,-13.78 625.05,-39.12 203.87,-56.58 -421.18,-17.47 -1195.32,-20.46 -1729.09,-6.67 -533.77,13.78 -625.04,39.11 -203.86,56.58zm-26.36 0.68c-432.66,-17.94 -338.9,-43.97 209.43,-58.13 548.32,-14.16 1343.57,-11.09 1776.24,6.86 432.66,17.94 338.9,43.97 -209.43,58.12 -548.32,14.16 -1343.58,11.09 -1776.24,-6.85z"/>
    <path id="_56_55" class="fil56" d="M-298.42 113.57c428.83,17.79 1217.05,20.83 1760.52,6.8 543.47,-14.04 636.41,-39.83 207.57,-57.62 -428.83,-17.78 -1217.05,-20.82 -1760.52,-6.79 -543.48,14.03 -636.41,39.83 -207.57,57.61zm-26.36 0.68c-440.32,-18.26 -344.9,-44.74 213.13,-59.15 558.03,-14.41 1367.36,-11.29 1807.68,6.97 440.32,18.26 344.9,44.75 -213.13,59.16 -558.03,14.41 -1367.36,11.29 -1807.68,-6.98z"/>
    <path id="_57_56" class="fil57" d="M-316 114.03c436.5,18.1 1238.79,21.2 1791.97,6.91 553.17,-14.28 647.77,-40.54 211.27,-58.64 -436.49,-18.1 -1238.78,-21.2 -1791.96,-6.91 -553.18,14.28 -647.77,40.53 -211.28,58.64zm-26.35 0.68c-447.98,-18.58 -350.9,-45.53 216.83,-60.19 567.74,-14.66 1391.14,-11.48 1839.12,7.1 447.98,18.58 350.9,45.52 -216.84,60.18 -567.73,14.66 -1391.13,11.49 -1839.11,-7.09z"/>
    <path id="_58_57" class="fil58" d="M-333.57 114.48c444.15,18.42 1260.52,21.57 1823.4,7.04 562.89,-14.54 659.14,-41.25 214.99,-59.67 -444.15,-18.42 -1260.52,-21.57 -1823.4,-7.04 -562.89,14.54 -659.14,41.25 -214.99,59.67zm-26.36 0.68c-455.63,-18.89 -356.89,-46.3 220.55,-61.21 577.44,-14.91 1414.92,-11.68 1870.56,7.22 455.63,18.89 356.89,46.3 -220.55,61.21 -577.44,14.91 -1414.92,11.68 -1870.56,-7.22z"/>
    <path id="_59_58" class="fil59" d="M-351.14 114.93c451.81,18.74 1282.25,21.95 1854.84,7.16 572.59,-14.78 670.5,-41.96 218.69,-60.7 -451.81,-18.74 -1282.25,-21.94 -1854.84,-7.15 -572.59,14.78 -670.5,41.96 -218.69,60.69zm-26.36 0.69c-463.29,-19.22 -362.89,-47.09 224.25,-62.25 587.15,-15.16 1438.7,-11.87 1902,7.34 463.29,19.22 362.89,47.08 -224.26,62.24 -587.14,15.17 -1438.69,11.88 -1901.99,-7.33z"/>
    <path id="_60_59" class="fil59" d="M-368.71 115.39c459.46,19.05 1303.98,22.31 1886.27,7.28 582.3,-15.04 681.87,-42.68 222.4,-61.73 -459.47,-19.06 -1303.98,-22.32 -1886.27,-7.28 -582.3,15.04 -681.87,42.67 -222.4,61.73zm-26.36 0.68c-470.95,-19.53 -368.89,-47.86 227.96,-63.27 596.85,-15.41 1462.48,-12.07 1933.43,7.46 470.95,19.53 368.89,47.86 -227.96,63.27 -596.85,15.41 -1462.48,12.07 -1933.43,-7.46z"/>
    <path id="_61_60" class="fil60" d="M-386.28 115.84c467.12,19.37 1325.71,22.69 1917.71,7.4 592,-15.28 693.23,-43.38 226.1,-62.75 -467.12,-19.38 -1325.71,-22.69 -1917.71,-7.4 -592,15.28 -693.23,43.38 -226.1,62.75zm-26.36 0.68c-478.61,-19.85 -374.89,-48.63 231.66,-64.3 606.56,-15.66 1486.26,-12.27 1964.87,7.58 478.61,19.85 374.89,48.64 -231.66,64.3 -606.56,15.67 -1486.26,12.27 -1964.87,-7.58z"/>
    <path id="_62_61" class="fil61" d="M-403.86 116.3c474.79,19.69 1347.45,23.05 1949.15,7.52 601.71,-15.54 704.6,-44.1 229.82,-63.79 -474.79,-19.69 -1347.45,-23.06 -1949.15,-7.52 -601.71,15.54 -704.6,44.1 -229.82,63.79zm-26.36 0.68c-486.27,-20.17 -380.89,-49.42 235.38,-65.33 616.26,-15.91 1510.04,-12.47 1996.3,7.7 486.27,20.17 380.89,49.42 -235.37,65.33 -616.26,15.91 -1510.04,12.46 -1996.31,-7.7z"/>
    <path id="_63_62" class="fil62" d="M-421.43 116.75c482.44,20.01 1369.18,23.43 1980.59,7.64 611.41,-15.79 715.96,-44.8 233.52,-64.81 -482.44,-20.01 -1369.18,-23.43 -1980.59,-7.64 -611.41,15.78 -715.96,44.8 -233.52,64.81zm-26.36 0.68c-493.93,-20.48 -386.89,-50.19 239.08,-66.36 625.97,-16.16 1533.82,-12.66 2027.75,7.83 493.92,20.48 386.88,50.19 -239.08,66.35 -625.97,16.17 -1533.82,12.67 -2027.75,-7.82z"/>
    <path id="_64_63" class="fil63" d="M-439 117.2c490.1,20.33 1390.91,23.8 2012.02,7.77 621.12,-16.04 727.33,-45.52 237.23,-65.85 -490.1,-20.32 -1390.91,-23.8 -2012.03,-7.76 -621.11,16.04 -727.32,45.52 -237.22,65.84zm-26.36 0.68c-501.59,-20.8 -392.89,-50.97 242.79,-67.38 635.67,-16.42 1557.6,-12.86 2059.18,7.94 501.58,20.8 392.88,50.98 -242.79,67.39 -635.67,16.41 -1557.6,12.86 -2059.18,-7.95z"/>
    <path id="_65_64" class="fil64" d="M-456.57 117.66c497.75,20.64 1412.64,24.17 2043.46,7.88 630.82,-16.29 738.69,-46.23 240.93,-66.87 -497.75,-20.64 -1412.64,-24.17 -2043.46,-7.89 -630.82,16.29 -738.69,46.23 -240.93,66.88zm-26.36 0.68c-509.25,-21.12 -398.89,-51.75 246.49,-68.42 645.38,-16.66 1581.38,-13.05 2090.62,8.07 509.24,21.12 398.89,51.75 -246.49,68.41 -645.38,16.67 -1581.38,13.06 -2090.62,-8.06z"/>
    <path id="_66_65" class="fil65" d="M-474.15 118.11c505.42,20.96 1434.38,24.55 2074.91,8.01 640.52,-16.54 750.05,-46.94 244.64,-67.9 -505.42,-20.96 -1434.38,-24.55 -2074.91,-8.01 -640.52,16.54 -750.05,46.94 -244.64,67.9zm-26.35 0.68c-516.9,-21.44 -404.89,-52.53 250.19,-69.44 655.09,-16.92 1605.16,-13.25 2122.06,8.19 516.9,21.43 404.89,52.52 -250.19,69.44 -655.09,16.91 -1605.17,13.25 -2122.06,-8.19z"/>
    <path id="_67_66" class="fil65" d="M-491.72 118.57c513.07,21.27 1456.11,24.91 2106.34,8.12 650.23,-16.79 761.42,-47.65 248.35,-68.93 -513.07,-21.28 -1456.11,-24.91 -2106.34,-8.12 -650.23,16.78 -761.42,47.65 -248.35,68.93zm-26.36 0.68c-524.55,-21.76 -410.88,-53.31 253.91,-70.48 664.78,-17.16 1628.94,-13.44 2153.5,8.31 524.55,21.76 410.88,53.31 -253.91,70.47 -664.79,17.17 -1628.94,13.45 -2153.5,-8.3z"/>
    <path id="_68_67" class="fil66" d="M-509.29 119.02c520.73,21.59 1477.84,25.29 2137.78,8.25 659.93,-17.04 772.78,-48.37 252.05,-69.96 -520.73,-21.6 -1477.85,-25.29 -2137.78,-8.25 -659.93,17.04 -772.78,48.36 -252.05,69.96zm-26.36 0.68c-532.21,-22.07 -416.88,-54.09 257.61,-71.5 674.49,-17.42 1652.72,-13.64 2184.94,8.43 532.21,22.07 416.88,54.08 -257.61,71.5 -674.5,17.42 -1652.72,13.64 -2184.94,-8.43z"/>
    <path id="_69_68" class="fil66" d="M-526.86 119.47c528.38,21.92 1499.57,25.66 2169.21,8.37 669.64,-17.29 784.15,-49.07 255.76,-70.99 -528.38,-21.91 -1499.58,-25.66 -2169.21,-8.36 -669.64,17.29 -784.15,49.07 -255.76,70.98zm-26.36 0.68c-539.87,-22.39 -422.88,-54.86 261.32,-72.53 684.19,-17.66 1676.5,-13.84 2216.37,8.55 539.87,22.39 422.88,54.87 -261.32,72.53 -684.19,17.67 -1676.5,13.84 -2216.37,-8.55z"/>
    <path id="_70_69" class="fil67" d="M-544.44 119.93c536.05,22.23 1521.32,26.03 2200.66,8.49 679.34,-17.55 795.51,-49.79 259.46,-72.02 -536.04,-22.23 -1521.31,-26.03 -2200.65,-8.49 -679.34,17.54 -795.51,49.78 -259.47,72.02zm-26.35 0.68c-547.54,-22.71 -428.88,-55.65 265.02,-73.56 693.9,-17.92 1700.28,-14.04 2247.81,8.67 547.53,22.71 428.88,55.64 -265.02,73.56 -693.9,17.92 -1700.28,14.03 -2247.81,-8.67z"/>
    <path id="_71_70" class="fil67" d="M-562.01 120.38c543.7,22.55 1543.05,26.4 2232.09,8.61 689.05,-17.79 806.88,-50.49 263.18,-73.04 -543.71,-22.55 -1543.05,-26.41 -2232.1,-8.61 -689.04,17.79 -806.87,50.49 -263.17,73.04zm-26.36 0.68c-555.19,-23.02 -434.87,-56.42 268.74,-74.59 703.6,-18.17 1724.06,-14.23 2279.25,8.8 555.18,23.02 434.87,56.42 -268.74,74.58 -703.6,18.17 -1724.06,14.24 -2279.25,-8.79z"/>
    <path id="_72_71" class="fil68" d="M-579.58 120.83c551.36,22.87 1564.78,26.78 2263.53,8.74 698.75,-18.05 818.24,-51.21 266.88,-74.08 -551.36,-22.86 -1564.78,-26.77 -2263.53,-8.73 -698.76,18.04 -818.24,51.21 -266.88,74.07zm-26.36 0.68c-562.85,-23.34 -440.87,-57.19 272.44,-75.61 713.31,-18.42 1747.84,-14.43 2310.69,8.91 562.84,23.35 440.87,57.2 -272.44,75.62 -713.31,18.42 -1747.84,14.43 -2310.69,-8.92z"/>
    <path id="_73_72" class="fil69" d="M-597.15 121.29c559.02,23.18 1586.51,27.15 2294.97,8.85 708.45,-18.29 829.6,-51.92 270.58,-75.1 -559.02,-23.18 -1586.51,-27.15 -2294.97,-8.86 -708.46,18.3 -829.6,51.92 -270.58,75.11zm-26.36 0.68c-570.51,-23.66 -446.87,-57.98 276.14,-76.65 723.02,-18.67 1771.63,-14.62 2342.13,9.04 570.5,23.66 446.87,57.97 -276.15,76.64 -723.01,18.67 -1771.62,14.63 -2342.12,-9.03z"/>
    <path id="_74_73" class="fil70" d="M-614.72 121.74c566.67,23.5 1608.24,27.52 2326.4,8.98 718.16,-18.55 840.97,-52.63 274.29,-76.13 -566.67,-23.51 -1608.24,-27.52 -2326.4,-8.98 -718.17,18.54 -840.97,52.63 -274.29,76.13zm-26.36 0.68c-578.17,-23.98 -452.87,-58.75 279.85,-77.67 732.72,-18.92 1795.4,-14.82 2373.56,9.16 578.16,23.97 452.87,58.75 -279.85,77.67 -732.72,18.92 -1795.4,14.82 -2373.56,-9.16z"/>
    <path id="_75_74" class="fil70" d="M-632.3 122.19c574.34,23.82 1629.98,27.9 2357.85,9.1 727.87,-18.79 852.33,-53.34 278,-77.16 -574.34,-23.82 -1629.98,-27.89 -2357.85,-9.1 -727.87,18.8 -852.33,53.35 -278,77.16zm-26.36 0.68c-585.82,-24.29 -458.86,-59.53 283.56,-78.7 742.43,-19.17 1819.18,-15.01 2405,9.28 585.82,24.3 458.87,59.53 -283.55,78.7 -742.43,19.18 -1819.19,15.02 -2405.01,-9.28z"/>
    <path id="_76_75" class="fil71" d="M-649.87 122.65c581.99,24.13 1651.71,28.26 2389.28,9.22 737.58,-19.05 863.7,-54.05 281.71,-78.19 -581.99,-24.14 -1651.71,-28.27 -2389.28,-9.22 -737.58,19.04 -863.7,54.05 -281.71,78.19zm-26.36 0.68c-593.48,-24.61 -464.86,-60.31 287.27,-79.73 752.13,-19.42 1842.96,-15.22 2436.44,9.4 593.47,24.61 464.86,60.31 -287.27,79.73 -752.13,19.42 -1842.96,15.21 -2436.44,-9.4z"/>
    <path id="_77_76" class="fil71" d="M-667.44 123.1c589.65,24.46 1673.44,28.64 2420.72,9.34 747.28,-19.29 875.06,-54.76 285.41,-79.22 -589.65,-24.45 -1673.44,-28.63 -2420.72,-9.33 -747.28,19.29 -875.06,54.76 -285.41,79.21zm-26.36 0.68c-601.14,-24.93 -470.86,-61.09 290.97,-80.76 761.84,-19.67 1866.74,-15.41 2467.88,9.52 601.13,24.93 470.86,61.09 -290.97,80.76 -761.84,19.68 -1866.74,15.41 -2467.88,-9.52z"/>
    <path id="_78_77" class="fil71" d="M-685.01 123.56c597.3,24.77 1695.17,29 2452.15,9.46 756.99,-19.55 886.43,-55.48 289.12,-80.25 -597.3,-24.77 -1695.17,-29.01 -2452.16,-9.46 -756.98,19.55 -886.42,55.47 -289.11,80.25zm-26.36 0.68c-608.8,-25.25 -476.86,-61.87 294.68,-81.79 771.54,-19.93 1890.52,-15.61 2499.31,9.64 608.8,25.25 476.86,61.87 -294.68,81.79 -771.54,19.92 -1890.52,15.61 -2499.31,-9.64z"/>
    <path id="_79_78" class="fil71" d="M-702.59 124.01c604.97,25.09 1716.91,29.38 2483.6,9.58 766.69,-19.8 897.79,-56.18 292.83,-81.27 -604.97,-25.09 -1716.91,-29.38 -2483.6,-9.58 -766.69,19.79 -897.79,56.18 -292.83,81.27zm-26.35 0.68c-616.46,-25.57 -482.86,-62.64 298.38,-82.82 781.25,-20.17 1914.3,-15.8 2530.75,9.77 616.45,25.56 482.86,62.64 -298.38,82.82 -781.25,20.17 -1914.3,15.8 -2530.75,-9.77z"/>
    <path id="_80_79" class="fil72" d="M-720.16 124.46c612.62,25.41 1738.64,29.76 2515.03,9.71 776.4,-20.05 909.16,-56.9 296.54,-82.31 -612.63,-25.4 -1738.64,-29.75 -2515.04,-9.7 -776.39,20.05 -909.15,56.9 -296.53,82.3zm-26.36 0.68c-624.11,-25.88 -488.85,-63.42 302.1,-83.84 790.94,-20.43 1938.08,-16 2562.19,9.88 624.1,25.89 488.85,63.43 -302.1,83.85 -790.95,20.42 -1938.08,16 -2562.19,-9.89z"/>
    <path id="_81_80" class="fil73" d="M-737.73 124.92c620.28,25.72 1760.37,30.12 2546.47,9.82 786.1,-20.3 920.52,-57.61 300.24,-83.33 -620.28,-25.73 -1760.37,-30.12 -2546.47,-9.83 -786.1,20.3 -920.52,57.61 -300.24,83.34zm-26.36 0.68c-631.77,-26.2 -494.85,-64.2 305.8,-84.88 800.65,-20.67 1961.86,-16.19 2593.63,10.01 631.76,26.2 494.85,64.2 -305.8,84.88 -800.66,20.67 -1961.86,16.19 -2593.63,-10.01z"/>
    <path id="_82_81" class="fil73" d="M-755.3 125.37c627.94,26.04 1782.1,30.5 2577.91,9.95 795.8,-20.55 931.88,-58.32 303.94,-84.36 -627.94,-26.05 -1782.11,-30.5 -2577.91,-9.95 -795.8,20.55 -931.88,58.32 -303.94,84.36zm-26.36 0.68c-639.43,-26.52 -500.86,-64.98 309.5,-85.9 810.36,-20.93 1985.65,-16.39 2625.07,10.12 639.42,26.52 500.85,64.98 -309.51,85.91 -810.36,20.93 -1985.64,16.39 -2625.06,-10.13z"/>
    <path id="_83_82" class="fil73" d="M-772.88 125.82c635.6,26.36 1803.84,30.87 2609.35,10.07 805.51,-20.8 943.25,-59.03 307.65,-85.39 -635.59,-26.36 -1803.84,-30.87 -2609.34,-10.07 -805.51,20.8 -943.25,59.03 -307.66,85.39zm-26.35 0.69c-647.09,-26.84 -506.86,-65.76 313.21,-86.94 820.06,-21.17 2009.42,-16.58 2656.5,10.25 647.08,26.84 506.85,65.76 -313.21,86.94 -820.06,21.17 -2009.42,16.58 -2656.5,-10.25z"/>
    <path id="_84_83" class="fil73" d="M-790.45 126.28c643.26,26.68 1825.58,31.24 2640.79,10.19 815.21,-21.05 954.61,-59.74 311.36,-86.42 -643.26,-26.68 -1825.58,-31.24 -2640.79,-10.19 -815.21,21.05 -954.61,59.74 -311.36,86.42zm-26.36 0.68c-654.74,-27.15 -512.85,-66.54 316.92,-87.96 829.77,-21.43 2033.21,-16.79 2687.94,10.37 654.74,27.15 512.86,66.53 -316.91,87.96 -829.77,21.43 -2033.21,16.78 -2687.95,-10.37z"/>
    <path id="_85_84" class="fil74" d="M-808.02 126.73c650.91,27 1847.31,31.61 2672.22,10.31 824.92,-21.3 965.98,-60.45 315.07,-87.45 -650.91,-26.99 -1847.31,-31.61 -2672.22,-10.31 -824.92,21.31 -965.98,60.46 -315.07,87.45zm-26.36 0.68c-662.4,-27.47 -518.85,-67.31 320.63,-88.99 839.47,-21.68 2056.98,-16.98 2719.38,10.49 662.39,27.48 518.85,67.32 -320.63,88.99 -839.47,21.68 -2056.98,16.98 -2719.38,-10.49z"/>
    <path id="_86_85" class="fil74" d="M-825.59 127.19c658.57,27.31 1869.04,31.98 2703.66,10.43 834.62,-21.55 977.34,-61.17 318.77,-88.48 -658.57,-27.31 -1869.04,-31.98 -2703.66,-10.43 -834.62,21.55 -977.34,61.16 -318.77,88.48zm-26.36 0.68c-670.06,-27.79 -524.85,-68.1 324.33,-90.02 849.18,-21.93 2080.76,-17.18 2750.82,10.61 670.06,27.79 524.85,68.09 -324.33,90.02 -849.18,21.93 -2080.77,17.18 -2750.82,-10.61z"/>
    <path id="_87_86" class="fil74" d="M-843.17 127.64c666.23,27.63 1890.78,32.35 2735.11,10.55 844.32,-21.8 988.7,-61.87 322.47,-89.5 -666.22,-27.63 -1890.77,-32.36 -2735.1,-10.56 -844.32,21.81 -988.7,61.88 -322.48,89.51zm-26.35 0.68c-677.72,-28.11 -530.85,-68.87 328.04,-91.05 858.88,-22.18 2104.54,-17.37 2782.25,10.74 677.72,28.1 530.85,68.87 -328.04,91.05 -858.88,22.17 -2104.54,17.37 -2782.25,-10.74z"/>
    <path id="_88_87" class="fil74" d="M-860.74 128.09c673.89,27.95 1912.51,32.73 2766.54,10.68 854.03,-22.06 1000.07,-62.59 326.19,-90.54 -673.89,-27.94 -1912.51,-32.72 -2766.54,-10.67 -854.03,22.05 -1000.07,62.59 -326.19,90.53zm-26.36 0.68c-685.37,-28.42 -536.84,-69.64 331.75,-92.07 868.59,-22.43 2128.32,-17.57 2813.69,10.85 685.38,28.43 536.85,69.65 -331.74,92.08 -868.59,22.43 -2128.32,17.57 -2813.7,-10.86z"/>
    <path id="_89_88" class="fil74" d="M-878.31 128.55c681.54,28.26 1934.24,33.1 2797.98,10.79 863.73,-22.3 1011.43,-63.29 329.89,-91.56 -681.54,-28.27 -1934.24,-33.1 -2797.98,-10.8 -863.73,22.31 -1011.43,63.3 -329.89,91.57zm-26.36 0.68c-693.03,-28.74 -542.84,-70.43 335.45,-93.11 878.3,-22.68 2152.11,-17.76 2845.14,10.98 693.03,28.74 542.84,70.43 -335.46,93.11 -878.29,22.67 -2152.1,17.76 -2845.13,-10.98z"/>
    <path id="_90_89" class="fil74" d="M-895.88 129c689.2,28.58 1955.97,33.47 2829.41,10.92 873.44,-22.56 1022.8,-64.01 333.6,-92.59 -689.2,-28.59 -1955.97,-33.48 -2829.41,-10.92 -873.44,22.55 -1022.8,64.01 -333.6,92.59zm-26.36 0.68c-700.69,-29.06 -548.84,-71.2 339.16,-94.13 888,-22.93 2175.88,-17.96 2876.57,11.1 700.69,29.05 548.84,71.2 -339.16,94.13 -888,22.93 -2175.88,17.96 -2876.57,-11.1z"/>
    <path id="_91_90" class="fil74" d="M-913.45 129.45c696.85,28.91 1977.7,33.85 2860.85,11.04 883.14,-22.8 1034.16,-64.72 337.3,-93.62 -696.86,-28.9 -1977.7,-33.84 -2860.85,-11.04 -883.14,22.81 -1034.16,64.72 -337.3,93.62zm-17.58 0.46c-704.51,-29.22 -551.84,-71.6 341.02,-94.65 892.85,-23.06 2187.77,-18.06 2892.28,11.16 704.52,29.22 551.84,71.59 -341.01,94.65 -892.85,23.05 -2187.77,18.06 -2892.29,-11.16z"/>
   </g>
  </g>
  <line class="fil75 str0" x1="1458.78" y1="45.38" x2="0" y2= "45.38" />
  <line class="fil75 str0" x1="1458.78" y1="16.61" x2="0" y2= "16.61" />
  <line class="fil75 str0" x1="1458.78" y1="0.44" x2="0" y2= "0.44" />
  <line class="fil75 str0" x1="1458.78" y1="82.58" x2="0" y2= "82.58" />
  <g>
   <path class="fil76" d="M1244.99 17.12l-4.7 -8.09 1.75 -1.02 4.7 8.09 0.14 0.51 -1.89 0.51zm1.75 -1.02l0.14 0.24 0 0.27 -0.14 -0.51zm-1.89 29.28l0 -28.77 2.03 0 0 28.77 -1.92 0.45 -0.11 -0.45zm0.11 0.45l-0.11 -0.21 0 -0.24 0.11 0.45zm18.25 37.2l-18.25 -37.2 1.82 -0.89 18.25 37.2 0.1 0.44 -1.92 0.45zm1.82 -0.89l0.1 0.21 0 0.23 -0.1 -0.44zm-1.93 18.82l0 -18.38 2.03 0 0 18.38 -2.03 0zm1.02 -0.77l6.12 -8.68 0 9.45 -6.11 9.44 -6.13 -9.44 0 -9.45 6.12 8.68z"/>
  </g>
  <g>
   <path class="fil76" d="M1264.02 17.12l-4.71 -8.09 1.76 -1.02 4.7 8.09 0.14 0.51 -1.89 0.51zm1.75 -1.02l0.14 0.24 0 0.27 -0.14 -0.51zm-1.89 29.28l0 -28.77 2.03 0 0 28.77 -1.92 0.45 -0.11 -0.45zm0.11 0.45l-0.11 -0.21 0 -0.24 0.11 0.45zm18.24 37.2l-18.24 -37.2 1.81 -0.89 18.25 37.2 0.11 0.44 -1.93 0.45zm1.82 -0.89l0.11 0.21 0 0.23 -0.11 -0.44zm-1.92 18.82l0 -18.38 2.03 0 0 18.38 -2.03 0zm1.01 -0.77l6.13 -8.68 0 9.45 -6.12 9.44 -6.12 -9.44 0 -9.45 6.11 8.68z"/>
  </g>
  <path class="fil76" d="M1239.27 2.99c0.97,-0.01 1.94,0.28 2.73,0.78 0.83,0.52 1.49,1.27 1.76,2.14 0.28,0.91 0.09,1.79 -0.48,2.44 -0.57,0.68 -1.54,1.1 -2.72,1.09 -1.16,-0.01 -2.28,-0.44 -3.11,-1.12 -0.79,-0.64 -1.31,-1.49 -1.39,-2.39 -0.08,-0.85 0.25,-1.59 0.84,-2.1 0.57,-0.51 1.41,-0.82 2.37,-0.84zm1.84 1.68c-0.45,-0.31 -1.02,-0.49 -1.6,-0.48 -0.58,0 -1.06,0.19 -1.39,0.5 -0.33,0.31 -0.51,0.75 -0.44,1.24 0.07,0.5 0.38,0.98 0.84,1.33 0.47,0.35 1.09,0.58 1.72,0.58 0.64,0.01 1.18,-0.22 1.51,-0.58 0.33,-0.35 0.45,-0.83 0.32,-1.35 -0.13,-0.5 -0.49,-0.94 -0.96,-1.24z"/>
  <path class="fil76" d="M1258.62 2.99c0.97,-0.01 1.94,0.28 2.74,0.78 0.82,0.52 1.48,1.27 1.75,2.14 0.29,0.91 0.1,1.79 -0.47,2.44 -0.58,0.68 -1.55,1.1 -2.72,1.09 -1.17,-0.01 -2.29,-0.44 -3.11,-1.12 -0.8,-0.64 -1.32,-1.49 -1.4,-2.39 -0.08,-0.85 0.26,-1.59 0.84,-2.1 0.58,-0.51 1.41,-0.82 2.37,-0.84zm1.84 1.68c-0.45,-0.31 -1.02,-0.49 -1.6,-0.48 -0.57,0 -1.06,0.19 -1.39,0.5 -0.33,0.31 -0.51,0.75 -0.44,1.24 0.07,0.5 0.39,0.98 0.84,1.33 0.47,0.35 1.09,0.58 1.72,0.58 0.65,0.01 1.18,-0.22 1.51,-0.58 0.33,-0.35 0.46,-0.83 0.32,-1.35 -0.13,-0.5 -0.49,-0.94 -0.96,-1.24z"/>
 </g>
</svg>
