<?xml version="1.0" encoding="UTF-8"?>
<!DOCTYPE svg PUBLIC "-//W3C//DTD SVG 1.1//EN" "http://www.w3.org/Graphics/SVG/1.1/DTD/svg11.dtd">
<!-- Creator: CorelDRAW 2021 (64 Bit) -->
<svg xmlns="http://www.w3.org/2000/svg" xml:space="preserve" width="1500px" height="216px" version="1.1" style="shape-rendering:geometricPrecision; text-rendering:geometricPrecision; image-rendering:optimizeQuality; fill-rule:evenodd; clip-rule:evenodd"
viewBox="0 0 1458.78 210.54"
 xmlns:xlink="http://www.w3.org/1999/xlink"
 xmlns:xodm="http://www.corel.com/coreldraw/odm/2003">
 <defs>
  <style type="text/css">
   <![CDATA[
    .str0 {stroke:#B3B3B3;stroke-width:0.88;stroke-miterlimit:22.9256}
    .fil112 {fill:none}
    .fil68 {fill:#311281}
    .fil67 {fill:#311382}
    .fil66 {fill:#311384}
    .fil65 {fill:#311486}
    .fil64 {fill:#311587}
    .fil63 {fill:#311589}
    .fil62 {fill:#31168B}
    .fil61 {fill:#31178C}
    .fil60 {fill:#31178E}
    .fil59 {fill:#311890}
    .fil58 {fill:#311991}
    .fil57 {fill:#311993}
    .fil56 {fill:#311A95}
    .fil55 {fill:#311B97}
    .fil54 {fill:#311B98}
    .fil53 {fill:#311C9A}
    .fil52 {fill:#311D9C}
    .fil51 {fill:#311D9D}
    .fil50 {fill:#311E9F}
    .fil49 {fill:#311EA0}
    .fil48 {fill:#311FA2}
    .fil47 {fill:#311FA3}
    .fil46 {fill:#3120A4}
    .fil45 {fill:#3121A6}
    .fil44 {fill:#3121A7}
    .fil43 {fill:#3121A8}
    .fil42 {fill:#3122A9}
    .fil41 {fill:#3122AA}
    .fil40 {fill:#3122AB}
    .fil39 {fill:#3123AB}
    .fil38 {fill:#3123AC}
    .fil110 {fill:#320053}
    .fil109 {fill:#320054}
    .fil108 {fill:#320154}
    .fil107 {fill:#320155}
    .fil106 {fill:#320156}
    .fil105 {fill:#320157}
    .fil104 {fill:#320257}
    .fil103 {fill:#320258}
    .fil102 {fill:#320259}
    .fil101 {fill:#32035A}
    .fil100 {fill:#32035B}
    .fil99 {fill:#32035C}
    .fil98 {fill:#32045C}
    .fil97 {fill:#32045D}
    .fil96 {fill:#32045E}
    .fil95 {fill:#32055F}
    .fil94 {fill:#320560}
    .fil93 {fill:#320661}
    .fil92 {fill:#320662}
    .fil91 {fill:#320663}
    .fil90 {fill:#320764}
    .fil89 {fill:#320765}
    .fil88 {fill:#320766}
    .fil87 {fill:#320867}
    .fil86 {fill:#320868}
    .fil85 {fill:#320969}
    .fil84 {fill:#32096A}
    .fil83 {fill:#320A6B}
    .fil82 {fill:#320A6D}
    .fil81 {fill:#320B6E}
    .fil80 {fill:#320B6F}
    .fil79 {fill:#320C71}
    .fil78 {fill:#320C72}
    .fil77 {fill:#320D73}
    .fil76 {fill:#320D75}
    .fil75 {fill:#320E76}
    .fil74 {fill:#320E77}
    .fil73 {fill:#320F79}
    .fil72 {fill:#32107A}
    .fil71 {fill:#32107C}
    .fil70 {fill:#32117E}
    .fil69 {fill:#32117F}
    .fil0 {fill:#440572}
    .fil1 {fill:#440673}
    .fil2 {fill:#440774}
    .fil3 {fill:#450876}
    .fil4 {fill:#450877}
    .fil5 {fill:#450978}
    .fil6 {fill:#460A79}
    .fil7 {fill:#460B7A}
    .fil8 {fill:#460C7C}
    .fil9 {fill:#470D7D}
    .fil10 {fill:#470E7E}
    .fil11 {fill:#470F80}
    .fil12 {fill:#481081}
    .fil13 {fill:#481183}
    .fil14 {fill:#481284}
    .fil15 {fill:#491386}
    .fil16 {fill:#491587}
    .fil17 {fill:#4A1689}
    .fil18 {fill:#4A178B}
    .fil19 {fill:#4A188C}
    .fil20 {fill:#4B198E}
    .fil21 {fill:#4B1B90}
    .fil37 {fill:#4C0975}
    .fil22 {fill:#4C1C91}
    .fil23 {fill:#4C1D93}
    .fil24 {fill:#4D1E95}
    .fil25 {fill:#4D2096}
    .fil26 {fill:#4E2198}
    .fil27 {fill:#4E229A}
    .fil28 {fill:#4E249C}
    .fil29 {fill:#4F259E}
    .fil30 {fill:#4F269F}
    .fil31 {fill:#5027A1}
    .fil32 {fill:#5029A3}
    .fil33 {fill:#512AA5}
    .fil34 {fill:#512BA7}
    .fil35 {fill:#522DA9}
    .fil36 {fill:#522EAA}
    .fil111 {fill:white;fill-rule:nonzero}
   ]]>
  </style>
    <clipPath id="id0">
     <path d="M0 210.54l1458.78 0 0 -148.98 -1458.78 0 0 148.98z"/>
    </clipPath>
    <clipPath id="id1">
     <path d="M0 45.38l1458.78 0 0 16.18 -1458.78 0 0 -16.18z"/>
    </clipPath>
    <clipPath id="id2">
     <path d="M0 0.44l1458.78 0 0 16.17 -1458.78 0 0 -16.17z"/>
    </clipPath>
 </defs>
 <g id="Camada_x0020_1">
  <metadata id="CorelCorpID_0Corel-Layer"/>
  <g>
   <g style="clip-path:url(#id0)">
    <polygon class="fil0" points="1458.78,61.55 1458.78,63.74 0,63.75 0,61.56 "/>
    <polygon id="_1" class="fil0" points="1458.78,61.62 1458.78,67.99 0,68 0,61.63 "/>
    <polygon id="_2" class="fil1" points="1458.78,65.87 1458.78,72.24 0,72.24 0,65.87 "/>
    <polygon id="_3" class="fil2" points="1458.78,70.11 1458.78,76.49 0,76.49 0,70.12 "/>
    <polygon id="_4" class="fil3" points="1458.78,74.36 1458.78,80.73 0,80.74 0,74.37 "/>
    <polygon id="_5" class="fil4" points="1458.78,78.61 1458.78,84.98 0,84.99 0,78.62 "/>
    <polygon id="_6" class="fil5" points="1458.78,82.86 1458.78,89.23 0,89.23 0,82.86 "/>
    <polygon id="_7" class="fil6" points="1458.78,87.1 1458.78,93.48 0,93.48 0,87.11 "/>
    <polygon id="_8" class="fil7" points="1458.78,91.35 1458.78,97.72 0,97.73 0,91.36 "/>
    <polygon id="_9" class="fil8" points="1458.78,95.6 1458.78,101.97 0,101.98 0,95.61 "/>
    <polygon id="_10" class="fil9" points="1458.78,99.85 1458.78,106.22 0,106.22 0,99.85 "/>
    <polygon id="_11" class="fil10" points="1458.78,104.09 1458.78,110.47 0,110.47 0,104.1 "/>
    <polygon id="_12" class="fil11" points="1458.78,108.34 1458.78,114.71 0,114.72 0,108.35 "/>
    <polygon id="_13" class="fil12" points="1458.78,112.59 1458.78,118.96 0,118.97 0,112.6 "/>
    <polygon id="_14" class="fil13" points="1458.78,116.84 1458.78,123.21 0,123.21 0,116.84 "/>
    <polygon id="_15" class="fil14" points="1458.78,121.08 1458.78,127.46 0,127.46 0,121.09 "/>
    <polygon id="_16" class="fil15" points="1458.78,125.33 1458.78,131.7 0,131.71 0,125.34 "/>
    <polygon id="_17" class="fil16" points="1458.78,129.58 1458.78,135.95 0,135.96 0,129.59 "/>
    <polygon id="_18" class="fil17" points="1458.78,133.83 1458.78,140.2 0,140.2 0,133.83 "/>
    <polygon id="_19" class="fil18" points="1458.78,138.07 1458.78,144.45 0,144.45 0,138.08 "/>
    <polygon id="_20" class="fil19" points="1458.78,142.32 1458.78,148.69 0,148.7 0,142.33 "/>
    <polygon id="_21" class="fil20" points="1458.78,146.57 1458.78,152.94 0,152.95 0,146.58 "/>
    <polygon id="_22" class="fil21" points="1458.78,150.82 1458.78,157.19 0,157.19 0,150.82 "/>
    <polygon id="_23" class="fil22" points="1458.78,155.06 1458.78,161.44 0,161.44 0,155.07 "/>
    <polygon id="_24" class="fil23" points="1458.78,159.31 1458.78,165.68 0,165.69 0,159.32 "/>
    <polygon id="_25" class="fil24" points="1458.78,163.56 1458.78,169.93 0,169.94 0,163.57 "/>
    <polygon id="_26" class="fil25" points="1458.78,167.81 1458.78,174.18 0,174.18 0,167.81 "/>
    <polygon id="_27" class="fil26" points="1458.78,172.05 1458.78,178.43 0,178.43 0,172.06 "/>
    <polygon id="_28" class="fil27" points="1458.78,176.3 1458.78,182.67 0,182.68 0,176.31 "/>
    <polygon id="_29" class="fil28" points="1458.78,180.55 1458.78,186.92 0,186.93 0,180.56 "/>
    <polygon id="_30" class="fil29" points="1458.78,184.8 1458.78,191.17 0,191.17 0,184.8 "/>
    <polygon id="_31" class="fil30" points="1458.78,189.04 1458.78,195.42 0,195.42 0,189.05 "/>
    <polygon id="_32" class="fil31" points="1458.78,193.29 1458.78,199.66 0,199.67 0,193.3 "/>
    <polygon id="_33" class="fil32" points="1458.78,197.54 1458.78,203.91 0,203.92 0,197.55 "/>
    <polygon id="_34" class="fil33" points="1458.78,201.79 1458.78,208.16 0,208.16 0,201.79 "/>
    <polygon id="_35" class="fil34" points="1458.78,206.03 1458.78,212.41 0,212.41 0,206.04 "/>
    <polygon id="_36" class="fil35" points="1458.78,210.28 1458.78,216.65 0,216.66 0,210.29 "/>
    <polygon id="_37" class="fil36" points="1458.78,214.53 1458.78,210.54 0,210.55 0,214.54 "/>
   </g>
  </g>
  <rect class="fil37" y="16.61" width="1458.78" height="28.77"/>
  <g>
   <g style="clip-path:url(#id1)">
    <path class="fil38" d="M659.27 64.28c-11.49,-0.21 -9,-0.51 5.56,-0.67 14.55,-0.16 35.67,-0.13 47.15,0.08 11.49,0.2 9,0.51 -5.56,0.67 -14.56,0.16 -35.67,0.13 -47.15,-0.08z"/>
    <path id="_1_0" class="fil38" d="M668.05 64.18c7.66,0.14 21.73,0.16 31.44,0.05 9.7,-0.11 11.36,-0.31 3.71,-0.44 -7.66,-0.14 -21.74,-0.17 -31.44,-0.06 -9.71,0.11 -11.37,0.31 -3.71,0.45zm-26.36 0.3c-19.14,-0.35 -14.99,-0.85 9.27,-1.12 24.26,-0.27 59.45,-0.21 78.6,0.13 19.14,0.35 14.99,0.85 -9.27,1.12 -24.26,0.27 -59.45,0.21 -78.6,-0.13z"/>
    <path id="_2_1" class="fil38" d="M650.48 64.38c15.32,0.27 43.47,0.32 62.88,0.1 19.41,-0.21 22.72,-0.62 7.41,-0.89 -15.32,-0.28 -43.47,-0.33 -62.88,-0.11 -19.41,0.22 -22.73,0.62 -7.41,0.9zm-26.36 0.29c-26.8,-0.48 -20.99,-1.18 12.97,-1.56 33.97,-0.38 83.23,-0.3 110.04,0.18 26.8,0.49 20.99,1.19 -12.98,1.57 -33.96,0.38 -83.23,0.3 -110.03,-0.19z"/>
    <path id="_3_2" class="fil39" d="M632.91 64.58c22.97,0.41 65.2,0.48 94.31,0.15 29.12,-0.32 34.09,-0.92 11.12,-1.34 -22.97,-0.41 -65.2,-0.48 -94.31,-0.16 -29.12,0.33 -34.1,0.93 -11.12,1.35zm-26.36 0.29c-34.46,-0.62 -26.99,-1.52 16.68,-2.01 43.67,-0.49 107.01,-0.39 141.47,0.24 34.46,0.62 26.99,1.52 -16.68,2.01 -43.67,0.49 -107.01,0.38 -141.47,-0.24z"/>
    <path id="_4_3" class="fil40" d="M615.34 64.77c30.63,0.55 86.93,0.65 125.75,0.21 38.82,-0.43 45.46,-1.23 14.82,-1.79 -30.63,-0.55 -86.93,-0.64 -125.75,-0.21 -38.82,0.44 -45.46,1.24 -14.82,1.79zm-26.36 0.3c-42.12,-0.76 -32.99,-1.86 20.38,-2.46 53.38,-0.6 130.79,-0.47 172.91,0.29 42.12,0.76 32.99,1.86 -20.39,2.46 -53.37,0.6 -130.79,0.47 -172.9,-0.29z"/>
    <path id="_5_4" class="fil41" d="M597.76 64.97c38.29,0.69 108.67,0.81 157.19,0.26 48.53,-0.54 56.83,-1.54 18.54,-2.23 -38.29,-0.69 -108.67,-0.81 -157.19,-0.27 -48.53,0.55 -56.83,1.55 -18.54,2.24zm-26.36 0.3c-49.77,-0.9 -38.98,-2.2 24.1,-2.91 63.08,-0.71 154.57,-0.56 204.34,0.34 49.78,0.9 38.99,2.2 -24.09,2.91 -63.08,0.71 -154.57,0.55 -204.35,-0.34z"/>
    <path id="_6_5" class="fil42" d="M580.19 65.17c45.95,0.83 130.4,0.97 188.63,0.31 58.23,-0.65 68.19,-1.85 22.24,-2.68 -45.95,-0.83 -130.4,-0.97 -188.63,-0.32 -58.23,0.66 -68.19,1.86 -22.24,2.69zm-26.36 0.29c-57.43,-1.03 -44.99,-2.54 27.8,-3.35 72.79,-0.82 178.35,-0.64 235.79,0.39 57.43,1.04 44.98,2.54 -27.8,3.36 -72.79,0.82 -178.35,0.64 -235.79,-0.4z"/>
    <path id="_7_6" class="fil43" d="M562.62 65.36c53.6,0.97 152.13,1.14 220.06,0.37 67.94,-0.76 79.55,-2.16 25.95,-3.13 -53.6,-0.96 -152.13,-1.13 -220.06,-0.37 -67.94,0.77 -79.56,2.17 -25.95,3.13zm-26.36 0.3c-65.09,-1.17 -50.99,-2.88 31.51,-3.8 82.49,-0.93 202.13,-0.73 267.22,0.45 65.09,1.17 50.98,2.87 -31.51,3.8 -82.49,0.92 -202.13,0.72 -267.22,-0.45z"/>
    <path id="_8_7" class="fil44" d="M545.05 65.56c61.26,1.11 173.86,1.3 251.5,0.42 77.64,-0.87 90.91,-2.47 29.65,-3.58 -61.26,-1.1 -173.86,-1.29 -251.5,-0.42 -77.64,0.87 -90.92,2.48 -29.65,3.58zm-26.36 0.3c-72.75,-1.31 -56.99,-3.22 35.21,-4.25 92.2,-1.04 225.91,-0.81 298.66,0.5 72.75,1.31 56.98,3.21 -35.21,4.25 -92.2,1.03 -225.91,0.81 -298.66,-0.5z"/>
    <path id="_9_8" class="fil45" d="M527.47 65.76c68.92,1.24 195.6,1.45 282.95,0.47 87.34,-0.98 102.27,-2.78 33.36,-4.02 -68.92,-1.24 -195.6,-1.46 -282.95,-0.48 -87.34,0.98 -102.28,2.79 -33.36,4.03zm-26.35 0.29c-80.41,-1.44 -62.99,-3.55 38.92,-4.69 101.9,-1.15 249.69,-0.9 330.09,0.55 80.41,1.45 62.99,3.55 -38.92,4.7 -101.9,1.14 -249.69,0.89 -330.09,-0.56z"/>
    <path id="_10_9" class="fil46" d="M509.9 65.96c76.58,1.38 217.33,1.61 314.38,0.52 97.05,-1.09 113.64,-3.09 37.07,-4.47 -76.58,-1.38 -217.33,-1.62 -314.38,-0.53 -97.05,1.09 -113.65,3.1 -37.07,4.48zm-26.36 0.29c-88.06,-1.59 -68.98,-3.89 42.63,-5.14 111.61,-1.26 273.47,-0.98 361.54,0.6 88.06,1.59 68.98,3.9 -42.63,5.15 -111.61,1.25 -273.47,0.98 -361.54,-0.61z"/>
    <path id="_11_10" class="fil47" d="M492.33 66.15c84.23,1.52 239.06,1.78 345.82,0.58 106.75,-1.2 125,-3.4 40.77,-4.92 -84.24,-1.52 -239.06,-1.78 -345.82,-0.58 -106.75,1.2 -125.01,3.4 -40.77,4.92zm-26.36 0.3c-95.72,-1.73 -74.98,-4.23 46.33,-5.59 121.32,-1.36 297.26,-1.07 392.98,0.66 95.72,1.72 74.98,4.23 -46.33,5.59 -121.32,1.36 -297.26,1.07 -392.98,-0.66z"/>
    <path id="_12_11" class="fil48" d="M474.76 66.35c91.89,1.66 260.79,1.94 377.25,0.63 116.46,-1.3 136.38,-3.71 44.48,-5.36 -91.89,-1.66 -260.79,-1.94 -377.25,-0.64 -116.46,1.31 -136.38,3.71 -44.48,5.37zm-26.36 0.3c-103.38,-1.87 -80.98,-4.57 50.04,-6.04 131.01,-1.47 321.03,-1.15 424.41,0.71 103.38,1.86 80.98,4.57 -50.04,6.04 -131.02,1.47 -321.03,1.15 -424.41,-0.71z"/>
    <path id="_13_12" class="fil49" d="M457.18 66.55c99.56,1.79 282.53,2.1 408.7,0.68 126.16,-1.41 147.74,-4.02 48.18,-5.81 -99.55,-1.8 -282.53,-2.1 -408.69,-0.69 -126.16,1.42 -147.74,4.02 -48.19,5.82zm-26.35 0.29c-111.04,-2 -86.98,-4.9 53.74,-6.48 140.72,-1.58 344.81,-1.24 455.85,0.76 111.04,2 86.98,4.91 -53.74,6.49 -140.73,1.58 -344.82,1.24 -455.85,-0.77z"/>
    <path id="_14_13" class="fil50" d="M439.61 66.75c107.21,1.93 304.26,2.26 440.13,0.73 135.87,-1.52 159.11,-4.33 51.9,-6.26 -107.21,-1.93 -304.27,-2.26 -440.13,-0.74 -135.87,1.53 -159.11,4.33 -51.9,6.27zm-26.36 0.29c-118.69,-2.14 -92.97,-5.24 57.46,-6.93 150.42,-1.69 368.59,-1.32 487.28,0.82 118.7,2.14 92.98,5.24 -57.45,6.93 -150.42,1.69 -368.59,1.32 -487.29,-0.82z"/>
    <path id="_15_14" class="fil51" d="M422.04 66.94c114.87,2.07 326,2.43 471.57,0.79 145.57,-1.63 170.47,-4.64 55.6,-6.71 -114.87,-2.07 -326,-2.42 -471.57,-0.79 -145.57,1.64 -170.47,4.64 -55.6,6.71zm-26.36 0.3c-126.35,-2.28 -98.97,-5.58 61.16,-7.38 160.13,-1.8 392.37,-1.41 518.73,0.87 126.35,2.28 98.97,5.58 -61.16,7.38 -160.13,1.8 -392.38,1.41 -518.73,-0.87z"/>
    <path id="_16_15" class="fil52" d="M404.47 67.14c122.52,2.21 347.73,2.59 503,0.84 155.28,-1.74 181.84,-4.94 59.31,-7.15 -122.52,-2.21 -347.73,-2.59 -503.01,-0.85 -155.27,1.75 -181.83,4.95 -59.3,7.16zm-26.36 0.3c-134.01,-2.42 -104.97,-5.93 64.87,-7.83 169.83,-1.91 416.15,-1.5 550.16,0.92 134.01,2.42 104.97,5.92 -64.87,7.83 -169.83,1.91 -416.15,1.49 -550.16,-0.92z"/>
    <path id="_17_16" class="fil53" d="M386.9 67.34c130.18,2.34 369.46,2.75 534.44,0.89 164.98,-1.85 193.2,-5.25 63.01,-7.6 -130.18,-2.35 -369.46,-2.75 -534.44,-0.9 -164.98,1.86 -193.2,5.26 -63.01,7.61zm-26.36 0.29c-141.67,-2.55 -110.97,-6.26 68.57,-8.27 179.54,-2.02 439.93,-1.58 581.6,0.97 141.67,2.56 110.97,6.26 -68.57,8.28 -179.54,2.01 -439.93,1.58 -581.6,-0.98z"/>
    <path id="_18_17" class="fil54" d="M369.32 67.53c137.84,2.49 391.2,2.92 565.89,0.95 174.68,-1.96 204.56,-5.56 66.72,-8.05 -137.84,-2.48 -391.2,-2.91 -565.89,-0.95 -174.68,1.96 -204.56,5.57 -66.72,8.05zm-26.36 0.3c-149.32,-2.69 -116.96,-6.6 72.28,-8.72 189.25,-2.13 463.72,-1.67 613.04,1.03 149.33,2.69 116.97,6.59 -72.28,8.72 -189.24,2.12 -463.71,1.66 -613.04,-1.03z"/>
    <path id="_19_18" class="fil55" d="M351.75 67.73c145.5,2.63 412.93,3.07 597.32,1 184.39,-2.07 215.93,-5.87 70.43,-8.5 -145.5,-2.62 -412.93,-3.07 -597.32,-1 -184.4,2.07 -215.93,5.88 -70.43,8.5zm-26.36 0.3c-156.98,-2.83 -122.96,-6.94 75.99,-9.17 198.95,-2.24 487.49,-1.75 644.48,1.08 156.98,2.83 122.96,6.94 -75.99,9.17 -198.95,2.23 -487.49,1.75 -644.48,-1.08z"/>
    <path id="_20_19" class="fil56" d="M334.18 67.93c153.15,2.76 434.66,3.23 628.76,1.05 194.1,-2.17 227.29,-6.18 74.13,-8.94 -153.16,-2.76 -434.66,-3.24 -628.76,-1.06 -194.1,2.18 -227.29,6.19 -74.13,8.95zm-26.36 0.29c-164.64,-2.96 -128.96,-7.27 79.69,-9.61 208.66,-2.34 511.28,-1.84 675.92,1.13 164.64,2.97 128.96,7.28 -79.69,9.62 -208.66,2.34 -511.28,1.83 -675.92,-1.14z"/>
    <path id="_21_20" class="fil57" d="M316.61 68.13c160.81,2.9 456.39,3.39 660.19,1.1 203.81,-2.28 238.66,-6.49 77.84,-9.39 -160.81,-2.9 -456.39,-3.4 -660.19,-1.11 -203.81,2.29 -238.66,6.5 -77.84,9.4zm-26.36 0.29c-172.3,-3.1 -134.96,-7.61 83.4,-10.06 218.36,-2.45 535.05,-1.92 707.35,1.18 172.3,3.11 134.96,7.62 -83.4,10.07 -218.36,2.45 -535.05,1.92 -707.35,-1.19z"/>
    <path id="_22_21" class="fil58" d="M299.03 68.32c168.48,3.04 478.13,3.56 691.64,1.16 213.51,-2.39 250.02,-6.8 81.54,-9.84 -168.47,-3.03 -478.12,-3.55 -691.63,-1.16 -213.51,2.4 -250.02,6.81 -81.55,9.84zm-26.35 0.3c-179.96,-3.25 -140.96,-7.95 87.1,-10.51 228.07,-2.56 558.83,-2.01 738.79,1.24 179.96,3.24 140.96,7.95 -87.1,10.51 -228.07,2.56 -558.84,2 -738.79,-1.24z"/>
    <path id="_23_22" class="fil59" d="M281.46 68.52c176.13,3.18 499.86,3.72 723.07,1.21 223.22,-2.5 261.39,-7.11 85.26,-10.28 -176.13,-3.18 -499.86,-3.72 -723.08,-1.22 -223.21,2.51 -261.38,7.12 -85.25,10.29zm-26.36 0.3c-187.61,-3.39 -146.95,-8.29 90.82,-10.96 237.77,-2.67 582.61,-2.09 770.23,1.29 187.61,3.38 146.95,8.29 -90.82,10.96 -237.77,2.67 -582.61,2.09 -770.23,-1.29z"/>
    <path id="_24_23" class="fil60" d="M263.89 68.72c183.79,3.31 521.59,3.88 754.51,1.26 232.92,-2.61 272.75,-7.42 88.96,-10.73 -183.79,-3.32 -521.59,-3.88 -754.51,-1.27 -232.92,2.62 -272.75,7.42 -88.96,10.74zm-26.36 0.29c-195.27,-3.52 -152.95,-8.62 94.52,-11.4 247.48,-2.78 606.39,-2.18 801.67,1.34 195.27,3.52 152.95,8.63 -94.52,11.41 -247.48,2.78 -606.4,2.18 -801.67,-1.35z"/>
    <path id="_25_24" class="fil61" d="M246.32 68.92c191.44,3.45 543.32,4.04 785.94,1.31 242.63,-2.72 284.12,-7.73 92.67,-11.18 -191.44,-3.45 -543.32,-4.04 -785.95,-1.32 -242.62,2.73 -284.11,7.73 -92.66,11.19zm-26.36 0.29c-202.93,-3.66 -158.95,-8.96 98.23,-11.85 257.18,-2.89 630.17,-2.26 833.1,1.4 202.93,3.65 158.95,8.96 -98.23,11.85 -257.18,2.89 -630.17,2.26 -833.1,-1.4z"/>
    <path id="_26_25" class="fil62" d="M228.75 69.11c199.1,3.59 565.05,4.21 817.38,1.37 252.33,-2.83 295.48,-8.04 96.37,-11.63 -199.1,-3.59 -565.05,-4.2 -817.38,-1.37 -252.33,2.84 -295.48,8.04 -96.37,11.63zm-26.36 0.3c-210.59,-3.8 -164.96,-9.31 101.93,-12.3 266.88,-3 653.95,-2.35 864.54,1.45 210.59,3.8 164.95,9.3 -101.93,12.3 -266.89,3 -653.95,2.35 -864.54,-1.45z"/>
    <path id="_27_26" class="fil63" d="M211.17 69.31c206.76,3.73 586.79,4.37 848.83,1.42 262.03,-2.94 306.84,-8.34 100.08,-12.07 -206.76,-3.73 -586.8,-4.37 -848.83,-1.43 -262.03,2.95 -306.84,8.35 -100.08,12.08zm-26.36 0.3c-218.24,-3.94 -170.95,-9.65 105.64,-12.75 276.59,-3.11 677.74,-2.44 895.98,1.5 218.25,3.94 170.95,9.64 -105.63,12.75 -276.59,3.1 -677.74,2.43 -895.99,-1.5z"/>
    <path id="_28_27" class="fil64" d="M193.6 69.51c214.42,3.86 608.52,4.52 880.26,1.47 271.74,-3.05 318.21,-8.65 103.79,-12.52 -214.42,-3.87 -608.53,-4.53 -880.26,-1.48 -271.74,3.05 -318.21,8.66 -103.79,12.53zm-26.36 0.29c-225.9,-4.07 -176.95,-9.98 109.35,-13.19 286.29,-3.22 701.51,-2.52 927.42,1.55 225.9,4.08 176.94,9.98 -109.35,13.2 -286.29,3.21 -701.51,2.52 -927.42,-1.56z"/>
    <path id="_29_28" class="fil65" d="M176.03 69.7c222.07,4.01 630.26,4.69 911.7,1.53 281.44,-3.16 329.57,-8.96 107.49,-12.97 -222.07,-4 -630.26,-4.69 -911.7,-1.53 -281.44,3.16 -329.57,8.97 -107.49,12.97zm-26.36 0.3c-233.56,-4.21 -182.95,-10.32 113.05,-13.64 296,-3.33 725.3,-2.61 958.86,1.61 233.56,4.21 182.95,10.32 -113.05,13.64 -296,3.32 -725.3,2.6 -958.86,-1.61z"/>
    <path id="_30_29" class="fil66" d="M158.46 69.9c229.73,4.14 651.99,4.85 943.13,1.58 291.15,-3.26 340.94,-9.27 111.2,-13.42 -229.73,-4.14 -651.99,-4.85 -943.13,-1.58 -291.15,3.27 -340.94,9.28 -111.2,13.42zm-26.36 0.3c-241.22,-4.35 -188.95,-10.66 116.76,-14.09 305.7,-3.43 749.07,-2.69 990.29,1.66 241.22,4.35 188.95,10.66 -116.76,14.09 -305.7,3.43 -749.07,2.69 -990.29,-1.66z"/>
    <path id="_31_30" class="fil67" d="M140.88 70.1c237.39,4.28 673.73,5.01 974.58,1.63 300.85,-3.37 352.3,-9.58 114.91,-13.86 -237.4,-4.28 -673.73,-5.02 -974.58,-1.64 -300.85,3.38 -352.3,9.59 -114.91,13.87zm-26.35 0.3c-248.88,-4.49 -194.95,-11 120.46,-14.54 315.41,-3.54 772.86,-2.78 1021.73,1.71 248.88,4.49 194.95,11 -120.46,14.54 -315.41,3.54 -772.86,2.77 -1021.73,-1.71z"/>
    <path id="_32_31" class="fil68" d="M123.31 70.3c245.05,4.42 695.46,5.17 1006.02,1.68 310.55,-3.48 363.66,-9.89 118.61,-14.31 -245.05,-4.42 -695.46,-5.17 -1006.02,-1.69 -310.55,3.49 -363.66,9.9 -118.61,14.32zm-26.36 0.29c-256.53,-4.62 -200.94,-11.33 124.18,-14.98 325.11,-3.65 796.63,-2.86 1053.17,1.76 256.53,4.63 200.94,11.34 -124.18,14.99 -325.11,3.65 -796.63,2.86 -1053.17,-1.77z"/>
    <path id="_33_32" class="fil69" d="M105.74 70.49c252.71,4.56 717.19,5.34 1037.45,1.74 320.26,-3.59 375.03,-10.2 122.32,-14.76 -252.71,-4.55 -717.19,-5.33 -1037.45,-1.74 -320.26,3.6 -375.03,10.21 -122.32,14.76zm-26.36 0.3c-264.19,-4.76 -206.94,-11.67 127.88,-15.43 334.82,-3.76 820.41,-2.95 1084.61,1.82 264.19,4.76 206.94,11.67 -127.88,15.43 -334.82,3.76 -820.42,2.94 -1084.61,-1.82z"/>
    <path id="_34_33" class="fil70" d="M88.17 70.69c260.36,4.7 738.92,5.5 1068.89,1.79 329.96,-3.7 386.39,-10.51 126.02,-15.2 -260.36,-4.7 -738.92,-5.5 -1068.89,-1.8 -329.96,3.71 -386.39,10.52 -126.02,15.21zm-26.36 0.3c-271.85,-4.91 -212.94,-12.01 131.58,-15.88 344.53,-3.87 844.2,-3.03 1116.05,1.87 271.85,4.9 212.94,12.01 -131.59,15.88 -344.52,3.87 -844.19,3.03 -1116.04,-1.87z"/>
    <path id="_35_34" class="fil71" d="M70.59 70.89c268.03,4.83 760.66,5.66 1100.33,1.84 339.67,-3.81 397.76,-10.82 129.73,-15.65 -268.02,-4.83 -760.65,-5.66 -1100.32,-1.85 -339.67,3.82 -397.76,10.82 -129.74,15.66zm-26.35 0.29c-279.51,-5.04 -218.94,-12.35 135.29,-16.32 354.23,-3.98 867.97,-3.12 1147.48,1.92 279.51,5.04 218.94,12.35 -135.29,16.33 -354.23,3.98 -867.98,3.11 -1147.48,-1.93z"/>
    <path id="_36_35" class="fil72" d="M53.02 71.09c275.68,4.97 782.39,5.82 1131.77,1.89 349.37,-3.92 409.12,-11.13 133.44,-16.1 -275.68,-4.97 -782.39,-5.82 -1131.77,-1.9 -349.38,3.92 -409.12,11.13 -133.44,16.11zm-26.36 0.29c-287.16,-5.18 -224.93,-12.69 139,-16.77 363.94,-4.09 891.76,-3.2 1178.93,1.98 287.16,5.17 224.93,12.68 -139,16.77 -363.94,4.08 -891.76,3.2 -1178.93,-1.98z"/>
    <path id="_37_36" class="fil73" d="M35.45 71.28c283.34,5.11 804.12,5.99 1163.2,1.95 359.08,-4.03 420.49,-11.44 137.15,-16.55 -283.34,-5.1 -804.12,-5.98 -1163.2,-1.95 -359.09,4.03 -420.49,11.44 -137.15,16.55zm-26.36 0.3c-294.82,-5.32 -230.93,-13.03 142.71,-17.22 373.64,-4.2 915.53,-3.29 1210.36,2.03 294.82,5.31 230.93,13.02 -142.71,17.22 -373.64,4.19 -915.53,3.28 -1210.36,-2.03z"/>
    <path id="_38" class="fil74" d="M17.88 71.48c290.99,5.25 825.85,6.15 1194.64,2 368.78,-4.14 431.85,-11.75 140.85,-16.99 -290.99,-5.25 -825.85,-6.15 -1194.64,-2.01 -368.79,4.14 -431.85,11.75 -140.85,17zm-26.36 0.3c-302.48,-5.46 -236.93,-13.37 146.41,-17.67 383.35,-4.31 939.32,-3.37 1241.8,2.08 302.48,5.46 236.93,13.37 -146.41,17.67 -383.35,4.3 -939.32,3.37 -1241.8,-2.08z"/>
    <path id="_39" class="fil75" d="M0.31 71.68c298.65,5.38 847.58,6.3 1226.07,2.05 378.5,-4.25 443.22,-12.06 144.56,-17.44 -298.65,-5.39 -847.58,-6.31 -1226.08,-2.06 -378.49,4.25 -443.21,12.06 -144.55,17.45zm-26.36 0.29c-310.14,-5.59 -242.93,-13.7 150.12,-18.11 393.05,-4.42 963.09,-3.46 1273.23,2.13 310.14,5.6 242.93,13.71 -150.12,18.12 -393.05,4.41 -963.09,3.46 -1273.23,-2.14z"/>
    <path id="_40" class="fil76" d="M-17.27 71.88c306.31,5.52 869.32,6.46 1257.52,2.1 388.2,-4.35 454.58,-12.36 148.27,-17.89 -306.32,-5.52 -869.32,-6.47 -1257.52,-2.11 -388.2,4.36 -454.58,12.37 -148.27,17.9zm-26.36 0.29c-317.79,-5.73 -248.92,-14.04 153.83,-18.56 402.75,-4.52 986.88,-3.54 1304.67,2.19 317.8,5.73 248.93,14.04 -153.82,18.56 -402.75,4.52 -986.88,3.54 -1304.68,-2.19z"/>
    <path id="_41" class="fil77" d="M-34.84 72.07c313.97,5.66 891.05,6.63 1288.95,2.16 397.91,-4.46 465.95,-12.67 151.98,-18.33 -313.97,-5.67 -891.06,-6.63 -1288.96,-2.17 -397.9,4.47 -465.94,12.68 -151.97,18.34zm-26.36 0.3c-325.45,-5.87 -254.92,-14.38 157.54,-19.01 412.45,-4.63 1010.65,-3.63 1336.11,2.24 325.45,5.87 254.92,14.38 -157.54,19.01 -412.45,4.63 -1010.65,3.63 -1336.11,-2.24z"/>
    <path id="_42" class="fil78" d="M-52.41 72.27c321.63,5.8 912.79,6.79 1320.39,2.21 407.61,-4.57 477.31,-12.98 155.68,-18.78 -321.63,-5.8 -912.79,-6.79 -1320.39,-2.22 -407.61,4.58 -477.31,12.99 -155.68,18.79zm-26.36 0.3c-333.11,-6.01 -260.92,-14.72 161.24,-19.46 422.16,-4.74 1034.43,-3.71 1367.55,2.29 333.11,6.01 260.92,14.72 -161.24,19.46 -422.16,4.74 -1034.44,3.71 -1367.55,-2.29z"/>
    <path id="_43" class="fil79" d="M-69.98 72.47c329.28,5.93 934.52,6.95 1351.83,2.26 417.31,-4.68 488.67,-13.29 159.38,-19.23 -329.28,-5.94 -934.52,-6.95 -1351.83,-2.27 -417.31,4.69 -488.67,13.3 -159.38,19.24zm-26.36 0.29c-340.77,-6.14 -266.92,-15.05 164.94,-19.9 431.87,-4.85 1058.22,-3.8 1398.99,2.34 340.77,6.15 266.92,15.06 -164.95,19.91 -431.86,4.85 -1058.21,3.8 -1398.98,-2.35z"/>
    <path id="_44" class="fil80" d="M-87.56 72.66c336.95,6.08 956.26,7.12 1383.27,2.32 427.02,-4.79 500.04,-13.6 163.1,-19.68 -336.95,-6.07 -956.26,-7.11 -1383.27,-2.32 -427.02,4.8 -500.04,13.61 -163.1,19.68zm-26.35 0.3c-348.43,-6.28 -272.93,-15.39 168.65,-20.35 441.57,-4.96 1082,-3.89 1430.42,2.4 348.43,6.28 272.92,15.39 -168.65,20.35 -441.57,4.96 -1082,3.88 -1430.42,-2.4z"/>
    <path id="_45" class="fil81" d="M-105.13 72.86c344.6,6.21 977.99,7.28 1414.71,2.37 436.72,-4.9 511.4,-13.91 166.8,-20.12 -344.6,-6.22 -977.99,-7.28 -1414.71,-2.38 -436.72,4.91 -511.4,13.92 -166.8,20.13zm-26.36 0.3c-356.08,-6.42 -278.92,-15.74 172.36,-20.8 451.28,-5.07 1105.78,-3.97 1461.87,2.45 356.08,6.42 278.92,15.73 -172.36,20.8 -451.28,5.07 -1105.78,3.97 -1461.87,-2.45z"/>
    <path id="_46" class="fil82" d="M-122.7 73.06c352.26,6.35 999.72,7.44 1446.14,2.42 446.43,-5.01 522.77,-14.22 170.51,-20.57 -352.26,-6.35 -999.72,-7.44 -1446.14,-2.43 -446.43,5.01 -522.77,14.23 -170.51,20.58zm-26.36 0.29c-363.74,-6.55 -284.92,-16.07 176.07,-21.24 460.98,-5.18 1129.55,-4.06 1493.3,2.5 363.74,6.56 284.92,16.07 -176.07,21.25 -460.98,5.18 -1129.56,4.05 -1493.3,-2.51z"/>
    <path id="_47" class="fil83" d="M-140.27 73.26c359.91,6.49 1021.45,7.6 1477.58,2.47 456.13,-5.12 534.13,-14.53 174.21,-21.02 -359.91,-6.49 -1021.45,-7.6 -1477.58,-2.48 -456.13,5.12 -534.13,14.54 -174.21,21.03zm-26.36 0.29c-371.4,-6.7 -290.92,-16.41 179.77,-21.69 470.69,-5.29 1153.34,-4.14 1524.74,2.55 371.4,6.7 290.92,16.42 -179.77,21.7 -470.69,5.28 -1153.34,4.14 -1524.74,-2.56z"/>
    <path id="_48" class="fil84" d="M-157.85 73.45c367.58,6.63 1043.19,7.76 1509.03,2.53 465.83,-5.23 545.49,-14.84 177.91,-21.47 -367.57,-6.62 -1043.18,-7.76 -1509.02,-2.53 -465.83,5.23 -545.49,14.84 -177.92,21.47zm-26.35 0.3c-379.06,-6.84 -296.92,-16.75 183.48,-22.14 480.39,-5.4 1177.11,-4.23 1556.17,2.61 379.06,6.83 296.92,16.75 -183.48,22.14 -480.39,5.39 -1177.11,4.22 -1556.17,-2.61z"/>
    <path id="_49" class="fil85" d="M-175.42 73.65c375.23,6.77 1064.92,7.92 1540.46,2.58 475.54,-5.33 556.86,-15.15 181.63,-21.91 -375.23,-6.77 -1064.92,-7.93 -1540.46,-2.59 -475.54,5.34 -556.86,15.15 -181.63,21.92zm-26.36 0.3c-386.71,-6.98 -302.91,-17.09 187.19,-22.59 490.1,-5.51 1200.9,-4.31 1587.61,2.66 386.72,6.97 302.92,17.09 -187.18,22.59 -490.1,5.5 -1200.9,4.31 -1587.62,-2.66z"/>
    <path id="_50" class="fil86" d="M-192.99 73.85c382.89,6.9 1086.65,8.08 1571.9,2.63 485.24,-5.44 568.22,-15.46 185.33,-22.36 -382.89,-6.91 -1086.65,-8.09 -1571.9,-2.64 -485.24,5.45 -568.22,15.46 -185.33,22.37zm-26.36 0.29c-394.37,-7.11 -308.91,-17.42 190.89,-23.03 499.81,-5.61 1224.68,-4.4 1619.06,2.71 394.37,7.11 308.91,17.43 -190.9,23.04 -499.8,5.61 -1224.67,4.39 -1619.05,-2.72z"/>
    <path id="_51" class="fil87" d="M-210.56 74.04c390.54,7.05 1108.38,8.25 1603.33,2.7 494.95,-5.56 579.59,-15.78 189.04,-22.82 -390.55,-7.04 -1108.38,-8.24 -1603.33,-2.69 -494.95,5.56 -579.59,15.77 -189.04,22.81zm-26.36 0.3c-402.03,-7.25 -314.91,-17.76 194.6,-23.48 509.51,-5.72 1248.46,-4.48 1650.49,2.77 402.03,7.25 314.91,17.76 -194.6,23.48 -509.51,5.72 -1248.46,4.48 -1650.49,-2.77z"/>
    <path id="_52" class="fil88" d="M-228.13 74.24c398.2,7.18 1130.11,8.41 1634.77,2.74 504.65,-5.66 590.95,-16.08 192.74,-23.26 -398.2,-7.18 -1130.11,-8.4 -1634.77,-2.74 -504.65,5.67 -590.95,16.08 -192.74,23.26zm-26.36 0.3c-409.69,-7.39 -320.91,-18.1 198.3,-23.93 519.22,-5.83 1272.24,-4.57 1681.93,2.82 409.69,7.39 320.91,18.1 -198.3,23.93 -519.22,5.83 -1272.24,4.57 -1681.93,-2.82z"/>
    <path id="_53" class="fil89" d="M-245.71 74.44c405.87,7.32 1151.85,8.57 1666.21,2.79 514.36,-5.77 602.32,-16.38 196.46,-23.7 -405.87,-7.32 -1151.85,-8.57 -1666.21,-2.8 -514.36,5.78 -602.32,16.39 -196.46,23.71zm-26.36 0.3c-417.34,-7.53 -326.9,-18.45 202.02,-24.38 528.92,-5.94 1296.02,-4.65 1713.36,2.87 417.35,7.53 326.91,18.44 -202.01,24.38 -528.92,5.94 -1296.02,4.65 -1713.37,-2.87z"/>
    <path id="_54" class="fil90" d="M-263.28 74.64c413.52,7.45 1173.58,8.73 1697.65,2.85 524.06,-5.89 613.68,-16.7 200.16,-24.16 -413.52,-7.46 -1173.58,-8.73 -1697.65,-2.85 -524.06,5.89 -613.68,16.7 -200.16,24.16zm-26.36 0.29c-425,-7.66 -332.9,-18.78 205.72,-24.82 538.62,-6.05 1319.8,-4.74 1744.81,2.92 425,7.67 332.9,18.78 -205.72,24.83 -538.62,6.05 -1319.8,4.74 -1744.81,-2.93z"/>
    <path id="_55" class="fil91" d="M-280.85 74.83c421.18,7.6 1195.31,8.9 1729.08,2.9 533.77,-5.99 625.05,-17 203.87,-24.6 -421.18,-7.59 -1195.32,-8.89 -1729.09,-2.9 -533.77,5.99 -625.04,17.01 -203.86,24.6zm-26.36 0.3c-432.66,-7.8 -338.9,-19.12 209.43,-25.27 548.32,-6.16 1343.57,-4.83 1776.24,2.98 432.66,7.8 338.9,19.11 -209.43,25.27 -548.32,6.16 -1343.58,4.82 -1776.24,-2.98z"/>
    <path id="_56" class="fil92" d="M-298.42 75.03c428.83,7.73 1217.05,9.06 1760.52,2.95 543.47,-6.1 636.41,-17.31 207.57,-25.04 -428.83,-7.74 -1217.05,-9.06 -1760.52,-2.96 -543.48,6.1 -636.41,17.32 -207.57,25.05zm-26.36 0.3c-440.32,-7.94 -344.9,-19.46 213.13,-25.72 558.03,-6.27 1367.36,-4.91 1807.68,3.03 440.32,7.94 344.9,19.45 -213.13,25.72 -558.03,6.27 -1367.36,4.91 -1807.68,-3.03z"/>
    <path id="_57" class="fil93" d="M-316 75.23c436.5,7.87 1238.79,9.22 1791.97,3.01 553.17,-6.22 647.77,-17.63 211.27,-25.5 -436.49,-7.87 -1238.78,-9.22 -1791.96,-3.01 -553.18,6.21 -647.77,17.63 -211.28,25.5zm-26.35 0.29c-447.98,-8.07 -350.9,-19.79 216.83,-26.16 567.74,-6.38 1391.14,-5 1839.12,3.08 447.98,8.08 350.9,19.8 -216.84,26.17 -567.73,6.37 -1391.13,4.99 -1839.11,-3.09z"/>
    <path id="_58" class="fil94" d="M-333.57 75.43c444.15,8.01 1260.52,9.37 1823.4,3.05 562.89,-6.31 659.14,-17.93 214.99,-25.94 -444.15,-8.01 -1260.52,-9.38 -1823.4,-3.06 -562.89,6.32 -659.14,17.94 -214.99,25.95zm-26.36 0.29c-455.63,-8.21 -356.89,-20.13 220.55,-26.61 577.44,-6.49 1414.92,-5.08 1870.56,3.13 455.63,8.22 356.89,20.14 -220.55,26.62 -577.44,6.48 -1414.92,5.08 -1870.56,-3.14z"/>
    <path id="_59" class="fil95" d="M-351.14 75.62c451.81,8.15 1282.25,9.54 1854.84,3.11 572.59,-6.42 670.5,-18.24 218.69,-26.39 -451.81,-8.14 -1282.25,-9.54 -1854.84,-3.11 -572.59,6.43 -670.5,18.25 -218.69,26.39zm-26.36 0.3c-463.29,-8.35 -362.89,-20.47 224.25,-27.06 587.15,-6.59 1438.7,-5.17 1902,3.19 463.29,8.35 362.89,20.47 -224.26,27.06 -587.14,6.59 -1438.69,5.16 -1901.99,-3.19z"/>
    <path id="_60" class="fil95" d="M-368.71 75.82c459.46,8.29 1303.98,9.7 1886.27,3.17 582.3,-6.54 681.87,-18.56 222.4,-26.84 -459.47,-8.29 -1303.98,-9.71 -1886.27,-3.17 -582.3,6.54 -681.87,18.56 -222.4,26.84zm-26.36 0.3c-470.95,-8.5 -368.89,-20.81 227.96,-27.51 596.85,-6.7 1462.48,-5.25 1933.43,3.24 470.95,8.49 368.89,20.81 -227.96,27.51 -596.85,6.7 -1462.48,5.25 -1933.43,-3.24z"/>
    <path id="_61" class="fil96" d="M-386.28 76.02c467.12,8.42 1325.71,9.86 1917.71,3.21 592,-6.64 693.23,-18.86 226.1,-27.28 -467.12,-8.42 -1325.71,-9.86 -1917.71,-3.22 -592,6.65 -693.23,18.86 -226.1,27.29zm-26.36 0.29c-478.61,-8.63 -374.89,-21.14 231.66,-27.95 606.56,-6.81 1486.26,-5.34 1964.87,3.29 478.61,8.63 374.89,21.15 -231.66,27.96 -606.56,6.81 -1486.26,5.33 -1964.87,-3.3z"/>
    <path id="_62" class="fil97" d="M-403.86 76.21c474.79,8.57 1347.45,10.03 1949.15,3.27 601.71,-6.75 704.6,-19.17 229.82,-27.73 -474.79,-8.56 -1347.45,-10.02 -1949.15,-3.27 -601.71,6.76 -704.6,19.17 -229.82,27.73zm-26.36 0.3c-486.27,-8.77 -380.89,-21.48 235.38,-28.4 616.26,-6.92 1510.04,-5.42 1996.3,3.35 486.27,8.76 380.89,21.48 -235.37,28.4 -616.26,6.92 -1510.04,5.42 -1996.31,-3.35z"/>
    <path id="_63" class="fil98" d="M-421.43 76.41c482.44,8.7 1369.18,10.19 1980.59,3.33 611.41,-6.87 715.96,-19.49 233.52,-28.19 -482.44,-8.7 -1369.18,-10.18 -1980.59,-3.32 -611.41,6.87 -715.96,19.48 -233.52,28.18zm-26.36 0.3c-493.93,-8.91 -386.89,-21.83 239.08,-28.85 625.97,-7.03 1533.82,-5.51 2027.75,3.4 493.92,8.9 386.88,21.82 -239.08,28.85 -625.97,7.03 -1533.82,5.51 -2027.75,-3.4z"/>
    <path id="_64" class="fil99" d="M-439 76.61c490.1,8.84 1390.91,10.35 2012.02,3.37 621.12,-6.97 727.33,-19.79 237.23,-28.62 -490.1,-8.84 -1390.91,-10.35 -2012.03,-3.38 -621.11,6.98 -727.32,19.79 -237.22,28.63zm-26.36 0.3c-501.59,-9.05 -392.89,-22.17 242.79,-29.3 635.67,-7.14 1557.6,-5.59 2059.18,3.45 501.58,9.05 392.88,22.16 -242.79,29.3 -635.67,7.14 -1557.6,5.59 -2059.18,-3.45z"/>
    <path id="_65" class="fil100" d="M-456.57 76.81c497.75,8.97 1412.64,10.51 2043.46,3.42 630.82,-7.08 738.69,-20.1 240.93,-29.07 -497.75,-8.97 -1412.64,-10.51 -2043.46,-3.43 -630.82,7.08 -738.69,20.1 -240.93,29.08zm-26.36 0.29c-509.25,-9.18 -398.89,-22.5 246.49,-29.74 645.38,-7.25 1581.38,-5.68 2090.62,3.5 509.24,9.19 398.89,22.5 -246.49,29.75 -645.38,7.25 -1581.38,5.67 -2090.62,-3.51z"/>
    <path id="_66" class="fil101" d="M-474.15 77c505.42,9.12 1434.38,10.68 2074.91,3.49 640.52,-7.2 750.05,-20.41 244.64,-29.53 -505.42,-9.11 -1434.38,-10.67 -2074.91,-3.48 -640.52,7.19 -750.05,20.41 -244.64,29.52zm-26.35 0.3c-516.9,-9.32 -404.89,-22.84 250.19,-30.19 655.09,-7.36 1605.16,-5.76 2122.06,3.56 516.9,9.32 404.89,22.84 -250.19,30.19 -655.09,7.35 -1605.17,5.76 -2122.06,-3.56z"/>
    <path id="_67" class="fil101" d="M-491.72 77.2c513.07,9.25 1456.11,10.84 2106.34,3.53 650.23,-7.3 761.42,-20.71 248.35,-29.96 -513.07,-9.26 -1456.11,-10.84 -2106.34,-3.54 -650.23,7.3 -761.42,20.72 -248.35,29.97zm-26.36 0.3c-524.55,-9.46 -410.88,-23.18 253.91,-30.64 664.78,-7.47 1628.94,-5.85 2153.5,3.61 524.55,9.46 410.88,23.18 -253.91,30.64 -664.79,7.46 -1628.94,5.85 -2153.5,-3.61z"/>
    <path id="_68" class="fil102" d="M-509.29 77.4c520.73,9.39 1477.84,10.99 2137.78,3.58 659.93,-7.4 772.78,-21.02 252.05,-30.41 -520.73,-9.39 -1477.85,-11 -2137.78,-3.59 -659.93,7.41 -772.78,21.03 -252.05,30.42zm-26.36 0.29c-532.21,-9.59 -416.88,-23.51 257.61,-31.08 674.49,-7.58 1652.72,-5.93 2184.94,3.66 532.21,9.6 416.88,23.52 -257.61,31.09 -674.5,7.57 -1652.72,5.93 -2184.94,-3.67z"/>
    <path id="_69" class="fil102" d="M-526.86 77.6c528.38,9.52 1499.57,11.15 2169.21,3.64 669.64,-7.52 784.15,-21.34 255.76,-30.87 -528.38,-9.53 -1499.58,-11.16 -2169.21,-3.64 -669.64,7.52 -784.15,21.34 -255.76,30.87zm-26.36 0.29c-539.87,-9.73 -422.88,-23.85 261.32,-31.53 684.19,-7.69 1676.5,-6.02 2216.37,3.72 539.87,9.73 422.88,23.85 -261.32,31.53 -684.19,7.68 -1676.5,6.02 -2216.37,-3.72z"/>
    <path id="_70" class="fil103" d="M-544.44 77.79c536.05,9.67 1521.32,11.32 2200.66,3.69 679.34,-7.62 795.51,-21.64 259.46,-31.31 -536.04,-9.66 -1521.31,-11.31 -2200.65,-3.69 -679.34,7.63 -795.51,21.65 -259.47,31.31zm-26.35 0.3c-547.54,-9.87 -428.88,-24.19 265.02,-31.98 693.9,-7.79 1700.28,-6.11 2247.81,3.77 547.53,9.87 428.88,24.19 -265.02,31.98 -693.9,7.79 -1700.28,6.1 -2247.81,-3.77z"/>
    <path id="_71" class="fil103" d="M-562.01 77.99c543.7,9.8 1543.05,11.48 2232.09,3.75 689.05,-7.74 806.88,-21.96 263.18,-31.76 -543.71,-9.81 -1543.05,-11.48 -2232.1,-3.75 -689.04,7.74 -806.87,21.96 -263.17,31.76zm-26.36 0.3c-555.19,-10.01 -434.87,-24.53 268.74,-32.43 703.6,-7.9 1724.06,-6.19 2279.25,3.82 555.18,10.01 434.87,24.53 -268.74,32.43 -703.6,7.9 -1724.06,6.19 -2279.25,-3.82z"/>
    <path id="_72" class="fil104" d="M-579.58 78.19c551.36,9.94 1564.78,11.64 2263.53,3.8 698.75,-7.85 818.24,-22.27 266.88,-32.21 -551.36,-9.94 -1564.78,-11.64 -2263.53,-3.8 -698.76,7.85 -818.24,22.27 -266.88,32.21zm-26.36 0.29c-562.85,-10.14 -440.87,-24.86 272.44,-32.87 713.31,-8.01 1747.84,-6.28 2310.69,3.87 562.84,10.15 440.87,24.87 -272.44,32.88 -713.31,8.01 -1747.84,6.27 -2310.69,-3.88z"/>
    <path id="_73" class="fil105" d="M-597.15 78.39c559.02,10.07 1586.51,11.8 2294.97,3.84 708.45,-7.95 829.6,-22.57 270.58,-32.65 -559.02,-10.08 -1586.51,-11.8 -2294.97,-3.85 -708.46,7.96 -829.6,22.58 -270.58,32.66zm-26.36 0.29c-570.51,-10.29 -446.87,-25.21 276.14,-33.32 723.02,-8.12 1771.63,-6.36 2342.13,3.93 570.5,10.28 446.87,25.2 -276.15,33.32 -723.01,8.12 -1771.62,6.36 -2342.12,-3.93z"/>
    <path id="_74" class="fil106" d="M-614.72 78.58c566.67,10.22 1608.24,11.97 2326.4,3.91 718.16,-8.07 840.97,-22.89 274.29,-33.11 -566.67,-10.21 -1608.24,-11.96 -2326.4,-3.9 -718.17,8.06 -840.97,22.88 -274.29,33.1zm-26.36 0.3c-578.17,-10.43 -452.87,-25.55 279.85,-33.77 732.72,-8.23 1795.4,-6.45 2373.56,3.98 578.16,10.42 452.87,25.54 -279.85,33.77 -732.72,8.23 -1795.4,6.44 -2373.56,-3.98z"/>
    <path id="_75" class="fil106" d="M-632.3 78.78c574.34,10.36 1629.98,12.13 2357.85,3.96 727.87,-8.18 852.33,-23.2 278,-33.55 -574.34,-10.36 -1629.98,-12.13 -2357.85,-3.96 -727.87,8.17 -852.33,23.19 -278,33.55zm-26.36 0.3c-585.82,-10.57 -458.86,-25.89 283.56,-34.22 742.43,-8.34 1819.18,-6.53 2405,4.03 585.82,10.56 458.87,25.89 -283.55,34.22 -742.43,8.34 -1819.19,6.53 -2405.01,-4.03z"/>
    <path id="_76" class="fil107" d="M-649.87 78.98c581.99,10.49 1651.71,12.29 2389.28,4 737.58,-8.28 863.7,-23.5 281.71,-33.99 -581.99,-10.49 -1651.71,-12.29 -2389.28,-4.01 -737.58,8.28 -863.7,23.5 -281.71,34zm-26.36 0.29c-593.48,-10.7 -464.86,-26.22 287.27,-34.66 752.13,-8.45 1842.96,-6.62 2436.44,4.08 593.47,10.71 464.86,26.23 -287.27,34.67 -752.13,8.44 -1842.96,6.61 -2436.44,-4.09z"/>
    <path id="_77" class="fil107" d="M-667.44 79.17c589.65,10.64 1673.44,12.45 2420.72,4.07 747.28,-8.39 875.06,-23.82 285.41,-34.45 -589.65,-10.63 -1673.44,-12.45 -2420.72,-4.06 -747.28,8.39 -875.06,23.81 -285.41,34.44zm-26.36 0.3c-601.14,-10.84 -470.86,-26.56 290.97,-35.11 761.84,-8.56 1866.74,-6.7 2467.88,4.14 601.13,10.84 470.86,26.56 -290.97,35.11 -761.84,8.55 -1866.74,6.7 -2467.88,-4.14z"/>
    <path id="_78" class="fil107" d="M-685.01 79.37c597.3,10.77 1695.17,12.61 2452.15,4.12 756.99,-8.5 886.43,-24.12 289.12,-34.89 -597.3,-10.78 -1695.17,-12.62 -2452.16,-4.12 -756.98,8.5 -886.42,24.12 -289.11,34.89zm-26.36 0.3c-608.8,-10.98 -476.86,-26.9 294.68,-35.56 771.54,-8.67 1890.52,-6.79 2499.31,4.19 608.8,10.98 476.86,26.9 -294.68,35.56 -771.54,8.66 -1890.52,6.79 -2499.31,-4.19z"/>
    <path id="_79" class="fil107" d="M-702.59 79.57c604.97,10.91 1716.91,12.77 2483.6,4.16 766.69,-8.6 897.79,-24.42 292.83,-35.33 -604.97,-10.91 -1716.91,-12.78 -2483.6,-4.17 -766.69,8.61 -897.79,24.43 -292.83,35.34zm-26.35 0.3c-616.46,-11.12 -482.86,-27.24 298.38,-36.01 781.25,-8.77 1914.3,-6.87 2530.75,4.24 616.45,11.12 482.86,27.24 -298.38,36.01 -781.25,8.77 -1914.3,6.87 -2530.75,-4.24z"/>
    <path id="_80" class="fil108" d="M-720.16 79.77c612.62,11.04 1738.64,12.93 2515.03,4.22 776.4,-8.72 909.16,-24.74 296.54,-35.79 -612.63,-11.05 -1738.64,-12.94 -2515.04,-4.22 -776.39,8.72 -909.15,24.74 -296.53,35.79zm-26.36 0.29c-624.11,-11.25 -488.85,-27.57 302.1,-36.45 790.94,-8.88 1938.08,-6.96 2562.19,4.3 624.1,11.25 488.85,27.57 -302.1,36.45 -790.95,8.88 -1938.08,6.96 -2562.19,-4.3z"/>
    <path id="_81" class="fil109" d="M-737.73 79.96c620.28,11.19 1760.37,13.1 2546.47,4.28 786.1,-8.83 920.52,-25.05 300.24,-36.24 -620.28,-11.18 -1760.37,-13.09 -2546.47,-4.27 -786.1,8.83 -920.52,25.05 -300.24,36.23zm-26.36 0.3c-631.77,-11.39 -494.85,-27.91 305.8,-36.9 800.65,-8.99 1961.86,-7.04 2593.63,4.35 631.76,11.39 494.85,27.91 -305.8,36.9 -800.66,8.99 -1961.86,7.04 -2593.63,-4.35z"/>
    <path id="_82" class="fil109" d="M-755.3 80.16c627.94,11.32 1782.1,13.26 2577.91,4.32 795.8,-8.93 931.88,-25.35 303.94,-36.67 -627.94,-11.33 -1782.11,-13.26 -2577.91,-4.33 -795.8,8.94 -931.88,25.36 -303.94,36.68zm-26.36 0.3c-639.43,-11.53 -500.86,-28.26 309.5,-37.35 810.36,-9.1 1985.65,-7.13 2625.07,4.4 639.42,11.53 500.85,28.25 -309.51,37.35 -810.36,9.1 -1985.64,7.13 -2625.06,-4.4z"/>
    <path id="_83" class="fil109" d="M-772.88 80.36c635.6,11.46 1803.84,13.42 2609.35,4.38 805.51,-9.05 943.25,-25.67 307.65,-37.13 -635.59,-11.46 -1803.84,-13.42 -2609.34,-4.38 -805.51,9.04 -943.25,25.67 -307.66,37.13zm-26.35 0.29c-647.09,-11.66 -506.86,-28.59 313.21,-37.79 820.06,-9.21 2009.42,-7.22 2656.5,4.45 647.08,11.67 506.85,28.59 -313.21,37.8 -820.06,9.21 -2009.42,7.21 -2656.5,-4.46z"/>
    <path id="_84" class="fil109" d="M-790.45 80.56c643.26,11.59 1825.58,13.58 2640.79,4.43 815.21,-9.16 954.61,-25.98 311.36,-37.58 -643.26,-11.6 -1825.58,-13.58 -2640.79,-4.43 -815.21,9.15 -954.61,25.98 -311.36,37.58zm-26.36 0.29c-654.74,-11.81 -512.85,-28.93 316.92,-38.24 829.77,-9.32 2033.21,-7.3 2687.94,4.51 654.74,11.8 512.86,28.92 -316.91,38.24 -829.77,9.32 -2033.21,7.3 -2687.95,-4.51z"/>
    <path id="_85" class="fil110" d="M-808.02 80.75c650.91,11.74 1847.31,13.75 2672.22,4.48 824.92,-9.26 965.98,-26.28 315.07,-38.02 -650.91,-11.73 -1847.31,-13.74 -2672.22,-4.48 -824.92,9.26 -965.98,26.29 -315.07,38.02zm-26.36 0.3c-662.4,-11.95 -518.85,-29.27 320.63,-38.69 839.47,-9.43 2056.98,-7.39 2719.38,4.56 662.39,11.94 518.85,29.27 -320.63,38.69 -839.47,9.43 -2056.98,7.38 -2719.38,-4.56z"/>
    <path id="_86" class="fil110" d="M-825.59 80.95c658.57,11.88 1869.04,13.91 2703.66,4.54 834.62,-9.38 977.34,-26.6 318.77,-38.47 -658.57,-11.88 -1869.04,-13.91 -2703.66,-4.54 -834.62,9.37 -977.34,26.59 -318.77,38.47zm-26.36 0.3c-670.06,-12.09 -524.85,-29.61 324.33,-39.14 849.18,-9.54 2080.76,-7.47 2750.82,4.61 670.06,12.08 524.85,29.61 -324.33,39.14 -849.18,9.53 -2080.77,7.47 -2750.82,-4.61z"/>
    <path id="_87" class="fil110" d="M-843.17 81.15c666.23,12.01 1890.78,14.06 2735.11,4.59 844.32,-9.48 988.7,-26.91 322.47,-38.92 -666.22,-12.01 -1890.77,-14.07 -2735.1,-4.59 -844.32,9.48 -988.7,26.9 -322.48,38.92zm-26.35 0.29c-677.72,-12.22 -530.85,-29.94 328.04,-39.58 858.88,-9.65 2104.54,-7.56 2782.25,4.66 677.72,12.22 530.85,29.95 -328.04,39.59 -858.88,9.64 -2104.54,7.55 -2782.25,-4.67z"/>
    <path id="_88" class="fil110" d="M-860.74 81.34c673.89,12.16 1912.51,14.23 2766.54,4.65 854.03,-9.59 1000.07,-27.22 326.19,-39.37 -673.89,-12.15 -1912.51,-14.23 -2766.54,-4.64 -854.03,9.59 -1000.07,27.21 -326.19,39.36zm-26.36 0.3c-685.37,-12.36 -536.84,-30.28 331.75,-40.03 868.59,-9.76 2128.32,-7.64 2813.69,4.72 685.38,12.36 536.85,30.28 -331.74,40.03 -868.59,9.75 -2128.32,7.64 -2813.7,-4.72z"/>
    <path id="_89" class="fil110" d="M-878.31 81.54c681.54,12.29 1934.24,14.39 2797.98,4.7 863.73,-9.7 1011.43,-27.52 329.89,-39.82 -681.54,-12.28 -1934.24,-14.39 -2797.98,-4.69 -863.73,9.7 -1011.43,27.52 -329.89,39.81zm-26.36 0.3c-693.03,-12.5 -542.84,-30.62 335.45,-40.48 878.3,-9.86 2152.11,-7.73 2845.14,4.77 693.03,12.5 542.84,30.62 -335.46,40.48 -878.29,9.86 -2152.1,7.72 -2845.13,-4.77z"/>
    <path id="_90" class="fil110" d="M-895.88 81.74c689.2,12.43 1955.97,14.55 2829.41,4.75 873.44,-9.81 1022.8,-27.83 333.6,-40.26 -689.2,-12.43 -1955.97,-14.56 -2829.41,-4.75 -873.44,9.81 -1022.8,27.83 -333.6,40.26zm-26.36 0.29c-700.69,-12.63 -548.84,-30.95 339.16,-40.92 888,-9.97 2175.88,-7.81 2876.57,4.82 700.69,12.64 548.84,30.96 -339.16,40.93 -888,9.97 -2175.88,7.81 -2876.57,-4.83z"/>
    <path id="_91" class="fil110" d="M-913.45 81.94c696.85,12.56 1977.7,14.71 2860.85,4.8 883.14,-9.92 1034.16,-28.14 337.3,-40.71 -696.86,-12.57 -1977.7,-14.71 -2860.85,-4.8 -883.14,9.92 -1034.16,28.14 -337.3,40.71zm-17.58 0.19c-704.51,-12.7 -551.84,-31.12 341.02,-41.15 892.85,-10.02 2187.77,-7.85 2892.28,4.85 704.52,12.71 551.84,31.13 -341.01,41.16 -892.85,10.02 -2187.77,7.85 -2892.29,-4.86z"/>
   </g>
  </g>
  <g>
   <g style="clip-path:url(#id2)">
    <path class="fil38" d="M659.27 19.33c-11.49,-0.2 -9,-0.5 5.56,-0.67 14.55,-0.16 35.67,-0.13 47.15,0.08 11.49,0.21 9,0.51 -5.56,0.67 -14.56,0.17 -35.67,0.13 -47.15,-0.08z"/>
    <path id="_1_37" class="fil38" d="M668.05 19.24c7.66,0.13 21.73,0.16 31.44,0.05 9.7,-0.11 11.36,-0.31 3.71,-0.45 -7.66,-0.14 -21.74,-0.16 -31.44,-0.05 -9.71,0.11 -11.37,0.31 -3.71,0.45zm-26.36 0.29c-19.14,-0.34 -14.99,-0.85 9.27,-1.12 24.26,-0.27 59.45,-0.21 78.6,0.13 19.14,0.35 14.99,0.85 -9.27,1.12 -24.26,0.27 -59.45,0.22 -78.6,-0.13z"/>
    <path id="_2_38" class="fil38" d="M650.48 19.43c15.32,0.28 43.47,0.33 62.88,0.11 19.41,-0.22 22.72,-0.62 7.41,-0.9 -15.32,-0.27 -43.47,-0.32 -62.88,-0.1 -19.41,0.22 -22.73,0.62 -7.41,0.89zm-26.36 0.3c-26.8,-0.49 -20.99,-1.19 12.97,-1.57 33.97,-0.38 83.23,-0.3 110.04,0.19 26.8,0.48 20.99,1.18 -12.98,1.56 -33.96,0.38 -83.23,0.3 -110.03,-0.18z"/>
    <path id="_3_39" class="fil39" d="M632.91 19.63c22.97,0.41 65.2,0.49 94.31,0.16 29.12,-0.33 34.09,-0.93 11.12,-1.34 -22.97,-0.42 -65.2,-0.49 -94.31,-0.16 -29.12,0.32 -34.1,0.93 -11.12,1.34zm-26.36 0.3c-34.46,-0.63 -26.99,-1.53 16.68,-2.02 43.67,-0.49 107.01,-0.38 141.47,0.24 34.46,0.62 26.99,1.52 -16.68,2.01 -43.67,0.49 -107.01,0.39 -141.47,-0.23z"/>
    <path id="_4_40" class="fil40" d="M615.34 19.83c30.63,0.55 86.93,0.64 125.75,0.21 38.82,-0.44 45.46,-1.24 14.82,-1.79 -30.63,-0.55 -86.93,-0.65 -125.75,-0.21 -38.82,0.43 -45.46,1.23 -14.82,1.79zm-26.36 0.29c-42.12,-0.76 -32.99,-1.86 20.38,-2.46 53.38,-0.6 130.79,-0.47 172.91,0.29 42.12,0.76 32.99,1.86 -20.39,2.46 -53.37,0.6 -130.79,0.47 -172.9,-0.29z"/>
    <path id="_5_41" class="fil41" d="M597.76 20.02c38.29,0.69 108.67,0.81 157.19,0.27 48.53,-0.55 56.83,-1.55 18.54,-2.24 -38.29,-0.69 -108.67,-0.81 -157.19,-0.26 -48.53,0.54 -56.83,1.54 -18.54,2.23zm-26.36 0.3c-49.77,-0.9 -38.98,-2.2 24.1,-2.91 63.08,-0.71 154.57,-0.55 204.34,0.35 49.78,0.89 38.99,2.19 -24.09,2.9 -63.08,0.71 -154.57,0.56 -204.35,-0.34z"/>
    <path id="_6_42" class="fil42" d="M580.19 20.22c45.95,0.83 130.4,0.97 188.63,0.32 58.23,-0.66 68.19,-1.86 22.24,-2.69 -45.95,-0.82 -130.4,-0.97 -188.63,-0.31 -58.23,0.65 -68.19,1.85 -22.24,2.68zm-26.36 0.3c-57.43,-1.04 -44.99,-2.54 27.8,-3.36 72.79,-0.81 178.35,-0.64 235.79,0.4 57.43,1.03 44.98,2.54 -27.8,3.35 -72.79,0.82 -178.35,0.64 -235.79,-0.39z"/>
    <path id="_7_43" class="fil43" d="M562.62 20.42c53.6,0.97 152.13,1.13 220.06,0.37 67.94,-0.76 79.55,-2.17 25.95,-3.13 -53.6,-0.97 -152.13,-1.14 -220.06,-0.37 -67.94,0.76 -79.56,2.16 -25.95,3.13zm-26.36 0.29c-65.09,-1.17 -50.99,-2.87 31.51,-3.8 82.49,-0.92 202.13,-0.72 267.22,0.45 65.09,1.17 50.98,2.88 -31.51,3.8 -82.49,0.93 -202.13,0.73 -267.22,-0.45z"/>
    <path id="_8_44" class="fil44" d="M545.05 20.62c61.26,1.1 173.86,1.29 251.5,0.42 77.64,-0.87 90.91,-2.48 29.65,-3.58 -61.26,-1.11 -173.86,-1.29 -251.5,-0.42 -77.64,0.87 -90.92,2.47 -29.65,3.58zm-26.36 0.29c-72.75,-1.31 -56.99,-3.21 35.21,-4.25 92.2,-1.03 225.91,-0.81 298.66,0.5 72.75,1.31 56.98,3.22 -35.21,4.25 -92.2,1.04 -225.91,0.81 -298.66,-0.5z"/>
    <path id="_9_45" class="fil45" d="M527.47 20.81c68.92,1.25 195.6,1.46 282.95,0.48 87.34,-0.98 102.27,-2.79 33.36,-4.03 -68.92,-1.24 -195.6,-1.45 -282.95,-0.47 -87.34,0.98 -102.28,2.78 -33.36,4.02zm-26.35 0.3c-80.41,-1.45 -62.99,-3.55 38.92,-4.7 101.9,-1.14 249.69,-0.89 330.09,0.56 80.41,1.45 62.99,3.55 -38.92,4.69 -101.9,1.15 -249.69,0.9 -330.09,-0.55z"/>
    <path id="_10_46" class="fil46" d="M509.9 21.01c76.58,1.38 217.33,1.62 314.38,0.53 97.05,-1.09 113.64,-3.09 37.07,-4.48 -76.58,-1.38 -217.33,-1.61 -314.38,-0.52 -97.05,1.09 -113.65,3.09 -37.07,4.47zm-26.36 0.3c-88.06,-1.59 -68.98,-3.89 42.63,-5.15 111.61,-1.25 273.47,-0.98 361.54,0.61 88.06,1.59 68.98,3.89 -42.63,5.14 -111.61,1.26 -273.47,0.98 -361.54,-0.6z"/>
    <path id="_11_47" class="fil47" d="M492.33 21.21c84.23,1.52 239.06,1.78 345.82,0.58 106.75,-1.2 125,-3.4 40.77,-4.92 -84.24,-1.52 -239.06,-1.78 -345.82,-0.58 -106.75,1.2 -125.01,3.4 -40.77,4.92zm-26.36 0.29c-95.72,-1.72 -74.98,-4.23 46.33,-5.59 121.32,-1.36 297.26,-1.06 392.98,0.66 95.72,1.73 74.98,4.23 -46.33,5.59 -121.32,1.37 -297.26,1.07 -392.98,-0.66z"/>
    <path id="_12_48" class="fil48" d="M474.76 21.4c91.89,1.66 260.79,1.94 377.25,0.64 116.46,-1.31 136.38,-3.71 44.48,-5.37 -91.89,-1.66 -260.79,-1.94 -377.25,-0.63 -116.46,1.3 -136.38,3.71 -44.48,5.36zm-26.36 0.3c-103.38,-1.86 -80.98,-4.57 50.04,-6.04 131.01,-1.47 321.03,-1.15 424.41,0.71 103.38,1.87 80.98,4.57 -50.04,6.04 -131.02,1.47 -321.03,1.16 -424.41,-0.71z"/>
    <path id="_13_49" class="fil49" d="M457.18 21.6c99.56,1.8 282.53,2.1 408.7,0.69 126.16,-1.42 147.74,-4.02 48.18,-5.82 -99.55,-1.79 -282.53,-2.1 -408.69,-0.68 -126.16,1.41 -147.74,4.02 -48.19,5.81zm-26.35 0.3c-111.04,-2 -86.98,-4.91 53.74,-6.49 140.72,-1.58 344.81,-1.24 455.85,0.77 111.04,2 86.98,4.9 -53.74,6.48 -140.73,1.58 -344.82,1.24 -455.85,-0.76z"/>
    <path id="_14_50" class="fil50" d="M439.61 21.8c107.21,1.93 304.26,2.26 440.13,0.74 135.87,-1.53 159.11,-4.33 51.9,-6.26 -107.21,-1.94 -304.27,-2.27 -440.13,-0.74 -135.87,1.52 -159.11,4.33 -51.9,6.26zm-26.36 0.3c-118.69,-2.14 -92.97,-5.25 57.46,-6.94 150.42,-1.69 368.59,-1.32 487.28,0.82 118.7,2.14 92.98,5.24 -57.45,6.93 -150.42,1.69 -368.59,1.33 -487.29,-0.81z"/>
    <path id="_15_51" class="fil51" d="M422.04 22c114.87,2.07 326,2.42 471.57,0.79 145.57,-1.64 170.47,-4.64 55.6,-6.71 -114.87,-2.07 -326,-2.43 -471.57,-0.79 -145.57,1.63 -170.47,4.64 -55.6,6.71zm-26.36 0.29c-126.35,-2.28 -98.97,-5.58 61.16,-7.38 160.13,-1.8 392.37,-1.41 518.73,0.87 126.35,2.28 98.97,5.58 -61.16,7.38 -160.13,1.8 -392.38,1.41 -518.73,-0.87z"/>
    <path id="_16_52" class="fil52" d="M404.47 22.19c122.52,2.21 347.73,2.59 503,0.85 155.28,-1.75 181.84,-4.95 59.31,-7.16 -122.52,-2.21 -347.73,-2.59 -503.01,-0.84 -155.27,1.74 -181.83,4.95 -59.3,7.15zm-26.36 0.3c-134.01,-2.42 -104.97,-5.92 64.87,-7.83 169.83,-1.9 416.15,-1.49 550.16,0.92 134.01,2.42 104.97,5.93 -64.87,7.83 -169.83,1.91 -416.15,1.5 -550.16,-0.92z"/>
    <path id="_17_53" class="fil53" d="M386.9 22.39c130.18,2.35 369.46,2.75 534.44,0.9 164.98,-1.85 193.2,-5.26 63.01,-7.61 -130.18,-2.34 -369.46,-2.75 -534.44,-0.89 -164.98,1.85 -193.2,5.25 -63.01,7.6zm-26.36 0.3c-141.67,-2.56 -110.97,-6.26 68.57,-8.28 179.54,-2.01 439.93,-1.58 581.6,0.98 141.67,2.55 110.97,6.26 -68.57,8.27 -179.54,2.02 -439.93,1.58 -581.6,-0.97z"/>
    <path id="_18_54" class="fil54" d="M369.32 22.59c137.84,2.48 391.2,2.91 565.89,0.95 174.68,-1.96 204.56,-5.57 66.72,-8.05 -137.84,-2.49 -391.2,-2.91 -565.89,-0.95 -174.68,1.96 -204.56,5.56 -66.72,8.05zm-26.36 0.29c-149.32,-2.69 -116.96,-6.59 72.28,-8.72 189.25,-2.12 463.72,-1.66 613.04,1.03 149.33,2.69 116.97,6.6 -72.28,8.72 -189.24,2.13 -463.71,1.67 -613.04,-1.03z"/>
    <path id="_19_55" class="fil55" d="M351.75 22.79c145.5,2.62 412.93,3.07 597.32,1 184.39,-2.07 215.93,-5.88 70.43,-8.5 -145.5,-2.62 -412.93,-3.07 -597.32,-1 -184.4,2.07 -215.93,5.87 -70.43,8.5zm-26.36 0.29c-156.98,-2.83 -122.96,-6.93 75.99,-9.17 198.95,-2.23 487.49,-1.75 644.48,1.08 156.98,2.83 122.96,6.94 -75.99,9.17 -198.95,2.24 -487.49,1.75 -644.48,-1.08z"/>
    <path id="_20_56" class="fil56" d="M334.18 22.98c153.15,2.76 434.66,3.24 628.76,1.06 194.1,-2.18 227.29,-6.19 74.13,-8.95 -153.16,-2.76 -434.66,-3.23 -628.76,-1.05 -194.1,2.18 -227.29,6.18 -74.13,8.94zm-26.36 0.3c-164.64,-2.97 -128.96,-7.27 79.69,-9.62 208.66,-2.34 511.28,-1.83 675.92,1.14 164.64,2.96 128.96,7.27 -79.69,9.61 -208.66,2.35 -511.28,1.84 -675.92,-1.13z"/>
    <path id="_21_57" class="fil57" d="M316.61 23.18c160.81,2.9 456.39,3.4 660.19,1.11 203.81,-2.29 238.66,-6.5 77.84,-9.4 -160.81,-2.89 -456.39,-3.39 -660.19,-1.1 -203.81,2.29 -238.66,6.49 -77.84,9.39zm-26.36 0.3c-172.3,-3.11 -134.96,-7.62 83.4,-10.07 218.36,-2.45 535.05,-1.92 707.35,1.19 172.3,3.11 134.96,7.61 -83.4,10.06 -218.36,2.45 -535.05,1.92 -707.35,-1.18z"/>
    <path id="_22_58" class="fil58" d="M299.03 23.38c168.48,3.04 478.13,3.56 691.64,1.16 213.51,-2.4 250.02,-6.8 81.54,-9.84 -168.47,-3.04 -478.12,-3.56 -691.63,-1.16 -213.51,2.39 -250.02,6.8 -81.55,9.84zm-26.35 0.29c-179.96,-3.24 -140.96,-7.95 87.1,-10.51 228.07,-2.56 558.83,-2 738.79,1.24 179.96,3.25 140.96,7.95 -87.1,10.51 -228.07,2.56 -558.84,2.01 -738.79,-1.24z"/>
    <path id="_23_59" class="fil59" d="M281.46 23.57c176.13,3.18 499.86,3.72 723.07,1.22 223.22,-2.51 261.39,-7.11 85.26,-10.29 -176.13,-3.18 -499.86,-3.72 -723.08,-1.21 -223.21,2.5 -261.38,7.11 -85.25,10.28zm-26.36 0.3c-187.61,-3.38 -146.95,-8.29 90.82,-10.96 237.77,-2.67 582.61,-2.09 770.23,1.29 187.61,3.39 146.95,8.29 -90.82,10.96 -237.77,2.67 -582.61,2.09 -770.23,-1.29z"/>
    <path id="_24_60" class="fil60" d="M263.89 23.77c183.79,3.32 521.59,3.88 754.51,1.27 232.92,-2.62 272.75,-7.42 88.96,-10.74 -183.79,-3.31 -521.59,-3.88 -754.51,-1.26 -232.92,2.61 -272.75,7.42 -88.96,10.73zm-26.36 0.3c-195.27,-3.52 -152.95,-8.63 94.52,-11.41 247.48,-2.78 606.39,-2.17 801.67,1.35 195.27,3.52 152.95,8.63 -94.52,11.4 -247.48,2.78 -606.4,2.18 -801.67,-1.34z"/>
    <path id="_25_61" class="fil61" d="M246.32 23.97c191.44,3.45 543.32,4.04 785.94,1.32 242.63,-2.73 284.12,-7.73 92.67,-11.18 -191.44,-3.46 -543.32,-4.05 -785.95,-1.32 -242.62,2.72 -284.11,7.73 -92.66,11.18zm-26.36 0.3c-202.93,-3.66 -158.95,-8.97 98.23,-11.86 257.18,-2.89 630.17,-2.26 833.1,1.4 202.93,3.66 158.95,8.97 -98.23,11.85 -257.18,2.89 -630.17,2.26 -833.1,-1.39z"/>
    <path id="_26_62" class="fil62" d="M228.75 24.17c199.1,3.59 565.05,4.2 817.38,1.37 252.33,-2.83 295.48,-8.04 96.37,-11.63 -199.1,-3.59 -565.05,-4.21 -817.38,-1.37 -252.33,2.83 -295.48,8.04 -96.37,11.63zm-26.36 0.29c-210.59,-3.79 -164.96,-9.3 101.93,-12.3 266.88,-2.99 653.95,-2.34 864.54,1.45 210.59,3.8 164.95,9.31 -101.93,12.3 -266.89,3 -653.95,2.35 -864.54,-1.45z"/>
    <path id="_27_63" class="fil63" d="M211.17 24.36c206.76,3.73 586.79,4.37 848.83,1.43 262.03,-2.94 306.84,-8.35 100.08,-12.08 -206.76,-3.73 -586.8,-4.36 -848.83,-1.42 -262.03,2.94 -306.84,8.35 -100.08,12.07zm-26.36 0.3c-218.24,-3.94 -170.95,-9.64 105.64,-12.75 276.59,-3.1 677.74,-2.43 895.98,1.5 218.25,3.94 170.95,9.65 -105.63,12.75 -276.59,3.11 -677.74,2.44 -895.99,-1.5z"/>
    <path id="_28_64" class="fil64" d="M193.6 24.56c214.42,3.87 608.52,4.53 880.26,1.48 271.74,-3.05 318.21,-8.66 103.79,-12.53 -214.42,-3.86 -608.53,-4.52 -880.26,-1.47 -271.74,3.05 -318.21,8.66 -103.79,12.52zm-26.36 0.3c-225.9,-4.08 -176.95,-9.98 109.35,-13.2 286.29,-3.21 701.51,-2.52 927.42,1.56 225.9,4.07 176.94,9.98 -109.35,13.19 -286.29,3.22 -701.51,2.52 -927.42,-1.55z"/>
    <path id="_29_65" class="fil65" d="M176.03 24.76c222.07,4 630.26,4.69 911.7,1.53 281.44,-3.16 329.57,-8.97 107.49,-12.97 -222.07,-4.01 -630.26,-4.69 -911.7,-1.53 -281.44,3.16 -329.57,8.96 -107.49,12.97zm-26.36 0.3c-233.56,-4.22 -182.95,-10.33 113.05,-13.65 296,-3.32 725.3,-2.6 958.86,1.61 233.56,4.21 182.95,10.32 -113.05,13.64 -296,3.33 -725.3,2.61 -958.86,-1.6z"/>
    <path id="_30_66" class="fil66" d="M158.46 24.96c229.73,4.14 651.99,4.85 943.13,1.58 291.15,-3.27 340.94,-9.28 111.2,-13.42 -229.73,-4.14 -651.99,-4.85 -943.13,-1.58 -291.15,3.27 -340.94,9.27 -111.2,13.42zm-26.36 0.29c-241.22,-4.35 -188.95,-10.66 116.76,-14.09 305.7,-3.43 749.07,-2.69 990.29,1.66 241.22,4.35 188.95,10.66 -116.76,14.09 -305.7,3.44 -749.07,2.69 -990.29,-1.66z"/>
    <path id="_31_67" class="fil67" d="M140.88 25.15c237.39,4.28 673.73,5.02 974.58,1.64 300.85,-3.38 352.3,-9.59 114.91,-13.87 -237.4,-4.28 -673.73,-5.01 -974.58,-1.63 -300.85,3.37 -352.3,9.58 -114.91,13.86zm-26.35 0.3c-248.88,-4.49 -194.95,-11 120.46,-14.54 315.41,-3.54 772.86,-2.77 1021.73,1.72 248.88,4.48 194.95,10.99 -120.46,14.53 -315.41,3.54 -772.86,2.78 -1021.73,-1.71z"/>
    <path id="_32_68" class="fil68" d="M123.31 25.35c245.05,4.42 695.46,5.18 1006.02,1.69 310.55,-3.49 363.66,-9.9 118.61,-14.32 -245.05,-4.41 -695.46,-5.17 -1006.02,-1.68 -310.55,3.48 -363.66,9.89 -118.61,14.31zm-26.36 0.3c-256.53,-4.63 -200.94,-11.34 124.18,-14.99 325.11,-3.65 796.63,-2.86 1053.17,1.77 256.53,4.62 200.94,11.33 -124.18,14.98 -325.11,3.65 -796.63,2.86 -1053.17,-1.76z"/>
    <path id="_33_69" class="fil69" d="M105.74 25.55c252.71,4.55 717.19,5.33 1037.45,1.74 320.26,-3.6 375.03,-10.21 122.32,-14.76 -252.71,-4.56 -717.19,-5.34 -1037.45,-1.74 -320.26,3.59 -375.03,10.2 -122.32,14.76zm-26.36 0.29c-264.19,-4.76 -206.94,-11.67 127.88,-15.43 334.82,-3.76 820.41,-2.94 1084.61,1.82 264.19,4.77 206.94,11.67 -127.88,15.43 -334.82,3.76 -820.42,2.95 -1084.61,-1.82z"/>
    <path id="_34_70" class="fil70" d="M88.17 25.75c260.36,4.69 738.92,5.49 1068.89,1.79 329.96,-3.71 386.39,-10.51 126.02,-15.21 -260.36,-4.69 -738.92,-5.5 -1068.89,-1.79 -329.96,3.7 -386.39,10.51 -126.02,15.21zm-26.36 0.29c-271.85,-4.9 -212.94,-12.01 131.58,-15.88 344.53,-3.87 844.2,-3.03 1116.05,1.87 271.85,4.91 212.94,12.02 -131.59,15.88 -344.52,3.87 -844.19,3.03 -1116.04,-1.87z"/>
    <path id="_35_71" class="fil71" d="M70.59 25.94c268.03,4.84 760.66,5.66 1100.33,1.85 339.67,-3.82 397.76,-10.82 129.73,-15.66 -268.02,-4.83 -760.65,-5.66 -1100.32,-1.84 -339.67,3.81 -397.76,10.82 -129.74,15.65zm-26.35 0.3c-279.51,-5.04 -218.94,-12.35 135.29,-16.33 354.23,-3.97 867.97,-3.11 1147.48,1.93 279.51,5.04 218.94,12.35 -135.29,16.32 -354.23,3.98 -867.98,3.12 -1147.48,-1.92z"/>
    <path id="_36_72" class="fil72" d="M53.02 26.14c275.68,4.97 782.39,5.82 1131.77,1.9 349.37,-3.92 409.12,-11.13 133.44,-16.1 -275.68,-4.98 -782.39,-5.83 -1131.77,-1.9 -349.38,3.92 -409.12,11.13 -133.44,16.1zm-26.36 0.3c-287.16,-5.18 -224.93,-12.69 139,-16.78 363.94,-4.08 891.76,-3.2 1178.93,1.98 287.16,5.18 224.93,12.69 -139,16.77 -363.94,4.09 -891.76,3.2 -1178.93,-1.97z"/>
    <path id="_37_73" class="fil73" d="M35.45 26.34c283.34,5.11 804.12,5.98 1163.2,1.95 359.08,-4.03 420.49,-11.44 137.15,-16.55 -283.34,-5.11 -804.12,-5.98 -1163.2,-1.95 -359.09,4.03 -420.49,11.44 -137.15,16.55zm-26.36 0.29c-294.82,-5.31 -230.93,-13.02 142.71,-17.22 373.64,-4.19 915.53,-3.28 1210.36,2.03 294.82,5.32 230.93,13.03 -142.71,17.22 -373.64,4.2 -915.53,3.29 -1210.36,-2.03z"/>
    <path id="_38_74" class="fil74" d="M17.88 26.53c290.99,5.25 825.85,6.15 1194.64,2.01 368.78,-4.14 431.85,-11.75 140.85,-17 -290.99,-5.25 -825.85,-6.14 -1194.64,-2 -368.79,4.14 -431.85,11.75 -140.85,16.99zm-26.36 0.3c-302.48,-5.45 -236.93,-13.36 146.41,-17.67 383.35,-4.3 939.32,-3.37 1241.8,2.09 302.48,5.45 236.93,13.36 -146.41,17.66 -383.35,4.31 -939.32,3.37 -1241.8,-2.08z"/>
    <path id="_39_75" class="fil75" d="M0.31 26.73c298.65,5.39 847.58,6.31 1226.07,2.06 378.5,-4.25 443.22,-12.06 144.56,-17.45 -298.65,-5.38 -847.58,-6.3 -1226.08,-2.05 -378.49,4.25 -443.21,12.06 -144.55,17.44zm-26.36 0.3c-310.14,-5.6 -242.93,-13.71 150.12,-18.12 393.05,-4.41 963.09,-3.46 1273.23,2.14 310.14,5.59 242.93,13.7 -150.12,18.11 -393.05,4.42 -963.09,3.46 -1273.23,-2.13z"/>
    <path id="_40_76" class="fil76" d="M-17.27 26.93c306.31,5.52 869.32,6.47 1257.52,2.11 388.2,-4.36 454.58,-12.37 148.27,-17.89 -306.32,-5.53 -869.32,-6.47 -1257.52,-2.11 -388.2,4.36 -454.58,12.37 -148.27,17.89zm-26.36 0.3c-317.79,-5.74 -248.92,-14.05 153.83,-18.57 402.75,-4.52 986.88,-3.54 1304.67,2.19 317.8,5.73 248.93,14.04 -153.82,18.56 -402.75,4.53 -986.88,3.55 -1304.68,-2.18z"/>
    <path id="_41_77" class="fil77" d="M-34.84 27.13c313.97,5.66 891.05,6.63 1288.95,2.16 397.91,-4.47 465.95,-12.68 151.98,-18.34 -313.97,-5.66 -891.06,-6.63 -1288.96,-2.16 -397.9,4.46 -465.94,12.67 -151.97,18.34zm-26.36 0.29c-325.45,-5.87 -254.92,-14.38 157.54,-19.01 412.45,-4.63 1010.65,-3.63 1336.11,2.24 325.45,5.87 254.92,14.38 -157.54,19.01 -412.45,4.63 -1010.65,3.63 -1336.11,-2.24z"/>
    <path id="_42_78" class="fil78" d="M-52.41 27.32c321.63,5.8 912.79,6.79 1320.39,2.22 407.61,-4.58 477.31,-12.99 155.68,-18.79 -321.63,-5.8 -912.79,-6.79 -1320.39,-2.21 -407.61,4.57 -477.31,12.98 -155.68,18.78zm-26.36 0.3c-333.11,-6.01 -260.92,-14.72 161.24,-19.46 422.16,-4.74 1034.43,-3.71 1367.55,2.3 333.11,6 260.92,14.71 -161.24,19.45 -422.16,4.74 -1034.44,3.72 -1367.55,-2.29z"/>
    <path id="_43_79" class="fil79" d="M-69.98 27.52c329.28,5.94 934.52,6.95 1351.83,2.27 417.31,-4.69 488.67,-13.3 159.38,-19.24 -329.28,-5.93 -934.52,-6.95 -1351.83,-2.26 -417.31,4.68 -488.67,13.29 -159.38,19.23zm-26.36 0.3c-340.77,-6.15 -266.92,-15.06 164.94,-19.91 431.87,-4.85 1058.22,-3.8 1398.99,2.35 340.77,6.14 266.92,15.05 -164.95,19.9 -431.86,4.85 -1058.21,3.8 -1398.98,-2.34z"/>
    <path id="_44_80" class="fil80" d="M-87.56 27.72c336.95,6.07 956.26,7.11 1383.27,2.32 427.02,-4.8 500.04,-13.61 163.1,-19.68 -336.95,-6.08 -956.26,-7.12 -1383.27,-2.32 -427.02,4.79 -500.04,13.6 -163.1,19.68zm-26.35 0.29c-348.43,-6.28 -272.93,-15.39 168.65,-20.35 441.57,-4.96 1082,-3.88 1430.42,2.4 348.43,6.28 272.92,15.4 -168.65,20.35 -441.57,4.96 -1082,3.89 -1430.42,-2.4z"/>
    <path id="_45_81" class="fil81" d="M-105.13 27.92c344.6,6.21 977.99,7.27 1414.71,2.37 436.72,-4.9 511.4,-13.92 166.8,-20.13 -344.6,-6.21 -977.99,-7.28 -1414.71,-2.37 -436.72,4.9 -511.4,13.91 -166.8,20.13zm-26.36 0.29c-356.08,-6.42 -278.92,-15.73 172.36,-20.8 451.28,-5.06 1105.78,-3.97 1461.87,2.45 356.08,6.42 278.92,15.74 -172.36,20.8 -451.28,5.07 -1105.78,3.97 -1461.87,-2.45z"/>
    <path id="_46_82" class="fil82" d="M-122.7 28.11c352.26,6.36 999.72,7.44 1446.14,2.43 446.43,-5.01 522.77,-14.23 170.51,-20.58 -352.26,-6.35 -999.72,-7.44 -1446.14,-2.42 -446.43,5.01 -522.77,14.22 -170.51,20.57zm-26.36 0.3c-363.74,-6.56 -284.92,-16.07 176.07,-21.25 460.98,-5.17 1129.55,-4.05 1493.3,2.51 363.74,6.56 284.92,16.07 -176.07,21.24 -460.98,5.18 -1129.56,4.06 -1493.3,-2.5z"/>
    <path id="_47_83" class="fil83" d="M-140.27 28.31c359.91,6.49 1021.45,7.6 1477.58,2.48 456.13,-5.12 534.13,-14.53 174.21,-21.02 -359.91,-6.5 -1021.45,-7.6 -1477.58,-2.48 -456.13,5.12 -534.13,14.53 -174.21,21.02zm-26.36 0.3c-371.4,-6.7 -290.92,-16.41 179.77,-21.7 470.69,-5.28 1153.34,-4.14 1524.74,2.56 371.4,6.7 290.92,16.41 -179.77,21.69 -470.69,5.29 -1153.34,4.14 -1524.74,-2.55z"/>
    <path id="_48_84" class="fil84" d="M-157.85 28.51c367.58,6.63 1043.19,7.76 1509.03,2.53 465.83,-5.23 545.49,-14.84 177.91,-21.47 -367.57,-6.63 -1043.18,-7.76 -1509.02,-2.53 -465.83,5.23 -545.49,14.84 -177.92,21.47zm-26.35 0.29c-379.06,-6.83 -296.92,-16.75 183.48,-22.14 480.39,-5.39 1177.11,-4.22 1556.17,2.61 379.06,6.84 296.92,16.75 -183.48,22.14 -480.39,5.4 -1177.11,4.23 -1556.17,-2.61z"/>
    <path id="_49_85" class="fil85" d="M-175.42 28.7c375.23,6.77 1064.92,7.93 1540.46,2.59 475.54,-5.34 556.86,-15.15 181.63,-21.92 -375.23,-6.77 -1064.92,-7.92 -1540.46,-2.58 -475.54,5.34 -556.86,15.15 -181.63,21.91zm-26.36 0.3c-386.71,-6.97 -302.91,-17.09 187.19,-22.59 490.1,-5.5 1200.9,-4.31 1587.61,2.66 386.72,6.98 302.92,17.09 -187.18,22.59 -490.1,5.51 -1200.9,4.31 -1587.62,-2.66z"/>
    <path id="_50_86" class="fil86" d="M-192.99 28.9c382.89,6.91 1086.65,8.09 1571.9,2.64 485.24,-5.45 568.22,-15.46 185.33,-22.37 -382.89,-6.9 -1086.65,-8.08 -1571.9,-2.63 -485.24,5.44 -568.22,15.46 -185.33,22.36zm-26.36 0.3c-394.37,-7.11 -308.91,-17.43 190.89,-23.04 499.81,-5.61 1224.68,-4.39 1619.06,2.72 394.37,7.11 308.91,17.42 -190.9,23.03 -499.8,5.61 -1224.67,4.4 -1619.05,-2.71z"/>
    <path id="_51_87" class="fil87" d="M-210.56 29.1c390.54,7.04 1108.38,8.25 1603.33,2.69 494.95,-5.56 579.59,-15.77 189.04,-22.81 -390.55,-7.05 -1108.38,-8.25 -1603.33,-2.69 -494.95,5.55 -579.59,15.77 -189.04,22.81zm-26.36 0.29c-402.03,-7.24 -314.91,-17.76 194.6,-23.48 509.51,-5.72 1248.46,-4.48 1650.49,2.77 402.03,7.25 314.91,17.76 -194.6,23.48 -509.51,5.72 -1248.46,4.48 -1650.49,-2.77z"/>
    <path id="_52_88" class="fil88" d="M-228.13 29.3c398.2,7.18 1130.11,8.4 1634.77,2.74 504.65,-5.67 590.95,-16.08 192.74,-23.26 -398.2,-7.18 -1130.11,-8.41 -1634.77,-2.74 -504.65,5.66 -590.95,16.08 -192.74,23.26zm-26.36 0.29c-409.69,-7.39 -320.91,-18.1 198.3,-23.93 519.22,-5.83 1272.24,-4.56 1681.93,2.82 409.69,7.39 320.91,18.1 -198.3,23.93 -519.22,5.83 -1272.24,4.57 -1681.93,-2.82z"/>
    <path id="_53_89" class="fil89" d="M-245.71 29.49c405.87,7.32 1151.85,8.57 1666.21,2.8 514.36,-5.78 602.32,-16.39 196.46,-23.71 -405.87,-7.32 -1151.85,-8.57 -1666.21,-2.79 -514.36,5.77 -602.32,16.39 -196.46,23.7zm-26.36 0.3c-417.34,-7.53 -326.9,-18.44 202.02,-24.38 528.92,-5.94 1296.02,-4.65 1713.36,2.88 417.35,7.52 326.91,18.44 -202.01,24.37 -528.92,5.94 -1296.02,4.65 -1713.37,-2.87z"/>
    <path id="_54_90" class="fil90" d="M-263.28 29.69c413.52,7.46 1173.58,8.73 1697.65,2.85 524.06,-5.88 613.68,-16.7 200.16,-24.16 -413.52,-7.45 -1173.58,-8.73 -1697.65,-2.84 -524.06,5.88 -613.68,16.69 -200.16,24.15zm-26.36 0.3c-425,-7.67 -332.9,-18.78 205.72,-24.83 538.62,-6.05 1319.8,-4.74 1744.81,2.93 425,7.66 332.9,18.78 -205.72,24.82 -538.62,6.05 -1319.8,4.74 -1744.81,-2.92z"/>
    <path id="_55_91" class="fil91" d="M-280.85 29.89c421.18,7.59 1195.31,8.89 1729.08,2.9 533.77,-5.99 625.05,-17.01 203.87,-24.6 -421.18,-7.6 -1195.32,-8.9 -1729.09,-2.9 -533.77,5.99 -625.04,17 -203.86,24.6zm-26.36 0.29c-432.66,-7.8 -338.9,-19.11 209.43,-25.27 548.32,-6.16 1343.57,-4.82 1776.24,2.98 432.66,7.8 338.9,19.12 -209.43,25.27 -548.32,6.16 -1343.58,4.83 -1776.24,-2.98z"/>
    <path id="_56_92" class="fil92" d="M-298.42 30.09c428.83,7.73 1217.05,9.05 1760.52,2.95 543.47,-6.1 636.41,-17.32 207.57,-25.05 -428.83,-7.73 -1217.05,-9.05 -1760.52,-2.95 -543.48,6.1 -636.41,17.31 -207.57,25.05zm-26.36 0.29c-440.32,-7.94 -344.9,-19.45 213.13,-25.72 558.03,-6.26 1367.36,-4.91 1807.68,3.03 440.32,7.94 344.9,19.46 -213.13,25.72 -558.03,6.27 -1367.36,4.91 -1807.68,-3.03z"/>
    <path id="_57_93" class="fil93" d="M-316 30.28c436.5,7.87 1238.79,9.22 1791.97,3.01 553.17,-6.21 647.77,-17.63 211.27,-25.5 -436.49,-7.87 -1238.78,-9.21 -1791.96,-3 -553.18,6.21 -647.77,17.62 -211.28,25.49zm-26.35 0.3c-447.98,-8.08 -350.9,-19.79 216.83,-26.17 567.74,-6.37 1391.14,-4.99 1839.12,3.09 447.98,8.07 350.9,19.79 -216.84,26.16 -567.73,6.38 -1391.13,5 -1839.11,-3.08z"/>
    <path id="_58_94" class="fil94" d="M-333.57 30.48c444.15,8.01 1260.52,9.38 1823.4,3.06 562.89,-6.32 659.14,-17.94 214.99,-25.95 -444.15,-8 -1260.52,-9.37 -1823.4,-3.05 -562.89,6.32 -659.14,17.93 -214.99,25.94zm-26.36 0.3c-455.63,-8.22 -356.89,-20.14 220.55,-26.62 577.44,-6.48 1414.92,-5.08 1870.56,3.14 455.63,8.21 356.89,20.13 -220.55,26.61 -577.44,6.49 -1414.92,5.08 -1870.56,-3.13z"/>
    <path id="_59_95" class="fil95" d="M-351.14 30.68c451.81,8.14 1282.25,9.54 1854.84,3.11 572.59,-6.43 670.5,-18.25 218.69,-26.39 -451.81,-8.15 -1282.25,-9.54 -1854.84,-3.11 -572.59,6.42 -670.5,18.24 -218.69,26.39zm-26.36 0.29c-463.29,-8.35 -362.89,-20.47 224.25,-27.06 587.15,-6.59 1438.7,-5.16 1902,3.19 463.29,8.36 362.89,20.47 -224.26,27.06 -587.14,6.6 -1438.69,5.17 -1901.99,-3.19z"/>
    <path id="_60_96" class="fil95" d="M-368.71 30.87c459.46,8.29 1303.98,9.71 1886.27,3.17 582.3,-6.54 681.87,-18.55 222.4,-26.84 -459.47,-8.28 -1303.98,-9.7 -1886.27,-3.16 -582.3,6.53 -681.87,18.55 -222.4,26.83zm-26.36 0.3c-470.95,-8.49 -368.89,-20.81 227.96,-27.51 596.85,-6.7 1462.48,-5.25 1933.43,3.24 470.95,8.5 368.89,20.81 -227.96,27.51 -596.85,6.7 -1462.48,5.25 -1933.43,-3.24z"/>
    <path id="_61_97" class="fil96" d="M-386.28 31.07c467.12,8.42 1325.71,9.87 1917.71,3.22 592,-6.65 693.23,-18.86 226.1,-27.29 -467.12,-8.42 -1325.71,-9.86 -1917.71,-3.21 -592,6.64 -693.23,18.86 -226.1,27.28zm-26.36 0.3c-478.61,-8.63 -374.89,-21.15 231.66,-27.96 606.56,-6.81 1486.26,-5.33 1964.87,3.3 478.61,8.63 374.89,21.14 -231.66,27.95 -606.56,6.81 -1486.26,5.34 -1964.87,-3.29z"/>
    <path id="_62_98" class="fil97" d="M-403.86 31.27c474.79,8.56 1347.45,10.02 1949.15,3.27 601.71,-6.76 704.6,-19.17 229.82,-27.73 -474.79,-8.57 -1347.45,-10.03 -1949.15,-3.27 -601.71,6.75 -704.6,19.17 -229.82,27.73zm-26.36 0.29c-486.27,-8.76 -380.89,-21.48 235.38,-28.4 616.26,-6.92 1510.04,-5.42 1996.3,3.35 486.27,8.77 380.89,21.49 -235.37,28.4 -616.26,6.92 -1510.04,5.42 -1996.31,-3.35z"/>
    <path id="_63_99" class="fil98" d="M-421.43 31.47c482.44,8.7 1369.18,10.18 1980.59,3.32 611.41,-6.87 715.96,-19.48 233.52,-28.18 -482.44,-8.7 -1369.18,-10.19 -1980.59,-3.32 -611.41,6.86 -715.96,19.48 -233.52,28.18zm-26.36 0.29c-493.93,-8.9 -386.89,-21.82 239.08,-28.85 625.97,-7.03 1533.82,-5.5 2027.75,3.4 493.92,8.91 386.88,21.83 -239.08,28.85 -625.97,7.03 -1533.82,5.51 -2027.75,-3.4z"/>
    <path id="_64_100" class="fil99" d="M-439 31.66c490.1,8.84 1390.91,10.35 2012.02,3.38 621.12,-6.97 727.33,-19.79 237.23,-28.63 -490.1,-8.84 -1390.91,-10.35 -2012.03,-3.37 -621.11,6.97 -727.32,19.79 -237.22,28.62zm-26.36 0.3c-501.59,-9.04 -392.89,-22.16 242.79,-29.3 635.67,-7.14 1557.6,-5.59 2059.18,3.46 501.58,9.04 392.88,22.16 -242.79,29.29 -635.67,7.14 -1557.6,5.59 -2059.18,-3.45z"/>
    <path id="_65_101" class="fil100" d="M-456.57 31.86c497.75,8.98 1412.64,10.51 2043.46,3.43 630.82,-7.08 738.69,-20.1 240.93,-29.08 -497.75,-8.97 -1412.64,-10.51 -2043.46,-3.42 -630.82,7.08 -738.69,20.1 -240.93,29.07zm-26.36 0.3c-509.25,-9.19 -398.89,-22.5 246.49,-29.75 645.38,-7.24 1581.38,-5.67 2090.62,3.51 509.24,9.18 398.89,22.5 -246.49,29.74 -645.38,7.25 -1581.38,5.68 -2090.62,-3.5z"/>
    <path id="_66_102" class="fil101" d="M-474.15 32.06c505.42,9.11 1434.38,10.67 2074.91,3.48 640.52,-7.19 750.05,-20.41 244.64,-29.52 -505.42,-9.12 -1434.38,-10.68 -2074.91,-3.48 -640.52,7.19 -750.05,20.41 -244.64,29.52zm-26.35 0.29c-516.9,-9.32 -404.89,-22.83 250.19,-30.19 655.09,-7.35 1605.16,-5.76 2122.06,3.56 516.9,9.32 404.89,22.84 -250.19,30.19 -655.09,7.36 -1605.17,5.77 -2122.06,-3.56z"/>
    <path id="_67_103" class="fil101" d="M-491.72 32.26c513.07,9.25 1456.11,10.83 2106.34,3.53 650.23,-7.3 761.42,-20.72 248.35,-29.97 -513.07,-9.25 -1456.11,-10.83 -2106.34,-3.53 -650.23,7.3 -761.42,20.71 -248.35,29.97zm-26.36 0.29c-524.55,-9.46 -410.88,-23.18 253.91,-30.64 664.78,-7.46 1628.94,-5.85 2153.5,3.61 524.55,9.46 410.88,23.18 -253.91,30.64 -664.79,7.47 -1628.94,5.85 -2153.5,-3.61z"/>
    <path id="_68_104" class="fil102" d="M-509.29 32.45c520.73,9.39 1477.84,11 2137.78,3.59 659.93,-7.41 772.78,-21.03 252.05,-30.42 -520.73,-9.39 -1477.85,-10.99 -2137.78,-3.58 -659.93,7.41 -772.78,21.02 -252.05,30.41zm-26.36 0.3c-532.21,-9.6 -416.88,-23.52 257.61,-31.09 674.49,-7.57 1652.72,-5.93 2184.94,3.67 532.21,9.59 416.88,23.51 -257.61,31.08 -674.5,7.58 -1652.72,5.94 -2184.94,-3.66z"/>
    <path id="_69_105" class="fil102" d="M-526.86 32.65c528.38,9.53 1499.57,11.16 2169.21,3.64 669.64,-7.52 784.15,-21.34 255.76,-30.86 -528.38,-9.53 -1499.58,-11.16 -2169.21,-3.64 -669.64,7.51 -784.15,21.33 -255.76,30.86zm-26.36 0.3c-539.87,-9.74 -422.88,-23.86 261.32,-31.54 684.19,-7.68 1676.5,-6.02 2216.37,3.72 539.87,9.73 422.88,23.85 -261.32,31.53 -684.19,7.69 -1676.5,6.02 -2216.37,-3.71z"/>
    <path id="_70_106" class="fil103" d="M-544.44 32.85c536.05,9.66 1521.32,11.32 2200.66,3.69 679.34,-7.63 795.51,-21.65 259.46,-31.31 -536.04,-9.67 -1521.31,-11.32 -2200.65,-3.69 -679.34,7.62 -795.51,21.64 -259.47,31.31zm-26.35 0.29c-547.54,-9.87 -428.88,-24.19 265.02,-31.98 693.9,-7.79 1700.28,-6.1 2247.81,3.77 547.53,9.87 428.88,24.19 -265.02,31.98 -693.9,7.8 -1700.28,6.11 -2247.81,-3.77z"/>
    <path id="_71_107" class="fil103" d="M-562.01 33.05c543.7,9.8 1543.05,11.47 2232.09,3.74 689.05,-7.74 806.88,-21.96 263.18,-31.76 -543.71,-9.8 -1543.05,-11.48 -2232.1,-3.74 -689.04,7.73 -806.87,21.95 -263.17,31.76zm-26.36 0.29c-555.19,-10.01 -434.87,-24.53 268.74,-32.43 703.6,-7.9 1724.06,-6.19 2279.25,3.82 555.18,10.02 434.87,24.54 -268.74,32.43 -703.6,7.9 -1724.06,6.19 -2279.25,-3.82z"/>
    <path id="_72_108" class="fil104" d="M-579.58 33.24c551.36,9.94 1564.78,11.64 2263.53,3.8 698.75,-7.85 818.24,-22.27 266.88,-32.21 -551.36,-9.94 -1564.78,-11.64 -2263.53,-3.79 -698.76,7.84 -818.24,22.26 -266.88,32.2zm-26.36 0.3c-562.85,-10.15 -440.87,-24.87 272.44,-32.88 713.31,-8.01 1747.84,-6.27 2310.69,3.88 562.84,10.15 440.87,24.87 -272.44,32.87 -713.31,8.01 -1747.84,6.28 -2310.69,-3.87z"/>
    <path id="_73_109" class="fil105" d="M-597.15 33.44c559.02,10.08 1586.51,11.8 2294.97,3.85 708.45,-7.95 829.6,-22.57 270.58,-32.65 -559.02,-10.08 -1586.51,-11.81 -2294.97,-3.85 -708.46,7.95 -829.6,22.57 -270.58,32.65zm-26.36 0.3c-570.51,-10.29 -446.87,-25.21 276.14,-33.33 723.02,-8.12 1771.63,-6.36 2342.13,3.93 570.5,10.29 446.87,25.21 -276.15,33.32 -723.01,8.12 -1771.62,6.36 -2342.12,-3.92z"/>
    <path id="_74_110" class="fil106" d="M-614.72 33.64c566.67,10.22 1608.24,11.96 2326.4,3.9 718.16,-8.06 840.97,-22.88 274.29,-33.1 -566.67,-10.22 -1608.24,-11.97 -2326.4,-3.9 -718.17,8.06 -840.97,22.88 -274.29,33.1zm-26.36 0.29c-578.17,-10.42 -452.87,-25.54 279.85,-33.77 732.72,-8.23 1795.4,-6.44 2373.56,3.98 578.16,10.43 452.87,25.55 -279.85,33.77 -732.72,8.23 -1795.4,6.45 -2373.56,-3.98z"/>
    <path id="_75_111" class="fil106" d="M-632.3 33.83c574.34,10.36 1629.98,12.13 2357.85,3.96 727.87,-8.17 852.33,-23.19 278,-33.55 -574.34,-10.36 -1629.98,-12.13 -2357.85,-3.95 -727.87,8.17 -852.33,23.19 -278,33.54zm-26.36 0.3c-585.82,-10.56 -458.86,-25.88 283.56,-34.22 742.43,-8.33 1819.18,-6.53 2405,4.04 585.82,10.56 458.87,25.88 -283.55,34.21 -742.43,8.34 -1819.19,6.53 -2405.01,-4.03z"/>
    <path id="_76_112" class="fil107" d="M-649.87 34.03c581.99,10.5 1651.71,12.29 2389.28,4.01 737.58,-8.28 863.7,-23.5 281.71,-34 -581.99,-10.49 -1651.71,-12.28 -2389.28,-4 -737.58,8.28 -863.7,23.5 -281.71,33.99zm-26.36 0.3c-593.48,-10.7 -464.86,-26.23 287.27,-34.67 752.13,-8.44 1842.96,-6.61 2436.44,4.09 593.47,10.7 464.86,26.22 -287.27,34.66 -752.13,8.45 -1842.96,6.62 -2436.44,-4.08z"/>
    <path id="_77_113" class="fil107" d="M-667.44 34.23c589.65,10.63 1673.44,12.45 2420.72,4.06 747.28,-8.39 875.06,-23.81 285.41,-34.44 -589.65,-10.64 -1673.44,-12.45 -2420.72,-4.06 -747.28,8.39 -875.06,23.81 -285.41,34.44zm-26.36 0.29c-601.14,-10.84 -470.86,-26.56 290.97,-35.11 761.84,-8.55 1866.74,-6.7 2467.88,4.14 601.13,10.84 470.86,26.56 -290.97,35.11 -761.84,8.56 -1866.74,6.7 -2467.88,-4.14z"/>
    <path id="_78_114" class="fil107" d="M-685.01 34.43c597.3,10.77 1695.17,12.61 2452.15,4.11 756.99,-8.5 886.43,-24.12 289.12,-34.89 -597.3,-10.77 -1695.17,-12.61 -2452.16,-4.11 -756.98,8.49 -886.42,24.12 -289.11,34.89zm-26.36 0.29c-608.8,-10.98 -476.86,-26.9 294.68,-35.56 771.54,-8.66 1890.52,-6.78 2499.31,4.19 608.8,10.98 476.86,26.9 -294.68,35.56 -771.54,8.67 -1890.52,6.79 -2499.31,-4.19z"/>
    <path id="_79_115" class="fil107" d="M-702.59 34.62c604.97,10.91 1716.91,12.78 2483.6,4.17 766.69,-8.61 897.79,-24.43 292.83,-35.34 -604.97,-10.91 -1716.91,-12.77 -2483.6,-4.16 -766.69,8.6 -897.79,24.42 -292.83,35.33zm-26.35 0.3c-616.46,-11.12 -482.86,-27.24 298.38,-36.01 781.25,-8.77 1914.3,-6.87 2530.75,4.25 616.45,11.11 482.86,27.23 -298.38,36 -781.25,8.78 -1914.3,6.88 -2530.75,-4.24z"/>
    <path id="_80_116" class="fil108" d="M-720.16 34.82c612.62,11.05 1738.64,12.94 2515.03,4.22 776.4,-8.72 909.16,-24.74 296.54,-35.78 -612.63,-11.05 -1738.64,-12.94 -2515.04,-4.22 -776.39,8.71 -909.15,24.73 -296.53,35.78zm-26.36 0.3c-624.11,-11.26 -488.85,-27.58 302.1,-36.46 790.94,-8.88 1938.08,-6.96 2562.19,4.3 624.1,11.25 488.85,27.57 -302.1,36.45 -790.95,8.88 -1938.08,6.96 -2562.19,-4.29z"/>
    <path id="_81_117" class="fil109" d="M-737.73 35.02c620.28,11.18 1760.37,13.1 2546.47,4.27 786.1,-8.83 920.52,-25.05 300.24,-36.23 -620.28,-11.19 -1760.37,-13.1 -2546.47,-4.27 -786.1,8.82 -920.52,25.04 -300.24,36.23zm-26.36 0.29c-631.77,-11.39 -494.85,-27.91 305.8,-36.9 800.65,-8.99 1961.86,-7.04 2593.63,4.35 631.76,11.39 494.85,27.92 -305.8,36.9 -800.66,8.99 -1961.86,7.04 -2593.63,-4.35z"/>
    <path id="_82_118" class="fil109" d="M-755.3 35.22c627.94,11.32 1782.1,13.25 2577.91,4.32 795.8,-8.93 931.88,-25.36 303.94,-36.68 -627.94,-11.32 -1782.11,-13.26 -2577.91,-4.32 -795.8,8.93 -931.88,25.35 -303.94,36.68zm-26.36 0.29c-639.43,-11.53 -500.86,-28.25 309.5,-37.35 810.36,-9.1 1985.65,-7.13 2625.07,4.4 639.42,11.53 500.85,28.26 -309.51,37.35 -810.36,9.1 -1985.64,7.13 -2625.06,-4.4z"/>
    <path id="_83_119" class="fil109" d="M-772.88 35.41c635.6,11.46 1803.84,13.42 2609.35,4.38 805.51,-9.04 943.25,-25.67 307.65,-37.13 -635.59,-11.46 -1803.84,-13.42 -2609.34,-4.37 -805.51,9.04 -943.25,25.66 -307.66,37.12zm-26.35 0.3c-647.09,-11.67 -506.86,-28.59 313.21,-37.8 820.06,-9.21 2009.42,-7.21 2656.5,4.46 647.08,11.67 506.85,28.59 -313.21,37.79 -820.06,9.21 -2009.42,7.22 -2656.5,-4.45z"/>
    <path id="_84_120" class="fil109" d="M-790.45 35.61c643.26,11.6 1825.58,13.58 2640.79,4.43 815.21,-9.15 954.61,-25.97 311.36,-37.57 -643.26,-11.6 -1825.58,-13.59 -2640.79,-4.43 -815.21,9.15 -954.61,25.97 -311.36,37.57zm-26.36 0.3c-654.74,-11.81 -512.85,-28.93 316.92,-38.25 829.77,-9.32 2033.21,-7.3 2687.94,4.51 654.74,11.81 512.86,28.93 -316.91,38.24 -829.77,9.32 -2033.21,7.3 -2687.95,-4.5z"/>
    <path id="_85_121" class="fil110" d="M-808.02 35.81c650.91,11.73 1847.31,13.74 2672.22,4.48 824.92,-9.26 965.98,-26.28 315.07,-38.02 -650.91,-11.74 -1847.31,-13.75 -2672.22,-4.48 -824.92,9.26 -965.98,26.28 -315.07,38.02zm-26.36 0.29c-662.4,-11.94 -518.85,-29.26 320.63,-38.69 839.47,-9.42 2056.98,-7.38 2719.38,4.56 662.39,11.95 518.85,29.27 -320.63,38.69 -839.47,9.43 -2056.98,7.39 -2719.38,-4.56z"/>
    <path id="_86_122" class="fil110" d="M-825.59 36c658.57,11.88 1869.04,13.91 2703.66,4.54 834.62,-9.37 977.34,-26.59 318.77,-38.47 -658.57,-11.87 -1869.04,-13.9 -2703.66,-4.53 -834.62,9.37 -977.34,26.59 -318.77,38.46zm-26.36 0.3c-670.06,-12.08 -524.85,-29.61 324.33,-39.14 849.18,-9.53 2080.76,-7.47 2750.82,4.61 670.06,12.09 524.85,29.61 -324.33,39.14 -849.18,9.54 -2080.77,7.47 -2750.82,-4.61z"/>
    <path id="_87_123" class="fil110" d="M-843.17 36.2c666.23,12.01 1890.78,14.07 2735.11,4.59 844.32,-9.48 988.7,-26.9 322.47,-38.92 -666.22,-12.01 -1890.77,-14.06 -2735.1,-4.58 -844.32,9.47 -988.7,26.9 -322.48,38.91zm-26.35 0.3c-677.72,-12.22 -530.85,-29.95 328.04,-39.59 858.88,-9.64 2104.54,-7.55 2782.25,4.67 677.72,12.22 530.85,29.94 -328.04,39.59 -858.88,9.64 -2104.54,7.55 -2782.25,-4.67z"/>
    <path id="_88_124" class="fil110" d="M-860.74 36.4c673.89,12.15 1912.51,14.23 2766.54,4.64 854.03,-9.59 1000.07,-27.21 326.19,-39.36 -673.89,-12.15 -1912.51,-14.23 -2766.54,-4.64 -854.03,9.58 -1000.07,27.21 -326.19,39.36zm-26.36 0.29c-685.37,-12.35 -536.84,-30.28 331.75,-40.03 868.59,-9.75 2128.32,-7.64 2813.69,4.72 685.38,12.36 536.85,30.28 -331.74,40.03 -868.59,9.76 -2128.32,7.64 -2813.7,-4.72z"/>
    <path id="_89_125" class="fil110" d="M-878.31 36.6c681.54,12.29 1934.24,14.39 2797.98,4.69 863.73,-9.7 1011.43,-27.52 329.89,-39.81 -681.54,-12.29 -1934.24,-14.39 -2797.98,-4.7 -863.73,9.7 -1011.43,27.53 -329.89,39.82zm-26.36 0.29c-693.03,-12.5 -542.84,-30.62 335.45,-40.48 878.3,-9.86 2152.11,-7.72 2845.14,4.77 693.03,12.5 542.84,30.62 -335.46,40.48 -878.29,9.87 -2152.1,7.73 -2845.13,-4.77z"/>
    <path id="_90_126" class="fil110" d="M-895.88 36.79c689.2,12.43 1955.97,14.56 2829.41,4.75 873.44,-9.81 1022.8,-27.83 333.6,-40.26 -689.2,-12.43 -1955.97,-14.55 -2829.41,-4.74 -873.44,9.8 -1022.8,27.83 -333.6,40.25zm-26.36 0.3c-700.69,-12.64 -548.84,-30.96 339.16,-40.93 888,-9.97 2175.88,-7.81 2876.57,4.83 700.69,12.63 548.84,30.95 -339.16,40.93 -888,9.96 -2175.88,7.8 -2876.57,-4.83z"/>
    <path id="_91_127" class="fil110" d="M-913.45 36.99c696.85,12.57 1977.7,14.71 2860.85,4.8 883.14,-9.92 1034.16,-28.14 337.3,-40.71 -696.86,-12.56 -1977.7,-14.71 -2860.85,-4.79 -883.14,9.91 -1034.16,28.13 -337.3,40.7zm-17.58 0.2c-704.51,-12.71 -551.84,-31.13 341.02,-41.16 892.85,-10.02 2187.77,-7.85 2892.28,4.86 704.52,12.7 551.84,31.13 -341.01,41.15 -892.85,10.02 -2187.77,7.85 -2892.29,-4.85z"/>
   </g>
  </g>
  <path class="fil111" d="M1241.63 7.75l-2.33 0.17 5.42 9 0 28.76 10.37 16.17 0 42.79c-0.48,0.04 -0.95,0.11 -1.42,0.2 -5.86,1.07 -9.97,6.34 -10.04,12.21 0,6.91 5.56,12.39 12.45,12.45 6.88,-0.06 12.45,-5.54 12.45,-12.45 -0.08,-6.58 -4.92,-11.79 -11.41,-12.4l0 -43.39 -10.37 -16.17 0 -28.79 -5.12 -8.55zm19.04 0l-2.33 0.17 5.43 9 0 28.76 10.37 16.17 0 91.45c-0.94,0.05 -1.85,0.17 -2.74,0.34 -9.15,1.66 -15.54,9.89 -15.65,19.03 0,10.77 8.67,19.3 19.39,19.4 10.73,-0.1 19.4,-8.62 19.4,-19.4 -0.12,-10.45 -7.96,-18.69 -18.38,-19.37l0 -92.04 -10.37 -16.17 0 -28.79 -5.12 -8.55zm14.47 149.61c8.44,0 15.32,6.88 15.32,15.31 0,8.44 -6.88,15.32 -15.32,15.32 -8.43,0 -15.31,-6.89 -15.31,-15.32 0,-8.43 6.88,-15.31 15.31,-15.31zm-19.06 -50.13c5.41,0 9.82,4.41 9.82,9.82 0,5.41 -4.41,9.83 -9.82,9.83 -5.42,0 -9.83,-4.42 -9.83,-9.83 0,-5.41 4.42,-9.82 9.83,-9.82z"/>
  <line class="fil112 str0" x1="1458.78" y1="16.61" x2="0" y2= "16.61" />
  <line class="fil112 str0" x1="1458.78" y1="45.38" x2="0" y2= "45.38" />
  <line class="fil112 str0" x1="1458.78" y1="61.56" x2="0" y2= "61.56" />
  <line class="fil112 str0" x1="1458.78" y1="0.44" x2="0" y2= "0.44" />
  <path class="fil111" d="M1238.58 2.64c0.97,-0.01 1.94,0.28 2.73,0.78 0.83,0.52 1.49,1.27 1.76,2.14 0.28,0.91 0.09,1.79 -0.48,2.44 -0.58,0.68 -1.54,1.1 -2.72,1.09 -1.17,-0.01 -2.28,-0.44 -3.11,-1.11 -0.79,-0.65 -1.32,-1.5 -1.4,-2.4 -0.07,-0.85 0.26,-1.59 0.85,-2.1 0.57,-0.51 1.4,-0.82 2.37,-0.84zm1.84 1.68c-0.46,-0.3 -1.02,-0.48 -1.6,-0.48 -0.58,0.01 -1.07,0.2 -1.39,0.5 -0.33,0.31 -0.51,0.75 -0.44,1.24 0.07,0.51 0.38,0.98 0.84,1.33 0.47,0.35 1.08,0.58 1.72,0.58 0.64,0.01 1.17,-0.22 1.5,-0.58 0.33,-0.35 0.46,-0.83 0.33,-1.35 -0.14,-0.5 -0.5,-0.94 -0.96,-1.24z"/>
  <path class="fil111" d="M1257.93 2.64c0.97,-0.01 1.94,0.28 2.73,0.78 0.83,0.52 1.49,1.27 1.76,2.14 0.28,0.91 0.09,1.79 -0.48,2.44 -0.57,0.68 -1.54,1.1 -2.72,1.09 -1.16,-0.01 -2.28,-0.44 -3.11,-1.11 -0.79,-0.65 -1.31,-1.5 -1.39,-2.4 -0.08,-0.85 0.25,-1.59 0.84,-2.1 0.57,-0.51 1.41,-0.82 2.37,-0.84zm1.84 1.68c-0.45,-0.3 -1.02,-0.48 -1.6,-0.48 -0.58,0.01 -1.07,0.2 -1.39,0.5 -0.33,0.31 -0.51,0.75 -0.44,1.24 0.07,0.51 0.38,0.98 0.84,1.33 0.47,0.35 1.08,0.58 1.72,0.58 0.64,0.01 1.18,-0.22 1.51,-0.58 0.33,-0.35 0.45,-0.83 0.32,-1.35 -0.13,-0.5 -0.49,-0.94 -0.96,-1.24z"/>
 </g>
</svg>
